<?xml version="1.0" encoding="UTF-8"?>
<svg id="Layer_2" xmlns="http://www.w3.org/2000/svg" xmlns:xlink="http://www.w3.org/1999/xlink" viewBox="0 0 1331.2 870.83">
  <defs>
    <style>
      .cls-1 {
        stroke: #fff;
        stroke-width: 1.85px;
      }

      .cls-1, .cls-2 {
        fill: none;
        stroke-miterlimit: 10;
      }

      .cls-3 {
        fill: #fafafa;
      }

      .cls-4 {
        fill: #a2d6db;
      }

      .cls-5 {
        fill: #ebfbff;
      }

      .cls-6 {
        fill: #777;
      }

      .cls-7 {
        fill: #ff735d;
      }

      .cls-2 {
        stroke: #c4c4c4;
        stroke-width: 1.04px;
      }

      .cls-8 {
        opacity: .3;
      }

      .cls-9, .cls-10 {
        fill: #fff;
      }

      .cls-11 {
        fill: #4badcc;
      }

      .cls-12 {
        fill: #1a2e35;
      }

      .cls-13 {
        opacity: .36;
      }

      .cls-14 {
        fill: #b7a609;
      }

      .cls-15 {
        fill: #a0a0a0;
      }

      .cls-16 {
        fill: #c4c4c4;
      }

      .cls-17 {
        fill: #a5edf9;
      }

      .cls-18 {
        fill: #a7cdd3;
      }

      .cls-19 {
        fill: #f3fdff;
      }

      .cls-20 {
        fill: #35e6bb;
      }

      .cls-21 {
        fill: #e2d420;
      }

      .cls-22 {
        opacity: .2;
      }

      .cls-23 {
        fill: #ececec;
      }

      .cls-10 {
        font-family: MyriadPro-Regular, 'Myriad Pro';
        font-size: 14.56px;
      }

      .cls-24 {
        fill: url(#Degradado_sin_nombre_152);
      }

      .cls-25 {
        fill: #f5f5f5;
      }

      .cls-26 {
        fill: #eded06;
      }

      .cls-27 {
        opacity: .1;
      }

      .cls-28 {
        fill: #00e9d9;
      }

      .cls-29 {
        fill: #aa7433;
      }

      .cls-30 {
        opacity: .5;
      }

      .cls-31 {
        fill: #f2e779;
      }

      .cls-32 {
        fill: #d2f7ff;
      }

      .cls-33 {
        fill: #b5e3ea;
      }

      .cls-34 {
        fill: #e1e1e1;
      }
    </style>
    <linearGradient id="Degradado_sin_nombre_152" data-name="Degradado sin nombre 152" x1="1037.58" y1="626.55" x2="950.74" y2="539.72" gradientUnits="userSpaceOnUse">
      <stop offset="0" stop-color="#35c9e2" stop-opacity=".5"/>
      <stop offset="1" stop-color="#35e6bb"/>
    </linearGradient>
  </defs>
  <g id="Layer_1-2" data-name="Layer_1">
    <g>
      <g>
        <g>
          <path class="cls-25" d="M1003.12,298.28c3.2,21.24-11.46,41.05-32.74,44.26-21.28,3.21-41.13-11.41-44.33-32.64-3.2-21.23,11.46-41.05,32.74-44.26,21.28-3.21,41.13,11.41,44.33,32.64Z"/>
          <path class="cls-23" d="M993.95,299.66c2.44,16.18-8.73,31.28-24.95,33.73-16.22,2.44-31.35-8.69-33.78-24.87-2.44-16.18,8.73-31.28,24.95-33.73,16.22-2.44,31.35,8.69,33.79,24.87Z"/>
          <path class="cls-34" d="M993.8,298.74c-.18.03-.5-1.24-1.31-3.41-.82-2.16-2.2-5.26-4.74-8.49-1.27-1.61-2.83-3.24-4.69-4.75-1.88-1.49-4.05-2.89-6.51-3.98-1.23-.55-2.52-1.04-3.88-1.41-1.35-.38-2.76-.7-4.21-.87-1.45-.18-2.93-.28-4.44-.24-1.51.04-3.03.2-4.56.47-1.52.29-3.01.69-4.43,1.18-1.43.49-2.78,1.11-4.07,1.79-1.3.68-2.5,1.47-3.63,2.31-1.14.83-2.17,1.75-3.13,2.69-1.92,1.89-3.45,3.96-4.68,6.03-1.21,2.07-2.09,4.15-2.71,6.1-1.24,3.92-1.43,7.31-1.43,9.62.01,2.32.16,3.63-.01,3.66-.13.03-.58-1.22-.87-3.6-.27-2.36-.34-5.91.76-10.11.55-2.09,1.39-4.33,2.61-6.58,1.23-2.24,2.81-4.5,4.83-6.57,1-1.04,2.1-2.04,3.31-2.95,1.2-.92,2.49-1.79,3.88-2.53,1.39-.75,2.84-1.43,4.38-1.97,1.54-.54,3.14-.97,4.78-1.28,1.65-.29,3.29-.45,4.92-.49,1.63-.04,3.23.08,4.79.29,1.56.21,3.07.56,4.52,1,1.45.43,2.83.98,4.14,1.59,2.62,1.22,4.9,2.78,6.85,4.43,1.93,1.68,3.51,3.47,4.77,5.23,2.52,3.54,3.72,6.88,4.3,9.19.57,2.33.59,3.66.46,3.68Z"/>
        </g>
        <path class="cls-34" d="M970.54,321.1l.85,5.1-4.56.75-.82-4.97c-4.56.47-9.12-.22-11.95-1.77l1.58-5.98c2.56,1.31,6.04,2,9.38,1.77l-1.26-7.61c-5.26-.39-11.19-1.14-12.27-7.66-.8-4.83,2.02-9.56,9.09-11.57l-.84-5.06,4.56-.75.82,4.97c3.46-.29,6.94.07,9.71,1.25l-1.35,5.98c-2.54-.94-5.04-1.32-7.37-1.22l1.28,7.75c5.25.35,11.09,1.11,12.16,7.54.78,4.74-2,9.41-9.01,11.46ZM962.65,301.72l-1.07-6.47c-2.32.95-3.06,2.43-2.81,3.93.26,1.59,1.78,2.23,3.89,2.54ZM972.31,311.4c-.26-1.6-1.73-2.24-3.8-2.6l1.04,6.29c2.2-.88,3-2.23,2.76-3.69Z"/>
      </g>
      <g>
        <g>
          <path class="cls-33" d="M571.79,329.97c4.34,28.81-15.55,55.69-44.42,60.04-28.88,4.35-55.8-15.47-60.15-44.28-4.34-28.81,15.55-55.69,44.42-60.04,28.88-4.35,55.8,15.47,60.15,44.28Z"/>
          <path class="cls-32" d="M559.35,331.84c3.31,21.95-11.85,42.44-33.85,45.76-22,3.32-42.53-11.79-45.83-33.75-3.31-21.95,11.85-42.44,33.85-45.76,22-3.32,42.53,11.79,45.84,33.75Z"/>
          <path class="cls-4" d="M559.15,330.6c-.24.05-.67-1.68-1.78-4.63-1.11-2.93-2.98-7.14-6.44-11.52-1.72-2.18-3.83-4.39-6.37-6.45-2.55-2.03-5.49-3.92-8.83-5.4-1.67-.74-3.42-1.4-5.26-1.91-1.84-.52-3.74-.94-5.71-1.18-1.96-.24-3.98-.38-6.03-.32-2.05.06-4.11.27-6.19.63-2.07.39-4.08.93-6.01,1.6-1.94.67-3.77,1.51-5.53,2.43-1.76.92-3.39,1.99-4.92,3.13-1.54,1.13-2.95,2.37-4.24,3.65-2.6,2.56-4.69,5.38-6.35,8.18-1.64,2.82-2.83,5.63-3.67,8.28-1.68,5.32-1.93,9.91-1.94,13.05.02,3.15.22,4.92-.02,4.96-.18.04-.79-1.66-1.18-4.89-.37-3.21-.46-8.02,1.04-13.72.75-2.84,1.89-5.88,3.54-8.93,1.67-3.04,3.82-6.11,6.55-8.92,1.36-1.41,2.85-2.77,4.49-4,1.63-1.25,3.38-2.42,5.26-3.44,1.88-1.02,3.86-1.94,5.94-2.67,2.08-.73,4.25-1.32,6.48-1.74,2.23-.39,4.47-.61,6.68-.67,2.21-.06,4.39.11,6.5.39,2.12.28,4.17.76,6.14,1.35,1.97.58,3.84,1.32,5.62,2.16,3.55,1.66,6.65,3.77,9.29,6.02,2.62,2.27,4.77,4.71,6.47,7.1,3.42,4.8,5.04,9.33,5.83,12.46.78,3.16.81,4.96.63,4.99Z"/>
        </g>
        <path class="cls-17" d="M527.59,360.93l1.15,6.93-6.18,1.02-1.12-6.74c-6.18.64-12.37-.3-16.21-2.4l2.15-8.11c3.47,1.78,8.2,2.71,12.72,2.4l-1.71-10.33c-7.14-.53-15.18-1.55-16.65-10.39-1.08-6.55,2.74-12.97,12.33-15.7l-1.14-6.86,6.18-1.02,1.12,6.74c4.7-.4,9.42.09,13.17,1.69l-1.83,8.12c-3.45-1.27-6.84-1.79-9.99-1.65l1.74,10.51c7.13.47,15.05,1.51,16.49,10.23,1.06,6.43-2.71,12.77-12.23,15.55ZM516.89,334.63l-1.45-8.78c-3.15,1.28-4.15,3.29-3.82,5.33.36,2.16,2.41,3.03,5.27,3.45ZM529.99,347.77c-.36-2.17-2.35-3.04-5.16-3.53l1.41,8.53c2.98-1.19,4.07-3.02,3.75-5Z"/>
      </g>
      <g>
        <g>
          <path class="cls-33" d="M551.6,76.11c5.17,34.29-18.51,66.29-52.88,71.48-34.37,5.18-66.43-18.42-71.6-52.71-5.17-34.29,18.5-66.29,52.88-71.47,34.37-5.18,66.43,18.42,71.6,52.71Z"/>
          <path class="cls-32" d="M536.79,78.35c3.94,26.13-14.1,50.52-40.3,54.47-26.19,3.95-50.62-14.04-54.56-40.17-3.94-26.13,14.1-50.52,40.3-54.47,26.19-3.95,50.62,14.04,54.56,40.17Z"/>
          <path class="cls-4" d="M536.55,76.86c-.29.05-.8-2-2.11-5.51-1.33-3.49-3.55-8.5-7.66-13.71-2.05-2.59-4.56-5.23-7.58-7.67-3.03-2.41-6.54-4.67-10.51-6.42-1.98-.88-4.07-1.67-6.26-2.28-2.18-.62-4.45-1.12-6.8-1.41-2.34-.29-4.74-.46-7.18-.38-2.44.07-4.9.32-7.36.75-2.46.47-4.85,1.11-7.16,1.9-2.31.79-4.49,1.8-6.58,2.9-2.09,1.1-4.04,2.37-5.86,3.72-1.83,1.34-3.51,2.82-5.05,4.35-3.1,3.05-5.58,6.4-7.56,9.73-1.95,3.35-3.37,6.7-4.37,9.86-2,6.33-2.3,11.8-2.3,15.53.02,3.75.27,5.85-.02,5.9-.21.04-.94-1.98-1.41-5.82-.44-3.82-.55-9.55,1.23-16.33.89-3.38,2.25-7,4.21-10.63,1.99-3.62,4.54-7.27,7.8-10.61,1.62-1.67,3.39-3.29,5.34-4.77,1.94-1.48,4.02-2.89,6.26-4.09,2.24-1.21,4.59-2.31,7.08-3.18,2.48-.87,5.06-1.57,7.71-2.07,2.66-.47,5.32-.73,7.95-.79,2.63-.07,5.22.13,7.74.47,2.52.33,4.96.91,7.3,1.61,2.35.69,4.58,1.58,6.68,2.57,4.23,1.97,7.92,4.48,11.06,7.16,3.12,2.71,5.67,5.61,7.7,8.45,4.07,5.71,6,11.11,6.94,14.84.92,3.76.96,5.91.75,5.94Z"/>
        </g>
        <path class="cls-17" d="M498.99,112.98l1.37,8.24-7.36,1.22-1.33-8.02c-7.36.76-14.73-.36-19.3-2.85l2.56-9.65c4.13,2.12,9.76,3.22,15.14,2.86l-2.04-12.29c-8.5-.63-18.07-1.85-19.82-12.37-1.29-7.8,3.27-15.44,14.67-18.68l-1.35-8.17,7.36-1.22,1.33,8.02c5.59-.47,11.21.11,15.68,2.02l-2.18,9.66c-4.11-1.51-8.14-2.13-11.9-1.96l2.07,12.51c8.48.56,17.92,1.8,19.63,12.17,1.27,7.66-3.23,15.2-14.55,18.52ZM486.24,81.67l-1.73-10.45c-3.75,1.53-4.95,3.92-4.54,6.35.43,2.57,2.87,3.61,6.28,4.1ZM501.84,97.31c-.43-2.58-2.79-3.62-6.14-4.2l1.68,10.16c3.55-1.42,4.85-3.6,4.46-5.95Z"/>
      </g>
      <g>
        <path class="cls-32" d="M977.19,454.75l-322.87-100.5c-8.3-2.58-12.93-11.4-10.34-19.69l62.08-199.45c2.58-8.29,11.4-12.93,19.69-10.34l322.87,100.51c8.29,2.58,12.92,11.4,10.34,19.69l-62.08,199.45c-2.58,8.3-11.4,12.93-19.7,10.34Z"/>
        <g>
          <path class="cls-9" d="M696.28,276.65l-6.1,19.59-2.02-.63,5.54-17.8-4.62-1.44.56-1.79,6.63,2.06Z"/>
          <path class="cls-9" d="M710.89,300.72l-.56,1.79-13.74-4.28.44-1.43,10.63-5.44c2.89-1.49,3.72-2.68,4.14-4.02.71-2.27-.45-4.16-3.45-5.09-2.3-.71-4.28-.56-6.03.52l-1.04-1.68c2.07-1.32,4.82-1.57,7.81-.64,3.97,1.24,5.87,4.04,4.85,7.31-.58,1.87-1.7,3.37-5.13,5.13l-8.7,4.47,10.77,3.35Z"/>
          <path class="cls-9" d="M732.56,303.78l-3.92-1.22-1.6,5.15-2.01-.63,1.6-5.15-11.05-3.44.45-1.45,14.43-9.75,2.24.7-13.96,9.53,8.51,2.65,1.41-4.53,1.96.61-1.41,4.53,3.92,1.22-.56,1.79Z"/>
          <path class="cls-9" d="M762.58,313.13l-3.92-1.22-1.6,5.15-2.02-.63,1.6-5.15-11.05-3.44.45-1.45,14.43-9.75,2.24.7-13.96,9.53,8.51,2.65,1.41-4.53,1.96.61-1.41,4.53,3.92,1.22-.56,1.79Z"/>
          <path class="cls-9" d="M779.9,317.84c-1.04,3.33-4.17,5.21-8.96,3.72-2.83-.88-5.21-2.7-6.24-4.71l1.48-1.29c.85,1.71,2.79,3.35,5.31,4.14,3.33,1.04,5.6-.04,6.34-2.42.78-2.52-.3-4.57-5.28-6.12l-4.17-1.3,4.07-9.51,10.72,3.34-.56,1.79-8.96-2.79-2.61,6.03,2.52.78c5.9,1.84,7.42,4.86,6.34,8.33Z"/>
          <path class="cls-9" d="M799.29,323.78c-1.14,3.67-4.76,5.12-8.56,3.93-5.2-1.62-6.91-6.11-4.98-12.3,2.08-6.66,6.79-9,12.11-7.34,1.76.55,3.32,1.37,4.32,2.51l-1.32,1.37c-.8-.98-2.06-1.65-3.52-2.11-4.23-1.32-7.79.55-9.44,5.87-.14.45-.29,1.02-.41,1.62,1.65-1.85,4.32-2.34,7.03-1.49,3.89,1.21,5.89,4.35,4.78,7.93ZM797.28,323.22c.8-2.58-.59-4.82-3.61-5.76-2.99-.93-5.61.28-6.37,2.71-.67,2.16.48,4.76,3.87,5.81,2.83.88,5.3-.16,6.11-2.76Z"/>
          <path class="cls-9" d="M826.02,332.35c-1.02,3.27-4.18,5.05-8.91,3.58-2.83-.88-5.24-2.7-6.27-4.72l1.47-1.29c.85,1.71,2.82,3.36,5.37,4.16,3.25,1.01,5.51.06,6.27-2.38.73-2.35-.44-4.4-4.08-5.54l-1.4-.43.46-1.48,7.55-5.11-10.02-3.12.56-1.79,12.59,3.92-.44,1.43-7.71,5.24c4.13,1.53,5.54,4.4,4.56,7.53Z"/>
          <path class="cls-9" d="M845.73,338.24c-1.14,3.67-4.76,5.12-8.56,3.94-5.21-1.62-6.91-6.11-4.98-12.3,2.07-6.66,6.79-9,12.11-7.34,1.76.55,3.32,1.37,4.32,2.51l-1.32,1.37c-.8-.98-2.06-1.65-3.52-2.11-4.23-1.32-7.78.55-9.44,5.87-.14.45-.29,1.02-.41,1.62,1.65-1.85,4.32-2.34,7.03-1.49,3.89,1.21,5.89,4.35,4.77,7.93ZM843.73,337.68c.8-2.57-.59-4.82-3.61-5.76-3-.93-5.61.28-6.37,2.71-.67,2.16.48,4.76,3.87,5.81,2.83.88,5.3-.16,6.11-2.77Z"/>
          <path class="cls-9" d="M868.03,330.11l-.44,1.43-13.85,15.61-2.18-.68,13.6-15.29-10.08-3.14-1.14,3.67-1.99-.62,1.7-5.46,14.39,4.48Z"/>
          <path class="cls-9" d="M896.04,338.83l-.44,1.43-13.85,15.61-2.18-.68,13.6-15.29-10.08-3.14-1.14,3.67-1.99-.62,1.7-5.46,14.38,4.48Z"/>
          <path class="cls-9" d="M910.92,358.96c-1.08,3.47-4.69,4.71-9.36,3.26-4.7-1.46-6.89-4.51-5.81-7.98.73-2.35,2.59-3.58,5.28-3.64-1.74-1.4-2.37-3.22-1.74-5.27.99-3.19,4.33-4.33,8.47-3.04,4.14,1.29,6.29,4.14,5.3,7.33-.64,2.04-2.22,3.18-4.47,3.33,2.21,1.58,3.06,3.68,2.33,6.01ZM908.86,358.29c.75-2.41-.85-4.56-4.32-5.64-3.47-1.08-5.98-.2-6.73,2.2-.76,2.43.82,4.58,4.29,5.66,3.47,1.08,6.01.21,6.77-2.22ZM905.03,351.05c3.05.95,5.3.14,5.96-1.98.69-2.21-.83-4.16-3.76-5.07-2.97-.92-5.26-.16-5.94,2.02-.67,2.15.69,4.08,3.74,5.03Z"/>
          <path class="cls-9" d="M931.35,360.38c-2.07,6.66-6.79,9-12.11,7.34-1.77-.55-3.32-1.37-4.32-2.51l1.31-1.37c.8.98,2.07,1.65,3.52,2.11,4.23,1.32,7.79-.55,9.44-5.87.14-.45.29-1.02.41-1.62-1.65,1.85-4.32,2.34-7.04,1.49-3.89-1.21-5.89-4.35-4.77-7.93,1.14-3.67,4.76-5.12,8.56-3.94,5.21,1.62,6.91,6.11,4.98,12.3ZM929.79,355.63c.67-2.16-.48-4.76-3.87-5.81-2.83-.88-5.3.16-6.11,2.76-.8,2.57.59,4.82,3.61,5.76,2.99.93,5.61-.28,6.37-2.71Z"/>
          <path class="cls-9" d="M954.21,356.93l-6.1,19.59-2.02-.63,5.54-17.8-4.62-1.44.56-1.79,6.63,2.06Z"/>
          <path class="cls-9" d="M968.82,381.01l-.56,1.79-13.74-4.28.44-1.43,10.63-5.44c2.89-1.49,3.72-2.68,4.14-4.02.71-2.27-.46-4.16-3.45-5.09-2.29-.71-4.28-.56-6.02.52l-1.05-1.68c2.07-1.32,4.82-1.57,7.81-.64,3.97,1.24,5.87,4.04,4.85,7.31-.59,1.87-1.7,3.37-5.13,5.13l-8.7,4.48,10.77,3.35Z"/>
          <path class="cls-9" d="M987.58,382.64c-1.02,3.27-4.18,5.05-8.91,3.58-2.82-.88-5.23-2.7-6.26-4.71l1.47-1.29c.85,1.71,2.82,3.36,5.37,4.16,3.25,1.01,5.51.06,6.27-2.38.73-2.35-.44-4.4-4.08-5.54l-1.4-.43.46-1.48,7.55-5.11-10.02-3.12.56-1.79,12.6,3.92-.44,1.43-7.71,5.24c4.13,1.53,5.54,4.4,4.56,7.53Z"/>
        </g>
        <rect class="cls-9" x="903.55" y="302.43" width="8.91" height="164.35" transform="translate(270.94 1137.3) rotate(-72.71)"/>
        <rect class="cls-9" x="936.48" y="371.34" width="8.91" height="84.29" transform="translate(266.52 1189.06) rotate(-72.71)"/>
        <g class="cls-30">
          <path class="cls-23" d="M746.65,273.8l-48.28-15.03c-4.85-1.51-7.56-6.67-6.05-11.52l9.84-31.62c1.51-4.85,6.67-7.56,11.52-6.05l48.27,15.03c4.85,1.51,7.56,6.67,6.05,11.52l-9.84,31.62c-1.51,4.85-6.67,7.56-11.52,6.05Z"/>
        </g>
        <path class="cls-34" d="M693.83,242.42l.99-3.15,33.9,10.55c3.91,1.21,8.09-.98,9.31-4.89,1.22-3.91-1.01-8.14-4.89-9.3l-33.9-10.55.98-3.15,33.9,10.55c5.65,1.76,8.82,7.79,7.06,13.44-1.76,5.65-7.79,8.82-13.44,7.06l-33.9-10.55Z"/>
        <rect class="cls-34" x="749.58" y="236.86" width="3.3" height="24.37" transform="translate(289.55 891.87) rotate(-72.66)"/>
        <rect class="cls-9" x="719.01" y="194.81" width="177.35" height="15.22" transform="translate(96.68 -230.94) rotate(17.29)"/>
        <rect class="cls-9" x="978.76" y="243.39" width="35.7" height="35.7" rx="5.84" ry="5.84" transform="translate(122.7 -284.44) rotate(17.29)"/>
      </g>
      <g>
        <g>
          <g>
            <circle class="cls-26" cx="465.62" cy="508.25" r="53.87" transform="translate(-172.35 769.24) rotate(-69.76)"/>
            <g class="cls-27">
              <path class="cls-9" d="M474.2,455.07c-29.37-4.74-57.03,15.23-61.77,44.61,0,0,37.1,7.7,48.52-5.9,11.42-13.6,13.24-38.71,13.24-38.71Z"/>
            </g>
            <circle class="cls-7" cx="464.91" cy="507.28" r="40.95" transform="translate(-110.88 884.03) rotate(-80.69)"/>
            <circle class="cls-14" cx="464.91" cy="507.28" r="40.95" transform="translate(-110.88 884.03) rotate(-80.69)"/>
            <path class="cls-7" d="M506.22,515.67c-3.55,22.03-24.29,37.01-46.32,33.45-22.03-3.55-37.01-24.29-33.45-46.32,3.55-22.03,24.29-37.01,46.32-33.45,22.03,3.55,37.01,24.29,33.45,46.32Z"/>
            <path class="cls-21" d="M506.22,515.67c-3.55,22.03-24.29,37.01-46.32,33.45-22.03-3.55-37.01-24.29-33.45-46.32,3.55-22.03,24.29-37.01,46.32-33.45,22.03,3.55,37.01,24.29,33.45,46.32Z"/>
          </g>
          <g>
            <path class="cls-7" d="M468.47,506.03l1.65-10.21s.03,0,.05,0c1.74.49,3.5,1.26,5.2,2.29,1.39,1.03,2.28,2.01,2.28,2.01l.19-.29,2.17-3.42.5-.79-1.51-2.2-.94.25c-2.05-1.48-4.45-2.76-7.05-3.33l.91-5.61-1.52-1.69-.23,1.41-2.4-.39-.92,5.71c-8.01-.51-12.48,3.38-13.31,8.54-1.13,7.03,4.59,9.82,9.98,12.09l-1.63,10.11c-3.79-.97-7.34-3.05-9.49-5.47l-3.1,4.74c2.26,2.7,6.8,5.09,11.71,6.2l-.68,4.24-1.98-.28,1.76,1.66,4.15.67.91-5.66c8.07.47,12.58-3.37,13.41-8.52,1.13-7.03-4.7-9.78-10.09-12.05ZM464.5,504.3c-2.79-1.33-4.79-2.8-4.4-5.22.36-2.22,2.17-3.8,5.85-3.78l-1.45,9ZM470.12,495.82h0s0,0,0,0c0,0,0,0,0,0ZM466.04,521.1l1.44-8.95c2.9,1.35,4.93,2.87,4.53,5.35-.35,2.17-2.2,3.64-5.98,3.6Z"/>
            <path class="cls-14" d="M468.47,506.03l1.65-10.21s.03,0,.05,0c1.74.49,3.5,1.26,5.2,2.29,1.39,1.03,2.28,2.01,2.28,2.01l.19-.29,2.17-3.42.5-.79-1.51-2.2-.94.25c-2.05-1.48-4.45-2.76-7.05-3.33l.91-5.61-1.52-1.69-.23,1.41-2.4-.39-.92,5.71c-8.01-.51-12.48,3.38-13.31,8.54-1.13,7.03,4.59,9.82,9.98,12.09l-1.63,10.11c-3.79-.97-7.34-3.05-9.49-5.47l-3.1,4.74c2.26,2.7,6.8,5.09,11.71,6.2l-.68,4.24-1.98-.28,1.76,1.66,4.15.67.91-5.66c8.07.47,12.58-3.37,13.41-8.52,1.13-7.03-4.7-9.78-10.09-12.05ZM464.5,504.3c-2.79-1.33-4.79-2.8-4.4-5.22.36-2.22,2.17-3.8,5.85-3.78l-1.45,9ZM470.12,495.82h0s0,0,0,0c0,0,0,0,0,0ZM466.04,521.1l1.44-8.95c2.9,1.35,4.93,2.87,4.53,5.35-.35,2.17-2.2,3.64-5.98,3.6Z"/>
            <path class="cls-31" d="M463.66,524.95l-.91,5.67-4.15-.67.91-5.61c-4.91-1.1-9.45-3.5-11.71-6.2l3.1-4.74c2.15,2.42,5.71,4.5,9.49,5.47l1.63-10.11c-5.39-2.27-11.12-5.06-9.98-12.09.83-5.16,5.3-9.06,13.31-8.54l.92-5.71,4.15.67-.91,5.61c3.71.81,7.32,2.53,9.77,4.74l-2.9,4.77c-2.43-2-5.12-3.32-7.75-4.05l-1.65,10.22c5.39,2.27,11.23,5.03,10.09,12.06-.83,5.16-5.34,9-13.41,8.52ZM463.01,502.63l1.45-9c-3.68-.02-5.49,1.55-5.85,3.78-.39,2.43,1.6,3.89,4.4,5.22ZM470.53,515.83c.4-2.48-1.64-4-4.53-5.35l-1.44,8.95c3.78.04,5.63-1.43,5.98-3.6Z"/>
          </g>
        </g>
        <path class="cls-9" d="M416.3,525.9s-.08-.15-.18-.45c-.12-.34-.26-.78-.45-1.32-.2-.57-.42-1.28-.62-2.12-.21-.83-.49-1.78-.67-2.85-.1-.53-.21-1.09-.32-1.67-.11-.58-.17-1.19-.26-1.83-.2-1.26-.28-2.62-.38-4.05-.13-2.86-.07-6.02.31-9.31.41-3.29,1.11-6.37,1.92-9.12.45-1.36.85-2.67,1.34-3.84.24-.59.44-1.17.69-1.71.25-.54.48-1.05.71-1.55.43-.99.93-1.84,1.33-2.6.39-.77.78-1.4,1.11-1.91.31-.48.55-.87.75-1.18.17-.27.27-.4.28-.39.01,0-.06.16-.22.44-.18.31-.4.72-.68,1.21-.31.52-.67,1.16-1.04,1.93-.38.77-.86,1.62-1.27,2.62-.22.49-.45,1.01-.68,1.55-.23.54-.43,1.12-.66,1.71-.48,1.17-.86,2.47-1.3,3.83-.78,2.74-1.47,5.8-1.88,9.06-.38,3.26-.45,6.4-.34,9.24.1,1.42.16,2.77.35,4.03.08.63.14,1.24.23,1.82.1.58.2,1.13.3,1.67.16,1.07.42,2.01.61,2.84.18.84.38,1.55.55,2.13.15.55.28.99.37,1.34.08.31.12.47.1.48Z"/>
        <path class="cls-9" d="M454.81,501.45s-.52-.41-.99-1.36c-.46-.93-.84-2.41-.52-4.01.32-1.6,1.23-2.83,2.01-3.51.79-.7,1.41-.92,1.43-.88.04.06-.53.37-1.23,1.08-.7.7-1.52,1.89-1.81,3.38-.29,1.49,0,2.9.39,3.82.38.93.78,1.43.73,1.47Z"/>
        <path class="cls-9" d="M466.34,487.42c-.11-.02-.08-.78.07-1.69.15-.92.36-1.65.47-1.63.11.02.08.78-.07,1.69-.15.92-.36,1.65-.47,1.63Z"/>
        <path class="cls-9" d="M475.26,466.39s-.47-.07-1.29-.26c-.41-.1-.91-.22-1.51-.32-.59-.11-1.26-.26-2.01-.35-.75-.11-1.56-.23-2.45-.29-.88-.1-1.83-.13-2.83-.17-1.99-.03-4.19.05-6.47.33-2.28.31-4.42.78-6.34,1.32-.95.3-1.86.56-2.69.88-.84.29-1.6.61-2.3.91-.7.28-1.31.59-1.85.85-.55.25-1,.49-1.37.69-.75.4-1.17.6-1.18.58-.01-.02.38-.28,1.11-.72.36-.22.81-.49,1.35-.76.54-.27,1.14-.61,1.84-.91.69-.32,1.45-.65,2.29-.96.83-.34,1.74-.62,2.7-.92,1.93-.56,4.09-1.06,6.4-1.36,2.31-.29,4.52-.36,6.53-.3,1,.06,1.96.09,2.85.21.89.08,1.71.21,2.46.34.75.11,1.42.28,2.01.41.59.12,1.09.26,1.5.39.81.24,1.26.39,1.25.41Z"/>
        <path class="cls-9" d="M463.96,559.73s-.35.06-.99.1c-.64.05-1.57.06-2.71.03-2.29-.06-5.46-.41-8.84-1.31-3.38-.91-6.3-2.2-8.31-3.3-1.01-.55-1.8-1.02-2.33-1.39-.53-.36-.82-.56-.8-.59.01-.02.33.14.88.45.55.32,1.36.76,2.38,1.27,2.03,1.02,4.93,2.26,8.29,3.16,3.35.9,6.48,1.29,8.75,1.42,1.14.07,2.06.1,2.69.1.64,0,.99.02.99.05Z"/>
      </g>
      <g>
        <path class="cls-16" d="M1330.69,866.97c-381.46.63-760.66,3.23-1142.12,3.86-61.83-24-126.67-52.67-188.5-76.67-.25-5.89.25-14.19,0-20.07,443.54,23.5,887.08,47,1330.62,70.5v22.38Z"/>
        <path class="cls-15" d="M1330.69,844.59c-380.5.45-761.01.9-1141.51,1.35-63.04-23.95-126.07-47.9-189.11-71.85,377.96-.06,755.92-.13,1133.88-.19,65.58,23.57,131.16,47.13,196.73,70.7Z"/>
        <g>
          <path class="cls-2" d="M1.97,774.78l1132.37-.89,196.29,70.49c.08.03.08.21,0,.21l-1141.74,1.35L1.99,774.97c-.08-.03-.1-.19-.02-.19Z"/>
          <line class="cls-2" x1="141.7" y1="828.02" x2="1281.64" y2="826.79"/>
          <line class="cls-2" x1="94.74" y1="810.19" x2="1232.31" y2="809.07"/>
          <line class="cls-2" x1="48" y1="792.44" x2="1183.21" y2="791.44"/>
          <line class="cls-2" x1="1021.69" y1="773.98" x2="1217.62" y2="844.72"/>
          <line class="cls-2" x1="908.9" y1="774.07" x2="1103.89" y2="844.86"/>
          <line class="cls-2" x1="795.97" y1="774.15" x2="990.02" y2="844.99"/>
          <line class="cls-2" x1="682.89" y1="774.24" x2="876.01" y2="845.12"/>
          <line class="cls-2" x1="569.68" y1="774.33" x2="761.85" y2="845.26"/>
          <line class="cls-2" x1="456.33" y1="774.42" x2="647.54" y2="845.39"/>
          <line class="cls-2" x1="342.83" y1="774.51" x2="533.1" y2="845.53"/>
          <line class="cls-2" x1="229.19" y1="774.6" x2="418.5" y2="845.66"/>
          <line class="cls-2" x1="115.41" y1="774.69" x2="303.77" y2="845.8"/>
        </g>
      </g>
      <ellipse class="cls-6" cx="564.74" cy="789.31" rx="300.38" ry="15.71"/>
      <g>
        <rect class="cls-29" x="293.47" y="533.89" width="291.42" height="255.42" rx="16.23" ry="16.23"/>
        <g class="cls-8">
          <path d="M293.47,701.38h106.15c4.08,0,7.39-3.31,7.39-7.39h-113.24l-.3,7.39Z"/>
        </g>
        <g>
          <path class="cls-29" d="M294.9,628.62h107.24c5.1,0,9.24,4.14,9.24,9.24v47.81c0,5.1-4.14,9.24-9.24,9.24h-107.24c-5.1,0-9.24-4.14-9.24-9.24v-47.81c0-5.1,4.14-9.24,9.24-9.24Z"/>
          <path class="cls-12" d="M402.14,694.91c-.02-.09,1.34.11,3.6-.84,1.1-.49,2.39-1.34,3.5-2.72,1.08-1.38,1.95-3.34,1.95-5.64-.04-9.36-.09-22.82-.15-39.45,0-2.08-.01-4.21-.02-6.39-.02-1.09.04-2.21-.1-3.25-.15-1.06-.49-2.1-1.02-3.05-1.05-1.91-2.87-3.45-5.03-4.13-1.09-.36-2.2-.45-3.41-.43-1.2,0-2.42,0-3.64,0-9.79.01-20.26.03-31.26.04-22.02.01-46.23.02-71.64.04-3.02,0-5.96,1.64-7.48,4.21-.79,1.26-1.21,2.73-1.27,4.21-.04,1.52-.01,3.1-.02,4.64,0,6.19,0,12.29,0,18.28,0,5.99,0,11.88-.01,17.64.02,2.86-.05,5.78.04,8.5.28,2.67,1.82,5.15,4.06,6.52,1.11.7,2.36,1.14,3.65,1.29,1.26.12,2.68.04,4,.07,2.68,0,5.33,0,7.94.01,5.22,0,10.28.02,15.18.02,9.79.02,18.91.04,27.24.06,16.62.06,30.09.12,39.44.15,4.62.04,8.23.07,10.72.09,1.19.02,2.12.04,2.79.05.63.02.95.05.95.05,0,0-.32.03-.95.05-.67.01-1.59.03-2.79.05-2.49.02-6.1.05-10.72.09-9.35.04-22.82.09-39.44.15-8.33.02-17.45.04-27.24.06-4.9,0-9.96.02-15.18.02-2.61,0-5.25,0-7.94.01-1.36-.03-2.65.07-4.1-.07-1.41-.16-2.8-.65-4.02-1.42-2.47-1.5-4.17-4.23-4.49-7.18-.11-2.91-.04-5.7-.06-8.6,0-5.76,0-11.65-.01-17.64,0-5.99,0-12.09,0-18.28,0-1.56-.02-3.08.02-4.68.06-1.64.53-3.27,1.4-4.67,1.68-2.86,4.95-4.69,8.31-4.68,25.41.01,49.61.03,71.64.04,11.01.02,21.47.03,31.26.04,1.22,0,2.44,0,3.64,0,1.19-.02,2.49.08,3.65.48,2.35.76,4.32,2.43,5.45,4.51.57,1.04.94,2.17,1.09,3.31.15,1.17.08,2.26.1,3.35,0,2.18-.01,4.31-.02,6.39-.07,16.62-.12,30.09-.16,39.45-.03,2.39-.96,4.41-2.1,5.81-1.16,1.41-2.51,2.25-3.64,2.72-1.15.48-2.1.58-2.72.66-.63.02-.95,0-.95,0Z"/>
        </g>
        <g class="cls-8">
          <circle cx="380.39" cy="668.94" r="18.61"/>
        </g>
        <g>
          <circle class="cls-23" cx="380.39" cy="662.47" r="18.61" transform="translate(-357.02 463.01) rotate(-45)"/>
          <path class="cls-12" d="M399,662.47c-.12,0-.03-1.66-.76-4.5-.73-2.78-2.6-6.87-6.79-10.02-2.08-1.54-4.69-2.85-7.69-3.37-2.99-.5-6.35-.4-9.55.83-1.61.56-3.16,1.41-4.59,2.48-1.44,1.05-2.75,2.35-3.83,3.86-2.23,2.97-3.48,6.79-3.52,10.72.04,3.93,1.29,7.75,3.52,10.72,1.08,1.51,2.39,2.81,3.83,3.86,1.43,1.07,2.98,1.92,4.59,2.48,3.2,1.22,6.56,1.33,9.55.83,3.01-.52,5.62-1.83,7.69-3.37,4.19-3.15,6.06-7.24,6.79-10.02.74-2.84.64-4.51.76-4.5,0,0,.24,1.66-.4,4.59-.63,2.87-2.45,7.13-6.74,10.47-2.13,1.63-4.83,3.03-7.96,3.61-3.11.56-6.63.48-10-.78-1.69-.58-3.33-1.46-4.83-2.58-1.52-1.1-2.9-2.46-4.04-4.04-2.36-3.12-3.69-7.14-3.72-11.28.04-4.14,1.37-8.16,3.73-11.28,1.14-1.58,2.52-2.94,4.04-4.04,1.5-1.12,3.14-2,4.83-2.58,3.37-1.26,6.89-1.34,10-.78,3.13.58,5.83,1.98,7.96,3.61,4.29,3.34,6.11,7.61,6.74,10.47.64,2.93.4,4.59.4,4.59Z"/>
        </g>
      </g>
      <g>
        <g>
          <path class="cls-11" d="M855.39,788.82l-251.04-1.16c-30.19-.14-54.56-24.72-54.43-54.91l2.66-629.35c.13-30.21,24.73-54.59,54.94-54.45l251.04,1.16c30.19.14,54.56,24.72,54.43,54.91l-2.66,629.35c-.13,30.21-24.73,54.59-54.94,54.45Z"/>
          <path class="cls-5" d="M858.2,71.82l-48.67-.22-142.15-.66-17.12-.08-42.6-.2c-21.16-.1-38.38,16.98-38.47,38.14l-2.6,614.29c-.09,21.15,16.97,38.36,38.12,38.46l250.53,1.16c21.15.1,38.38-16.98,38.47-38.13l2.6-614.29c.09-21.14-16.98-38.36-38.12-38.46Z"/>
          <path class="cls-11" d="M647.72,68.41h173.8v7.54c0,9.35-7.59,16.93-16.93,16.93h-139.93c-9.35,0-16.93-7.59-16.93-16.93v-7.54h0Z"/>
          <circle class="cls-9" cx="678.65" cy="76.95" r="8.54"/>
          <rect class="cls-9" x="698.54" y="72.4" width="94.27" height="7.63" rx="2.5" ry="2.5"/>
        </g>
        <g>
          <path class="cls-12" d="M860.06,127.65c0,1.73-1.41,3.13-3.15,3.12-1.73,0-3.13-1.41-3.12-3.15,0-1.73,1.42-3.13,3.15-3.12,1.73,0,3.13,1.41,3.12,3.15Z"/>
          <path class="cls-12" d="M860.02,138.93c0,1.73-1.41,3.13-3.15,3.12-1.73,0-3.13-1.42-3.12-3.15,0-1.73,1.42-3.13,3.15-3.12,1.73,0,3.13,1.42,3.12,3.15Z"/>
          <path class="cls-12" d="M859.98,150.2c0,1.73-1.41,3.13-3.15,3.12-1.73,0-3.13-1.42-3.12-3.15,0-1.73,1.41-3.13,3.15-3.12,1.73,0,3.13,1.41,3.12,3.15Z"/>
        </g>
        <g>
          <rect class="cls-23" x="612.01" y="234.7" width="267.05" height="169.42" rx="7.97" ry="7.97"/>
          <rect class="cls-34" x="604.67" y="223.7" width="267.05" height="169.42" rx="7.97" ry="7.97"/>
          <g>
            <rect class="cls-28" x="596.2" y="214.56" width="267.05" height="169.42" rx="7.97" ry="7.97"/>
            <g>
              <path class="cls-9" d="M640.17,253.26c0,2.17-1.72,3.42-5.01,3.42h-6.48v-12.54h6.13c3.13,0,4.75,1.31,4.75,3.26,0,1.25-.64,2.22-1.66,2.76,1.4.45,2.29,1.52,2.29,3.1ZM631.56,246.33v2.95h2.88c1.41,0,2.19-.5,2.19-1.49s-.77-1.47-2.19-1.47h-2.88ZM637.25,252.95c0-1.06-.8-1.56-2.31-1.56h-3.38v3.1h3.38c1.51,0,2.31-.47,2.31-1.54Z"/>
              <path class="cls-9" d="M650.62,253.99h-5.82l-1.11,2.69h-2.97l5.59-12.54h2.87l5.61,12.54h-3.05l-1.11-2.69ZM649.71,251.79l-1.99-4.8-1.99,4.8h3.98Z"/>
              <path class="cls-9" d="M667.57,244.14v12.54h-2.38l-6.25-7.61v7.61h-2.87v-12.54h2.4l6.23,7.61v-7.61h2.87Z"/>
              <path class="cls-9" d="M675.1,251.75l-1.68,1.76v3.17h-2.88v-12.54h2.88v5.86l5.55-5.86h3.22l-5.19,5.59,5.5,6.95h-3.39l-4.01-4.93Z"/>
            </g>
            <g>
              <path class="cls-9" d="M690.59,308.41l-2.74-3.62-2.76,3.62h-1.32l3.42-4.44-3.26-4.21h1.32l2.6,3.39,2.6-3.39h1.28l-3.26,4.21,3.45,4.44h-1.33Z"/>
              <path class="cls-9" d="M699.37,308.41l-2.74-3.62-2.76,3.62h-1.32l3.42-4.44-3.26-4.21h1.32l2.6,3.39,2.6-3.39h1.28l-3.26,4.21,3.45,4.44h-1.33Z"/>
              <path class="cls-9" d="M708.14,308.41l-2.74-3.62-2.76,3.62h-1.32l3.42-4.44-3.26-4.21h1.32l2.6,3.39,2.6-3.39h1.28l-3.26,4.21,3.45,4.44h-1.33Z"/>
              <path class="cls-9" d="M716.92,308.41l-2.74-3.62-2.76,3.62h-1.32l3.42-4.44-3.26-4.21h1.32l2.6,3.39,2.6-3.39h1.28l-3.26,4.21,3.45,4.44h-1.33Z"/>
              <path class="cls-9" d="M747.23,308.41l-2.74-3.62-2.76,3.62h-1.32l3.42-4.44-3.26-4.21h1.32l2.6,3.39,2.6-3.39h1.28l-3.26,4.21,3.45,4.44h-1.33Z"/>
              <path class="cls-9" d="M756.01,308.41l-2.74-3.62-2.76,3.62h-1.32l3.42-4.44-3.26-4.21h1.32l2.6,3.39,2.6-3.39h1.28l-3.26,4.21,3.45,4.44h-1.33Z"/>
              <path class="cls-9" d="M764.78,308.41l-2.74-3.62-2.76,3.62h-1.32l3.42-4.44-3.26-4.21h1.32l2.6,3.39,2.6-3.39h1.28l-3.26,4.21,3.45,4.44h-1.33Z"/>
              <path class="cls-9" d="M773.56,308.41l-2.74-3.62-2.76,3.62h-1.32l3.42-4.44-3.26-4.21h1.32l2.6,3.39,2.6-3.39h1.28l-3.26,4.21,3.45,4.44h-1.33Z"/>
              <text class="cls-10" transform="translate(635.54 308.48)"><tspan x="0" y="0">2541</tspan></text>
              <text class="cls-10" transform="translate(789 308.48)"><tspan x="0" y="0">1310</tspan></text>
            </g>
            <g>
              <path class="cls-9" d="M621.93,332.3c0-1.66,1.27-2.84,2.98-2.84.95,0,1.74.35,2.26.97l-.82.75c-.37-.42-.83-.64-1.38-.64-1.03,0-1.76.72-1.76,1.76s.73,1.76,1.76,1.76c.55,0,1.01-.22,1.38-.65l.82.75c-.52.64-1.31.98-2.27.98-1.7,0-2.97-1.18-2.97-2.84Z"/>
              <path class="cls-9" d="M631.54,333.86h-2.55l-.49,1.18h-1.3l2.45-5.49h1.26l2.45,5.49h-1.33l-.49-1.18ZM631.14,332.9l-.87-2.1-.87,2.1h1.74Z"/>
              <path class="cls-9" d="M637.44,335.04l-1.06-1.53h-1.17v1.53h-1.27v-5.49h2.38c1.47,0,2.38.76,2.38,1.99,0,.82-.42,1.43-1.13,1.73l1.23,1.77h-1.37ZM636.25,330.59h-1.04v1.91h1.04c.78,0,1.17-.36,1.17-.96s-.39-.96-1.17-.96Z"/>
              <path class="cls-9" d="M639.29,334.5l.43-.96c.46.34,1.15.57,1.81.57.75,0,1.06-.25,1.06-.59,0-1.03-3.19-.32-3.19-2.36,0-.93.75-1.71,2.31-1.71.69,0,1.4.17,1.91.49l-.39.97c-.51-.29-1.04-.43-1.52-.43-.75,0-1.04.28-1.04.63,0,1.01,3.19.31,3.19,2.33,0,.92-.76,1.7-2.33,1.7-.87,0-1.75-.26-2.24-.64Z"/>
              <path class="cls-9" d="M651.99,329.55v5.49h-1.27v-2.25h-2.5v2.25h-1.27v-5.49h1.27v2.16h2.5v-2.16h1.27Z"/>
              <path class="cls-9" d="M652.95,332.3c0-1.63,1.27-2.84,3-2.84s3,1.2,3,2.84-1.28,2.84-3,2.84-3-1.21-3-2.84ZM657.68,332.3c0-1.04-.74-1.76-1.72-1.76s-1.72.71-1.72,1.76.74,1.76,1.72,1.76,1.72-.71,1.72-1.76Z"/>
              <path class="cls-9" d="M659.93,329.55h1.27v4.46h2.75v1.04h-4.02v-5.49Z"/>
              <path class="cls-9" d="M664.68,329.55h2.49c1.8,0,3.03,1.08,3.03,2.75s-1.23,2.75-3.03,2.75h-2.49v-5.49ZM667.11,334c1.09,0,1.81-.65,1.81-1.7s-.71-1.7-1.81-1.7h-1.16v3.4h1.16Z"/>
              <path class="cls-9" d="M675.42,334.02v1.02h-4.25v-5.49h4.15v1.02h-2.89v1.19h2.55v.99h-2.55v1.27h2.99Z"/>
              <path class="cls-9" d="M679.94,335.04l-1.06-1.53h-1.17v1.53h-1.27v-5.49h2.37c1.47,0,2.38.76,2.38,1.99,0,.82-.42,1.43-1.13,1.73l1.23,1.77h-1.37ZM678.74,330.59h-1.04v1.91h1.04c.78,0,1.17-.36,1.17-.96s-.39-.96-1.17-.96Z"/>
            </g>
            <rect class="cls-26" x="620.67" y="348.69" width="81.46" height="7.04" rx="2.94" ry="2.94"/>
            <rect class="cls-26" x="791.5" y="348.69" width="45.25" height="7.04" rx="2.94" ry="2.94"/>
          </g>
          <g class="cls-22">
            <path class="cls-9" d="M854.4,214.56h-249.36c-4.89,0-8.85,3.96-8.85,8.85v44.74c15.76,10.98,37.39,12.92,56.59,8.9,22.63-4.73,43.12-16.3,64.21-25.79,21.08-9.48,44.24-17.1,67.03-13.19,21.5,3.69,39.83,17.08,59.27,26.99,6.28,3.2,13.04,6.02,19.95,8.04v-49.69c0-4.89-3.96-8.85-8.85-8.85Z"/>
          </g>
        </g>
        <g>
          <g>
            <rect class="cls-28" x="601.78" y="449.99" width="69.33" height="69.33" rx="16.28" ry="16.28"/>
            <path class="cls-1" d="M656.94,475.23h-9.89c-.51,1.74-2.1,3.02-4,3.02s-3.49-1.28-4-3.02h-22.62c-1.3,0-2.36,1.05-2.36,2.36v16.21c0,1.3,1.05,2.36,2.36,2.36h22.69c.59-1.61,2.12-2.76,3.93-2.76s3.34,1.16,3.93,2.76h9.97c1.3,0,2.36-1.05,2.36-2.36v-16.21c0-1.3-1.05-2.36-2.36-2.36Z"/>
            <line class="cls-1" x1="642.52" y1="480.23" x2="642.52" y2="490.31"/>
            <rect class="cls-9" x="618.16" y="481.22" width="17.67" height="8.1"/>
            <rect class="cls-9" x="645.82" y="481.22" width="9.8" height="8.1"/>
          </g>
          <rect class="cls-34" x="694.09" y="462.17" width="140.63" height="16.74" rx="6.99" ry="6.99"/>
          <rect class="cls-34" x="694.09" y="495.07" width="71.09" height="16.74" rx="6.99" ry="6.99"/>
        </g>
        <path class="cls-34" d="M893.17,423.88c0,.27-73.18.48-163.44.48s-163.46-.22-163.46-.48,73.17-.48,163.46-.48,163.44.22,163.44.48Z"/>
        <g>
          <rect class="cls-28" x="624.86" y="547.11" width="213.19" height="71.89" rx="30.03" ry="30.03"/>
          <g>
            <path class="cls-9" d="M727.26,579.65c0,3.61-2.72,5.85-7.05,5.85h-2.77v4.15h-4.49v-15.88h7.26c4.33,0,7.05,2.25,7.05,5.87ZM722.72,579.65c0-1.47-.93-2.34-2.79-2.34h-2.5v4.65h2.5c1.86,0,2.79-.86,2.79-2.31Z"/>
            <path class="cls-9" d="M739.28,586.57h-6.71l-1.25,3.08h-4.58l7.01-15.88h4.42l7.03,15.88h-4.67l-1.25-3.08ZM737.97,583.25l-2.04-5.08-2.04,5.08h4.08Z"/>
            <path class="cls-9" d="M753.98,583.96v5.69h-4.49v-5.76l-6.06-10.11h4.74l3.77,6.31,3.76-6.31h4.35l-6.08,10.18Z"/>
          </g>
        </g>
        <circle class="cls-11" cx="606.02" cy="143.96" r="13.84" transform="translate(326.25 700.48) rotate(-76.67)"/>
        <rect class="cls-34" x="677.89" y="136.85" width="103.66" height="12.13" rx="5.07" ry="5.07"/>
        <rect class="cls-11" x="636.14" y="639.72" width="211.61" height="14.13"/>
        <g>
          <path class="cls-3" d="M646.16,646.79c1.86.62,26.64.62,26.64,49.57s-1.24,109.67,24.78,111.53c26.02,1.86,162.95,0,162.95,0v-122.85c0-20.48-16.54-37.11-37.01-37.23l-177.37-1.03Z"/>
          <path class="cls-9" d="M646.16,646.79c2.65,0,39.61.12,102.92.31,15.97.06,33.45.12,52.23.19,4.69.02,9.47.04,14.32.07,4.83.1,9.81-.26,14.79.73,4.95.94,9.8,2.9,14.09,5.82,4.28,2.93,8.01,6.8,10.81,11.33,2.81,4.52,4.68,9.71,5.35,15.12.33,2.71.34,5.46.32,8.17,0,2.73,0,5.47,0,8.22,0,11.02,0,22.28.01,33.73,0,22.91,0,46.64,0,70.94,0,2.21,0,4.42,0,6.46v.48h-.48c-47.89.58-93.43,1.01-134.82.68-5.17-.04-10.28-.13-15.32-.24-5.05-.19-9.98-.13-14.95-.81-2.46-.53-4.76-1.64-6.72-3.15-1.91-1.58-3.49-3.46-4.82-5.46-2.6-4.06-4.24-8.53-5.53-12.96-2.51-8.9-3.62-17.76-4.4-26.25-.76-8.51-1.09-16.69-1.28-24.5-.4-15.61-.09-29.74-.27-42.12-.24-12.33-2.16-23.04-5.98-30.86-1.87-3.93-4.27-7-6.63-9.35-2.43-2.3-4.92-3.71-6.99-4.66-4.23-1.73-6.76-1.75-6.7-1.9.27.04.74.11,1.76.27,1.15.22,2.88.57,5.01,1.45,2.1.93,4.63,2.33,7.1,4.63,2.4,2.36,4.85,5.44,6.76,9.39,3.91,7.87,5.89,18.63,6.18,31.01.23,12.4-.03,26.51.42,42.11.21,7.8.56,15.97,1.34,24.45.8,8.47,1.92,17.3,4.43,26.1,1.29,4.37,2.91,8.78,5.45,12.73,1.3,1.95,2.83,3.76,4.65,5.26,1.87,1.43,4.04,2.48,6.37,2.98,4.74.64,9.79.59,14.8.77,5.03.1,10.14.18,15.31.22,41.37.28,86.91-.18,134.8-.76l-.48.48v-6.46c0-24.3,0-48.02,0-70.94,0-11.46,0-22.71.01-33.73,0-2.76,0-5.5,0-8.22.02-2.74,0-5.42-.31-8.06-.66-5.28-2.48-10.35-5.21-14.77-2.73-4.42-6.36-8.21-10.54-11.08-4.19-2.86-8.92-4.78-13.76-5.71-4.84-.97-9.78-.63-14.6-.74-4.83-.03-9.58-.07-14.25-.1-18.68-.15-36.08-.28-51.97-.41-63.54-.54-100.63-.86-103.29-.88Z"/>
        </g>
        <path class="cls-18" d="M698.21,807.88s21.42,0,26.01-31.6c5.47-37.65,0-70.63,29.12-71.87,29.12-1.24,107.19,0,107.19,0v103.47h-162.33Z"/>
        <g>
          <path class="cls-3" d="M749.69,704.78s23.49-2.85,23.49,36.19.62,64.85,26.64,67.74c26.02,2.89,185.88,0,185.88,0,0,0-25.4-11.98-27.26-47.3s-9.29-56.87-34.7-57.55c-25.4-.69-174.05.92-174.05.92Z"/>
          <path class="cls-9" d="M749.69,704.78c.27-.01.69-.03,1.58-.07,1.07-.02,2.61-.05,4.62-.1,4.09-.06,10.09-.15,17.8-.27,15.49-.17,37.86-.41,65.52-.72,13.84-.1,29.01-.2,45.29-.31,8.15-.01,16.57-.02,25.25-.04,4.34.02,8.75.04,13.22.13,4.48.18,9.1.75,13.41,2.58,4.28,1.86,8.06,4.94,10.9,8.76,2.86,3.81,4.89,8.22,6.43,12.8,2.9,9.23,4.2,19.06,4.88,29.02.17,2.49.3,5.01.57,7.49l.37,3.74.7,3.71.35,1.86.51,1.83,1.04,3.65c.92,2.36,1.73,4.79,2.94,7.05,4.47,9.14,11.66,17.36,20.83,22.38l1.62.89-1.82.03c-1.4.02-2.91.05-4.43.08-42.9.7-83.77,1.17-120.95,1.16-18.59-.04-36.25-.09-52.79-.79-4.12-.28-8.22-.37-12.17-1.31-3.91-.95-7.62-2.7-10.54-5.31-2.93-2.58-5.06-5.87-6.53-9.27-1.5-3.4-2.45-6.92-3.13-10.38-1.34-6.94-1.75-13.65-2.01-19.98-.24-6.33-.25-12.31-.26-17.89.02-2.79,0-5.49-.12-8.07-.07-1.29-.05-2.56-.18-3.8-.15-1.23-.3-2.44-.45-3.62-.07-.59-.14-1.18-.22-1.75-.13-.57-.25-1.13-.38-1.68-.25-1.11-.49-2.2-.73-3.26-.35-1.03-.69-2.03-1.03-3-.17-.49-.34-.97-.51-1.44-.22-.45-.44-.89-.66-1.33-1.59-3.58-3.86-6.32-6.15-8.24-2.28-1.96-4.64-3.07-6.61-3.65-1.96-.62-3.54-.8-4.6-.85-.53-.04-.93-.03-1.2-.03-.19,0-.3,0-.4,0-.02.01.13-.04.4-.05.27-.02.67-.04,1.2-.02,1.06.02,2.66.16,4.65.76,2,.56,4.4,1.65,6.74,3.61,2.34,1.93,4.67,4.69,6.3,8.3,3.68,7.11,4.52,17.01,4.47,28.12.03,5.58.07,11.55.33,17.87.28,6.31.71,13,2.06,19.87.68,3.43,1.63,6.9,3.11,10.23,1.45,3.33,3.53,6.51,6.37,9,2.82,2.51,6.41,4.19,10.23,5.12,3.83.91,7.92.99,12.02,1.26,16.5.67,34.17.69,52.75.7,37.17-.04,78.04-.54,120.93-1.24,1.52-.03,3.03-.05,4.43-.08l-.2.92c-9.47-5.19-16.71-13.51-21.28-22.83-1.23-2.3-2.05-4.76-2.99-7.17l-1.06-3.71-.51-1.85-.35-1.89-.7-3.76-.37-3.79c-.28-2.53-.4-5.02-.57-7.51-.68-9.93-1.97-19.69-4.82-28.8-1.51-4.51-3.51-8.83-6.28-12.54-2.75-3.71-6.39-6.68-10.53-8.49-4.18-1.78-8.66-2.34-13.08-2.52-4.46-.1-8.86-.12-13.2-.15-8.68,0-17.1,0-25.24-.01-16.29.07-31.45.14-45.29.19-27.66.17-50.04.31-65.52.41-7.71.04-13.7.07-17.8.09-2.02,0-3.56,0-4.63,0-.89-.02-1.31-.03-1.57-.03Z"/>
        </g>
        <path class="cls-9" d="M755.88,704.72c0,.12-1.88-.08-5.19.39-3.26.46-8.15,1.89-12.45,6.07-4.37,4.06-7.62,10.7-9.25,18.41-1.68,7.74-1.77,16.52-2.18,25.69-.38,9.17-.99,17.99-2.99,25.78-.96,3.9-2.38,7.46-3.83,10.69-1.48,3.24-3.14,6.15-5.06,8.52-1.92,2.38-4.13,4.13-6.26,5.28-2.15,1.14-4.18,1.68-5.84,2.02-1.68.27-2.99.38-3.88.36-.89,0-1.35,0-1.35-.04s.46-.09,1.35-.16c.88-.03,2.17-.21,3.81-.53,1.62-.39,3.59-.97,5.66-2.13,2.04-1.17,4.16-2.9,5.99-5.24,1.84-2.34,3.44-5.21,4.86-8.42,1.41-3.23,2.78-6.74,3.7-10.58,1.93-7.68,2.51-16.44,2.89-25.6.4-9.15.51-17.98,2.27-25.84,1.7-7.81,5.09-14.59,9.65-18.71,4.49-4.24,9.56-5.59,12.87-5.94.84-.1,1.59-.16,2.25-.16.65-.02,1.2-.02,1.65.01.89.05,1.35.1,1.35.13Z"/>
        <path class="cls-34" d="M833.85,675.15c0,.27-30.02.48-67.05.48s-67.06-.22-67.06-.48,30.02-.48,67.06-.48,67.05.22,67.05.48Z"/>
        <path class="cls-34" d="M836.62,695.1c0,.27-29.03.48-64.83.48s-64.84-.22-64.84-.48,29.02-.48,64.84-.48,64.83.22,64.83.48Z"/>
        <path class="cls-34" d="M928.06,733.89c0,.27-30.02.48-67.05.48s-67.06-.22-67.06-.48,30.02-.48,67.06-.48,67.05.22,67.05.48Z"/>
        <path class="cls-34" d="M929.72,757.16c0,.27-27.54.48-61.51.48s-61.51-.22-61.51-.48,27.54-.48,61.51-.48,61.51.22,61.51.48Z"/>
      </g>
      <g>
        <g>
          <path class="cls-19" d="M629.66,131.34l-18.3-2.21c-11.59,7.74-25.63,12.14-40.82,11.76-35.81-.9-65.62-29.45-68.13-65.18-2.9-41.29,30.26-76.23,71.95-75.16,35.39.91,64.95,28.79,67.99,64.06,1.51,17.51-3.5,33.91-12.89,47l.03-.03.17,19.75Z"/>
          <path class="cls-11" d="M629.66,131.34s-.03-.47-.06-1.33c-.02-.91-.05-2.18-.09-3.82-.06-3.38-.16-8.27-.28-14.6l.42.2s-.02.02-.03.03c-.11.09-.27.07-.36-.04-.07-.09-.07-.22,0-.32,4.98-7.08,10.51-17.57,12.31-31.28.92-6.81.81-14.33-.59-22.16-1.46-7.8-4.43-15.86-9.07-23.45-4.67-7.56-11.06-14.6-18.95-20.27-7.87-5.65-17.24-10.05-27.51-11.89-10.22-1.92-21.22-1.54-31.82,1.37-10.63,2.84-20.68,8.62-28.98,16.5-4.31,3.89-7.78,8.52-10.97,13.21-1.41,2.46-2.87,4.89-4.08,7.42l-1.66,3.86-.82,1.93-.62,1.99c-3.52,10.55-4.31,21.64-2.88,32.04,1.38,10.45,5.46,20.07,10.83,28.23,5.41,8.17,12.27,14.87,19.71,19.85,7.47,4.96,15.47,8.22,23.25,9.98,1.97.35,3.9.68,5.8,1.02,1.91.29,3.81.33,5.66.5,3.72.29,7.32.12,10.74-.2,13.78-1.36,24.44-6.52,31.59-11.21.05-.03.11-.05.17-.04,5.82.77,10.35,1.36,13.49,1.78,1.52.21,2.69.37,3.55.49.8.11,1.24.2,1.24.2,0,0-.38-.02-1.16-.09-.84-.09-2-.21-3.5-.36-3.18-.35-7.77-.85-13.68-1.5l.17-.04c-7.14,4.82-17.85,10.13-31.79,11.6-3.46.34-7.11.54-10.87.27-1.88-.16-3.81-.2-5.74-.48-1.93-.33-3.89-.66-5.88-1-7.9-1.74-16.03-5.02-23.63-10.02-7.57-5.02-14.56-11.8-20.08-20.09-5.48-8.28-9.65-18.06-11.08-28.69-1.47-10.59-.69-21.87,2.89-32.61l.63-2.03.83-1.96c.56-1.31,1.12-2.62,1.69-3.93,1.23-2.58,2.71-5.06,4.15-7.56,3.24-4.78,6.78-9.49,11.16-13.45,8.45-8.02,18.69-13.9,29.52-16.79,10.79-2.95,21.98-3.33,32.39-1.36,10.45,1.89,19.96,6.39,27.95,12.15,8,5.78,14.47,12.96,19.18,20.65,4.68,7.72,7.65,15.91,9.1,23.83,1.38,7.94,1.45,15.55.47,22.44-1.92,13.85-7.6,24.41-12.71,31.47l-.37-.35s.03-.02.03-.02c.11-.09.27-.07.36.03.04.05.06.11.06.16,0,6.39-.02,11.34-.02,14.76-.01,1.61-.02,2.86-.03,3.76,0,.84-.04,1.24-.04,1.24Z"/>
        </g>
        <polygon class="cls-28" points="541.43 75.02 550.22 65.61 568.31 80.62 601.64 46.28 610.4 55.1 567.61 98.22 541.43 75.02"/>
      </g>
      <g>
        <g class="cls-13">
          <rect class="cls-20" x="939.79" y="528.77" width="115.5" height="115.5" rx="26.74" ry="26.74"/>
        </g>
        <rect class="cls-24" x="933.26" y="522.24" width="115.5" height="115.5" rx="26.74" ry="26.74"/>
        <path class="cls-9" d="M984.67,546.03c2.34,0,4.69,0,7.03,0,.19.03.39.07.58.09,3.58.33,7.18.56,10.75,1,3.11.38,6.17,1.08,9.07,2.36,1.92.84,3.26,2.16,3.91,4.22.86,2.74,1.22,5.56,1.55,8.38.05.39.16.57.57.66,1.59.36,2.61,1.58,2.64,3.21.04,2.28.03,4.55,0,6.83-.02,1.33-.69,2.33-1.86,2.91-.45.22-.52.47-.52.91.04,5.57.08,11.14.08,16.71,0,3.65-.07,7.29-.11,10.94-.01.96-.37,1.52-1.3,1.74-.65.16-1.35.15-2.03.2-.34.02-.68,0-1.07,0,0,1.43,0,2.78,0,4.12,0,1.03-.3,1.93-1.13,2.57-1.56,1.2-3.28,1.36-5.06.6-1.65-.7-2.19-2.03-2.1-3.75.06-1.16.01-2.33.01-3.53h-30.68c0,1.42.06,2.81-.03,4.19-.04.65-.22,1.38-.57,1.91-.95,1.45-3.18,1.99-5.09,1.38-1.79-.58-2.55-1.69-2.55-3.76,0-1.23,0-2.46,0-3.72-.3-.01-.52-.04-.73-.03-.75,0-1.5.02-2.25.05-1.34.04-2.31-1-2.43-2.69-.15-2.07-.34-4.14-.36-6.22-.07-6.94-.08-13.88-.09-20.81,0-.44-.13-.65-.51-.87-1.07-.61-1.69-1.56-1.71-2.8-.03-2.3-.04-4.6,0-6.89.03-1.52,1.02-2.77,2.48-3.15.43-.11.53-.29.6-.7.47-2.87.92-5.75,1.49-8.6.36-1.82,1.43-3.21,3.15-4.02.8-.38,1.6-.74,2.44-1.02,3.99-1.34,8.14-1.77,12.3-2.12,1.18-.1,2.37-.18,3.56-.27ZM968.57,559.62v21.9h41.77v-21.9h-41.77ZM1004.95,552.33h-30.95v4.62h30.92c.01-.2.03-.35.03-.51,0-1.35,0-2.69,0-4.12ZM974.4,592.04c-2.41,0-4.38,1.94-4.41,4.36-.03,2.38,1.95,4.39,4.36,4.42,2.43.02,4.46-1.98,4.45-4.4,0-2.41-1.98-4.38-4.39-4.38ZM1004.76,600.81c2.41,0,4.38-1.94,4.42-4.36.04-2.38-1.95-4.39-4.36-4.42-2.44-.03-4.45,1.96-4.45,4.39,0,2.4,1.98,4.38,4.38,4.39Z"/>
      </g>
    </g>
  </g>
</svg>