<?xml version="1.0" encoding="UTF-8"?>
<svg xmlns="http://www.w3.org/2000/svg" xmlns:xlink="http://www.w3.org/1999/xlink" viewBox="0 0 1331.2 814.27">
  <defs>
    <style>
      .cls-1 {
        fill: url(#Degradado_sin_nombre_152-3);
      }

      .cls-2 {
        fill: url(#Degradado_sin_nombre_152);
        filter: url(#drop-shadow-1);
      }

      .cls-3, .cls-4 {
        fill: #bfe0e2;
      }

      .cls-3, .cls-5, .cls-6 {
        mix-blend-mode: multiply;
      }

      .cls-7 {
        fill: url(#linear-gradient-2);
      }

      .cls-8 {
        fill: url(#Degradado_sin_nombre_152-6);
      }

      .cls-9 {
        fill: #777;
      }

      .cls-10 {
        filter: url(#drop-shadow-6);
      }

      .cls-11 {
        stroke-width: 2.21px;
      }

      .cls-11, .cls-12, .cls-13, .cls-5 {
        fill: none;
        stroke-miterlimit: 10;
      }

      .cls-11, .cls-14 {
        stroke: #fff;
      }

      .cls-12 {
        stroke: #c4c4c4;
        stroke-width: 1.04px;
      }

      .cls-15 {
        opacity: .3;
      }

      .cls-16 {
        filter: url(#drop-shadow-9);
      }

      .cls-16, .cls-17 {
        fill: #d2f7ff;
      }

      .cls-18 {
        fill: url(#Degradado_sin_nombre_152-4);
      }

      .cls-19 {
        filter: url(#drop-shadow-5);
      }

      .cls-20, .cls-21, .cls-22, .cls-23, .cls-24, .cls-25, .cls-26 {
        fill: #fff;
      }

      .cls-27 {
        fill: url(#Degradado_sin_nombre_152-7);
      }

      .cls-21 {
        opacity: .5;
      }

      .cls-14 {
        fill: #e64385;
        stroke-linecap: round;
        stroke-linejoin: round;
        stroke-width: 1.36px;
      }

      .cls-28 {
        fill: #606060;
      }

      .cls-29 {
        filter: url(#drop-shadow-8);
      }

      .cls-29, .cls-30 {
        fill: #4badcc;
      }

      .cls-22 {
        filter: url(#drop-shadow-3);
      }

      .cls-23 {
        filter: url(#drop-shadow-4);
      }

      .cls-31 {
        fill: #3ea09f;
      }

      .cls-32 {
        filter: url(#drop-shadow-7);
      }

      .cls-33 {
        fill: #1a2e35;
      }

      .cls-34 {
        fill: #a9efff;
      }

      .cls-35 {
        fill: url(#linear-gradient-3);
      }

      .cls-36, .cls-37 {
        opacity: .36;
      }

      .cls-38 {
        fill: #808285;
      }

      .cls-39 {
        fill: #f2f2f2;
      }

      .cls-40 {
        fill: url(#Degradado_sin_nombre_152-2);
        filter: url(#drop-shadow-2);
      }

      .cls-41 {
        fill: #f1f2f2;
      }

      .cls-42 {
        fill: #a0a0a0;
      }

      .cls-43 {
        isolation: isolate;
      }

      .cls-44 {
        fill: #cccdce;
      }

      .cls-45 {
        fill: #8b8c8e;
      }

      .cls-24 {
        font-family: Gotham-Black, 'Gotham Black';
        font-size: 33.82px;
        font-weight: 800;
      }

      .cls-46 {
        fill: #c4c4c4;
      }

      .cls-47, .cls-37 {
        fill: #35e6bb;
      }

      .cls-48 {
        fill: #007cff;
      }

      .cls-49 {
        fill: #a7a9ac;
      }

      .cls-50 {
        opacity: .2;
      }

      .cls-25, .cls-51, .cls-26 {
        mix-blend-mode: overlay;
      }

      .cls-52 {
        fill: #436b47;
      }

      .cls-13 {
        stroke: #292929;
        stroke-width: 1.73px;
      }

      .cls-53 {
        fill: #515151;
      }

      .cls-54 {
        fill: #ffb279;
      }

      .cls-55 {
        fill: #347ee8;
      }

      .cls-26 {
        filter: url(#drop-shadow-10);
      }

      .cls-56 {
        fill: url(#Degradado_sin_nombre_152-5);
      }

      .cls-57 {
        letter-spacing: -.02em;
      }

      .cls-5 {
        stroke: #e6e7e8;
        stroke-width: .37px;
      }

      .cls-58 {
        opacity: .1;
      }

      .cls-59 {
        fill: #292929;
      }

      .cls-60 {
        fill: #35c9e2;
      }

      .cls-61 {
        filter: url(#drop-shadow-11);
        opacity: .98;
      }

      .cls-62 {
        fill: #a5a29f;
      }

      .cls-63 {
        fill: #0e3c66;
      }

      .cls-6, .cls-64 {
        fill: #e6e7e8;
      }

      .cls-65 {
        fill: url(#linear-gradient);
      }

      .cls-66 {
        fill: #94c9c9;
      }

      .cls-67 {
        fill: #fbb040;
      }

      .cls-68 {
        clip-path: url(#clippath);
      }

      .cls-69 {
        fill: #f0c821;
      }

      .cls-70 {
        fill: #d1d3d4;
      }
    </style>
    <linearGradient id="Degradado_sin_nombre_152" data-name="Degradado sin nombre 152" x1="594.35" y1="393.02" x2="374.75" y2="173.42" gradientUnits="userSpaceOnUse">
      <stop offset="0" stop-color="#35c9e2" stop-opacity=".5"/>
      <stop offset="1" stop-color="#35e6bb"/>
    </linearGradient>
    <filter id="drop-shadow-1" x="316.29" y="114.2" width="293" height="294" filterUnits="userSpaceOnUse">
      <feOffset dx="14.02" dy="14.02"/>
      <feGaussianBlur result="blur" stdDeviation="10.02"/>
      <feFlood flood-color="#070236" flood-opacity=".45"/>
      <feComposite in2="blur" operator="in"/>
      <feComposite in="SourceGraphic"/>
    </filter>
    <linearGradient id="Degradado_sin_nombre_152-2" data-name="Degradado sin nombre 152" x1="661.38" y1="182.4" x2="790.05" y2="311.07" xlink:href="#Degradado_sin_nombre_152"/>
    <filter id="drop-shadow-2" x="593.29" y="114.2" width="294" height="294" filterUnits="userSpaceOnUse">
      <feOffset dx="14.02" dy="14.02"/>
      <feGaussianBlur result="blur-2" stdDeviation="10.02"/>
      <feFlood flood-color="#070236" flood-opacity=".45"/>
      <feComposite in2="blur-2" operator="in"/>
      <feComposite in="SourceGraphic"/>
    </filter>
    <filter id="drop-shadow-3" x="206.34" y="369.25" width="145" height="69" filterUnits="userSpaceOnUse">
      <feOffset dx="2" dy="2"/>
      <feGaussianBlur result="blur-3" stdDeviation="2"/>
      <feFlood flood-color="#000" flood-opacity=".35"/>
      <feComposite in2="blur-3" operator="in"/>
      <feComposite in="SourceGraphic"/>
    </filter>
    <linearGradient id="linear-gradient" x1="340.89" y1="421.84" x2="310.99" y2="403.54" gradientUnits="userSpaceOnUse">
      <stop offset="0" stop-color="#0828ff"/>
      <stop offset="1" stop-color="#00b1ff"/>
    </linearGradient>
    <filter id="drop-shadow-4" x="206.34" y="443.25" width="145" height="69" filterUnits="userSpaceOnUse">
      <feOffset dx="2" dy="2"/>
      <feGaussianBlur result="blur-4" stdDeviation="2"/>
      <feFlood flood-color="#000" flood-opacity=".35"/>
      <feComposite in2="blur-4" operator="in"/>
      <feComposite in="SourceGraphic"/>
    </filter>
    <linearGradient id="linear-gradient-2" x1="-4888.73" y1="-9282.56" x2="-4918.63" y2="-9300.87" gradientTransform="translate(-4675.62 -8826.43) rotate(-180)" gradientUnits="userSpaceOnUse">
      <stop offset="0" stop-color="#525252"/>
      <stop offset="1" stop-color="#d8d8d8"/>
    </linearGradient>
    <linearGradient id="linear-gradient-3" x1="-6588.18" y1="-1610.5" x2="-6682.86" y2="-1705.18" gradientTransform="translate(2610.82 -6285.18) rotate(-90)" xlink:href="#linear-gradient"/>
    <filter id="drop-shadow-5" x="898.29" y="252.2" width="89" height="89" filterUnits="userSpaceOnUse">
      <feOffset dx="14.02" dy="14.02"/>
      <feGaussianBlur result="blur-5" stdDeviation="10.02"/>
      <feFlood flood-color="#070236" flood-opacity=".45"/>
      <feComposite in2="blur-5" operator="in"/>
      <feComposite in="SourceGraphic"/>
    </filter>
    <filter id="drop-shadow-6" x="942.29" y="348.2" width="89" height="89" filterUnits="userSpaceOnUse">
      <feOffset dx="14.02" dy="14.02"/>
      <feGaussianBlur result="blur-6" stdDeviation="10.02"/>
      <feFlood flood-color="#070236" flood-opacity=".45"/>
      <feComposite in2="blur-6" operator="in"/>
      <feComposite in="SourceGraphic"/>
    </filter>
    <filter id="drop-shadow-7" x="993.29" y="207.2" width="89" height="89" filterUnits="userSpaceOnUse">
      <feOffset dx="14.02" dy="14.02"/>
      <feGaussianBlur result="blur-7" stdDeviation="10.02"/>
      <feFlood flood-color="#070236" flood-opacity=".45"/>
      <feComposite in2="blur-7" operator="in"/>
      <feComposite in="SourceGraphic"/>
    </filter>
    <linearGradient id="Degradado_sin_nombre_152-3" data-name="Degradado sin nombre 152" x1="717.03" y1="726.86" x2="572.89" y2="582.71" xlink:href="#Degradado_sin_nombre_152"/>
    <linearGradient id="Degradado_sin_nombre_152-4" data-name="Degradado sin nombre 152" x1="913.77" y1="79.85" x2="847.3" y2="13.38" xlink:href="#Degradado_sin_nombre_152"/>
    <filter id="drop-shadow-8" x="89.46" y="136.37" width="237" height="84" filterUnits="userSpaceOnUse">
      <feOffset dx="7.06" dy="6.18"/>
      <feGaussianBlur result="blur-8" stdDeviation="5.29"/>
      <feFlood flood-color="#070236" flood-opacity=".43"/>
      <feComposite in2="blur-8" operator="in"/>
      <feComposite in="SourceGraphic"/>
    </filter>
    <linearGradient id="Degradado_sin_nombre_152-5" data-name="Degradado sin nombre 152" x1="1041.31" y1="78.65" x2="976.13" y2="13.47" xlink:href="#Degradado_sin_nombre_152"/>
    <linearGradient id="Degradado_sin_nombre_152-6" data-name="Degradado sin nombre 152" x1="177.88" y1="451.48" x2="111.41" y2="385.01" xlink:href="#Degradado_sin_nombre_152"/>
    <filter id="drop-shadow-9" x="89.46" y="218.37" width="237" height="84" filterUnits="userSpaceOnUse">
      <feOffset dx="7.06" dy="6.18"/>
      <feGaussianBlur result="blur-9" stdDeviation="5.29"/>
      <feFlood flood-color="#070236" flood-opacity=".43"/>
      <feComposite in2="blur-9" operator="in"/>
      <feComposite in="SourceGraphic"/>
    </filter>
    <filter id="drop-shadow-10" x="564.29" y="401.2" width="255" height="168" filterUnits="userSpaceOnUse">
      <feOffset dx="14.02" dy="14.02"/>
      <feGaussianBlur result="blur-10" stdDeviation="10.02"/>
      <feFlood flood-color="#070236" flood-opacity=".45"/>
      <feComposite in2="blur-10" operator="in"/>
      <feComposite in="SourceGraphic"/>
    </filter>
    <filter id="drop-shadow-11" x="603.75" y="435.66" width="148" height="73" filterUnits="userSpaceOnUse">
      <feOffset dx=".37" dy=".37"/>
      <feGaussianBlur result="blur-11" stdDeviation="1.86"/>
      <feFlood flood-color="#000" flood-opacity=".15"/>
      <feComposite in2="blur-11" operator="in"/>
      <feComposite in="SourceGraphic"/>
    </filter>
    <linearGradient id="Degradado_sin_nombre_152-7" data-name="Degradado sin nombre 152" x1="-5126.59" y1="-8708.48" x2="-5038.17" y2="-8708.48" gradientTransform="translate(5229.62 9239.49)" xlink:href="#Degradado_sin_nombre_152"/>
    <clipPath id="clippath">
      <rect class="cls-11" x="115.2" y="498.97" width="64.07" height="64.07" rx="9.18" ry="9.18"/>
    </clipPath>
  </defs>
  <g class="cls-43">
    <g id="Layer_2">
      <g id="Layer_1-2" data-name="Layer_1">
        <g>
          <g>
            <path class="cls-46" d="M1330.69,810.41c-381.46.63-760.66,3.23-1142.12,3.86-61.83-24-126.67-52.67-188.5-76.67-.25-5.89.25-14.19,0-20.07,443.54,23.5,887.08,47,1330.62,70.5v22.38Z"/>
            <path class="cls-42" d="M1330.69,788.03c-380.5.45-761.01.9-1141.51,1.35-63.04-23.95-126.07-47.9-189.11-71.85,377.96-.06,755.92-.13,1133.88-.19,65.58,23.57,131.16,47.13,196.73,70.7Z"/>
            <g>
              <path class="cls-12" d="M1.97,718.22l1132.37-.89,196.29,70.49c.08.03.08.21,0,.21l-1141.74,1.35L1.99,718.42c-.08-.03-.1-.19-.02-.19Z"/>
              <line class="cls-12" x1="141.7" y1="771.46" x2="1281.64" y2="770.23"/>
              <line class="cls-12" x1="94.74" y1="753.63" x2="1232.31" y2="752.51"/>
              <line class="cls-12" x1="48" y1="735.88" x2="1183.21" y2="734.88"/>
              <line class="cls-12" x1="1021.69" y1="717.42" x2="1217.62" y2="788.16"/>
              <line class="cls-12" x1="908.9" y1="717.51" x2="1103.89" y2="788.3"/>
              <line class="cls-12" x1="795.97" y1="717.6" x2="990.02" y2="788.43"/>
              <line class="cls-12" x1="682.89" y1="717.69" x2="876.01" y2="788.57"/>
              <line class="cls-12" x1="569.68" y1="717.77" x2="761.85" y2="788.7"/>
              <line class="cls-12" x1="456.33" y1="717.86" x2="647.54" y2="788.83"/>
              <line class="cls-12" x1="342.83" y1="717.95" x2="533.1" y2="788.97"/>
              <line class="cls-12" x1="229.19" y1="718.04" x2="418.5" y2="789.1"/>
              <line class="cls-12" x1="115.41" y1="718.13" x2="303.77" y2="789.24"/>
            </g>
          </g>
          <ellipse class="cls-9" cx="615.6" cy="753.35" rx="214.4" ry="15.71"/>
          <g>
            <g>
              <rect class="cls-30" x="415.66" y="8.19" width="394.24" height="741.94" rx="74" ry="74"/>
              <circle class="cls-20" cx="559.2" cy="38.38" r="8.54"/>
              <rect class="cls-20" x="579.09" y="33.82" width="94.27" height="7.63" rx="2.5" ry="2.5"/>
              <path class="cls-17" d="M791.22,82.19v593.95c0,30.5-24.82,55.31-55.32,55.31h-246.23c-30.52,0-55.32-24.8-55.32-55.31V82.19c0-30.52,24.8-55.32,55.32-55.32h29.98v4.07c0,12.96,10.52,23.48,23.48,23.48h139.3c12.96,0,23.48-10.52,23.48-23.48v-4.07h30c30.5,0,55.32,24.8,55.32,55.32Z"/>
            </g>
            <rect class="cls-25" x="460.19" y="487.16" width="83.33" height="36.6" rx="5.47" ry="5.47"/>
            <rect class="cls-25" x="460.19" y="416.53" width="83.33" height="59.84" rx="6.99" ry="6.99"/>
            <g class="cls-51">
              <path class="cls-20" d="M670.01,94.61h-116.42c-2.9,0-5.25,2.35-5.25,5.25h0c0,2.9,2.35,5.25,5.25,5.25h116.42c2.9,0,5.25-2.35,5.25-5.25h0c0-2.9-2.35-5.25-5.25-5.25Z"/>
              <path class="cls-20" d="M635.77,133.97h-47.93c-2.9,0-5.25,2.35-5.25,5.25h0c0,2.9,2.35,5.25,5.25,5.25h47.93c2.9,0,5.25-2.35,5.25-5.25h0c0-2.9-2.35-5.25-5.25-5.25Z"/>
            </g>
          </g>
          <g>
            <rect class="cls-2" x="332.52" y="131.19" width="231.5" height="231.5" rx="22.73" ry="22.73"/>
            <rect class="cls-40" x="610.16" y="131.19" width="231.5" height="231.5" rx="22.73" ry="22.73"/>
            <g>
              <path class="cls-22" d="M314.86,430.18h-75.72c-15.46,0-27.98-12.53-27.98-27.98h0c0-15.46,12.53-27.98,27.98-27.98h75.72c15.46,0,27.98,12.53,27.98,27.98h0c0,15.46-12.53,27.98-27.98,27.98Z"/>
              <path class="cls-17" d="M311.62,427.79h-69.25c-14.13,0-25.59-11.46-25.59-25.59h0c0-14.14,11.46-25.59,25.59-25.59h69.25c14.14,0,25.59,11.46,25.59,25.59h0c0,14.14-11.46,25.59-25.59,25.59Z"/>
              <circle class="cls-65" cx="308.8" cy="402.19" r="20.28"/>
            </g>
            <g>
              <path class="cls-23" d="M239.14,447.79h75.72c15.46,0,27.98,12.53,27.98,27.98h0c0,15.46-12.53,27.98-27.98,27.98h-75.72c-15.46,0-27.98-12.53-27.98-27.98h0c0-15.46,12.53-27.98,27.98-27.98Z"/>
              <path class="cls-9" d="M242.37,450.18h69.25c14.13,0,25.59,11.46,25.59,25.59h0c0,14.14-11.46,25.59-25.59,25.59h-69.25c-14.14,0-25.59-11.46-25.59-25.59h0c0-14.14,11.46-25.59,25.59-25.59Z"/>
              <circle class="cls-7" cx="245.2" cy="475.78" r="20.28"/>
            </g>
            <g>
              <path class="cls-20" d="M500.13,293.34c-12.07,11.84-28.97,18.73-47.5,17.44-30.21-2.11-54.68-26.5-56.9-56.7-2.58-35.05,24.25-64.48,58.35-66.1,1.61-.08,2.98,1.19,2.98,2.8h0c0,1.48-1.14,2.73-2.61,2.8-29.66,1.36-53.29,25.84-53.29,55.85s25.04,55.92,55.91,55.92c15.28,0,29.12-6.13,39.2-16.05,1.09-1.07,2.84-1.05,3.92.03h0c1.11,1.11,1.08,2.91-.04,4.01Z"/>
              <path class="cls-34" d="M457.06,190.78c0,.73-.28,1.42-.76,1.92-.47.51-1.12.84-1.86.87-27.84,1.29-50.37,22.92-53.03,50.39l-5.58-.34c2.83-30.28,27.6-54.19,58.25-55.65,1.61-.07,2.98,1.19,2.98,2.81Z"/>
              <text class="cls-24" transform="translate(426.44 263.05)"><tspan class="cls-57" x="0" y="0">7</tspan><tspan x="19.92" y="0">5%</tspan></text>
            </g>
            <g>
              <path class="cls-17" d="M925.27,176.98v305.47c0,2.6,2.11,4.71,4.71,4.71h0c2.6,0,4.71-2.11,4.71-4.71V176.98c0-2.6-2.11-4.71-4.71-4.71h0c-2.6,0-4.71,2.11-4.71,4.71Z"/>
              <path class="cls-35" d="M968.91,176.98v305.47c0,2.6,2.11,4.71,4.71,4.71h0c2.6,0,4.71-2.11,4.71-4.71V176.98c0-2.6-2.11-4.71-4.71-4.71h0c-2.6,0-4.71,2.11-4.71,4.71Z"/>
              <path class="cls-17" d="M1019.91,176.98v305.47c0,2.6,2.11,4.71,4.71,4.71h0c2.6,0,4.71-2.11,4.71-4.71V176.98c0-2.6-2.11-4.71-4.71-4.71h0c-2.6,0-4.71,2.11-4.71,4.71Z"/>
              <path class="cls-42" d="M925.27,176.98v109.57h9.41v-109.57c0-2.6-2.11-4.71-4.71-4.71s-4.71,2.11-4.71,4.71Z"/>
              <path class="cls-42" d="M968.91,176.98v205.38h9.41v-205.38c0-2.6-2.11-4.71-4.71-4.71s-4.71,2.11-4.71,4.71Z"/>
              <path class="cls-42" d="M1019.91,176.98v61.51h9.41v-61.51c0-2.6-2.11-4.71-4.71-4.71s-4.71,2.11-4.71,4.71Z"/>
              <g class="cls-19">
                <path class="cls-20" d="M928.59,268.88c7.32.01,13.25,5.96,13.24,13.28-.01,7.32-5.96,13.25-13.28,13.24-7.32-.01-13.25-5.96-13.24-13.28.01-7.32,5.96-13.25,13.28-13.24Z"/>
              </g>
              <g class="cls-10">
                <path class="cls-20" d="M972.09,365.21c7.32.01,13.25,5.96,13.24,13.28-.01,7.32-5.96,13.25-13.28,13.24-7.32-.01-13.25-5.96-13.24-13.28.01-7.32,5.96-13.25,13.28-13.24Z"/>
              </g>
              <g class="cls-32">
                <path class="cls-20" d="M1023.3,223.81c7.32.01,13.25,5.96,13.24,13.28-.01,7.32-5.96,13.25-13.28,13.24-7.32-.01-13.25-5.96-13.24-13.28.01-7.32,5.96-13.25,13.28-13.24Z"/>
              </g>
            </g>
            <g>
              <rect class="cls-1" x="543.94" y="606.32" width="150.3" height="45.18" rx="8.55" ry="8.55"/>
              <path class="cls-20" d="M647.44,624.26h-56.71c-2.96,0-5.39,2.42-5.39,5.39h0c0,2.96,2.42,5.39,5.39,5.39h56.71c2.96,0,5.39-2.42,5.39-5.39h0c0-2.96-2.42-5.39-5.39-5.39Z"/>
            </g>
            <g>
              <rect class="cls-37" x="839.92" y="6" width="88.42" height="88.42" rx="20.47" ry="20.47"/>
              <rect class="cls-18" x="833.92" width="88.42" height="88.42" rx="20.47" ry="20.47"/>
              <path class="cls-20" d="M877.72,70.62c-.43-.33-.9-.62-1.29-.99-5.05-4.79-9.52-10.05-13.06-16.07-2.09-3.54-3.72-7.26-4.58-11.31-2.02-9.49,2.6-18.75,11.39-22.77,8.02-3.67,17.92-1.23,23.4,5.82,4.16,5.34,5.22,11.34,3.68,17.86-1.01,4.28-2.92,8.16-5.25,11.86-3.41,5.41-7.54,10.22-12.18,14.61-.39.37-.86.66-1.29.99h-.83ZM889.13,37.95c.27-5.95-4.5-11.04-10.64-11.34-5.95-.29-11.06,4.48-11.36,10.61-.3,5.99,4.51,11.12,10.69,11.39,5.95.26,11.03-4.53,11.31-10.67Z"/>
            </g>
            <g>
              <rect class="cls-29" x="98.93" y="146.27" width="203.85" height="51.22" rx="9.69" ry="9.69"/>
              <g>
                <path class="cls-20" d="M141.42,162.28c0,2.68-2.17,4.86-4.86,4.86s-4.86-2.17-4.86-4.86,2.17-4.86,4.86-4.86,4.86,2.17,4.86,4.86Z"/>
                <path class="cls-20" d="M147.46,182.83v-6.42c0-2.31-1.87-4.18-4.18-4.18h-13.43c-2.31,0-4.18,1.87-4.18,4.18v6.42h21.79Z"/>
              </g>
              <path class="cls-20" d="M274.47,168.58h-85.09c-1.59,0-2.89,1.3-2.89,2.89h0c0,1.59,1.3,2.89,2.89,2.89h85.09c1.59,0,2.89-1.3,2.89-2.89h0c0-1.59-1.3-2.89-2.89-2.89Z"/>
            </g>
            <g>
              <g class="cls-36">
                <rect class="cls-47" x="968.66" y="6" width="88.42" height="88.42" rx="20.47" ry="20.47"/>
              </g>
              <rect class="cls-56" x="962.66" width="88.42" height="88.42" rx="20.47" ry="20.47"/>
              <path class="cls-20" d="M1026.29,44.16c0-1.32-.13-2.61-.39-3.86l6.46-3.73-6.05-10.47-6.44,3.72c-1.95-1.74-4.25-3.1-6.79-3.94v-7.42h-12.09v7.42c-1.13.37-2.21.85-3.24,1.41-.12.07-.24.14-.36.21-.12.07-.24.14-.36.21-1,.61-1.95,1.31-2.84,2.1l-6.42-3.71-6.05,10.47,6.42,3.71c-.24,1.16-.37,2.34-.4,3.51,0,.14,0,.28,0,.43,0,.14,0,.27,0,.41.02,1.17.16,2.35.4,3.51l-6.42,3.71,6.05,10.47,6.42-3.71c2,1.78,4.32,3.1,6.81,3.92v7.43h12.09v-7.45c1.21-.4,2.39-.93,3.54-1.59,1.17-.68,2.25-1.46,3.22-2.33l6.48,3.74,6.05-10.47-6.48-3.74c.27-1.28.41-2.6.41-3.95ZM1014.95,52.68c-.05.05-.11.1-.16.14-.21.19-.42.37-.64.54-.1.08-.21.16-.31.24-.18.13-.36.26-.55.38-.15.1-.3.19-.45.28-.15.09-.31.17-.47.26-.2.1-.4.2-.6.29-.12.05-.24.1-.36.15-.26.1-.52.2-.79.29-.07.02-.14.04-.2.06-1.07.32-2.2.5-3.38.5-6.43,0-11.65-5.21-11.65-11.65,0-1.58.32-3.08.88-4.45.03-.06.05-.13.08-.19.1-.24.22-.48.34-.71.08-.15.16-.29.24-.44.08-.14.17-.28.26-.42.14-.22.29-.44.44-.65.04-.06.08-.11.13-.17.9-1.18,2.04-2.2,3.41-2.99,5.57-3.22,12.69-1.31,15.91,4.26.59,1.02,1,2.09,1.25,3.18.02.07.03.14.05.21.06.28.11.55.14.83.02.13.03.26.05.39.02.22.04.45.05.67,0,.18.01.35.01.53,0,.18,0,.36-.01.53-.01.22-.03.44-.05.66-.01.13-.03.26-.05.39-.04.28-.09.55-.14.83-.01.07-.03.14-.05.21-.25,1.09-.67,2.16-1.25,3.17-.59,1.02-1.31,1.91-2.12,2.67Z"/>
            </g>
            <g>
              <g class="cls-36">
                <rect class="cls-47" x="103.03" y="376.63" width="88.42" height="88.42" rx="20.47" ry="20.47"/>
              </g>
              <rect class="cls-8" x="98.03" y="371.63" width="88.42" height="88.42" rx="20.47" ry="20.47"/>
              <path class="cls-20" d="M137.38,389.84c1.79,0,3.59,0,5.38,0,.15.02.3.06.45.07,2.74.25,5.49.43,8.23.77,2.38.29,4.72.83,6.94,1.8,1.47.65,2.5,1.65,2.99,3.23.66,2.1.93,4.25,1.19,6.42.04.3.13.43.43.5,1.21.28,2,1.21,2.02,2.46.03,1.74.02,3.48,0,5.23-.01,1.02-.52,1.78-1.43,2.22-.35.17-.4.36-.4.69.03,4.26.06,8.53.06,12.79,0,2.79-.05,5.58-.09,8.37,0,.74-.29,1.16-1,1.34-.5.12-1.03.12-1.55.15-.26.02-.52,0-.82,0,0,1.1,0,2.13,0,3.16,0,.79-.23,1.48-.86,1.97-1.19.92-2.51,1.04-3.87.46-1.26-.53-1.68-1.56-1.61-2.87.05-.89,0-1.78,0-2.71h-23.49c0,1.09.05,2.15-.02,3.21-.03.5-.17,1.05-.44,1.46-.73,1.11-2.44,1.53-3.9,1.06-1.37-.44-1.95-1.29-1.95-2.88,0-.94,0-1.88,0-2.85-.23-.01-.39-.03-.56-.03-.57,0-1.15.02-1.72.03-1.02.03-1.77-.77-1.86-2.06-.11-1.59-.26-3.17-.28-4.76-.06-5.31-.06-10.62-.07-15.93,0-.34-.1-.5-.39-.66-.82-.47-1.3-1.19-1.31-2.15-.02-1.76-.03-3.52,0-5.28.02-1.17.78-2.12,1.9-2.41.33-.09.41-.23.46-.54.36-2.2.7-4.4,1.14-6.58.28-1.4,1.09-2.46,2.41-3.08.61-.29,1.23-.57,1.87-.78,3.05-1.02,6.23-1.36,9.42-1.62.91-.08,1.82-.14,2.72-.2ZM125.05,400.25v16.76h31.98v-16.76h-31.98ZM152.9,394.67h-23.69v3.54h23.67c0-.15.02-.27.02-.39,0-1.03,0-2.06,0-3.15ZM129.52,425.06c-1.85,0-3.35,1.48-3.38,3.34-.03,1.82,1.5,3.36,3.34,3.38,1.86.02,3.41-1.51,3.41-3.36,0-1.84-1.52-3.35-3.36-3.35ZM152.76,431.78c1.84,0,3.36-1.49,3.39-3.34.03-1.82-1.49-3.36-3.34-3.38-1.87-.02-3.4,1.5-3.41,3.36,0,1.83,1.52,3.35,3.36,3.36Z"/>
            </g>
            <g>
              <rect class="cls-16" x="98.93" y="228.68" width="203.85" height="51.22" rx="9.69" ry="9.69"/>
              <g>
                <path class="cls-30" d="M149.89,248.4h-19.66c-1.49,0-2.73,1.21-2.73,2.73v14.08c0,1.49,1.23,2.71,2.73,2.71h19.66c1.49,0,2.71-1.21,2.71-2.71v-14.08c0-1.51-1.21-2.73-2.71-2.73ZM141.06,258.96v3.01c0,.54-.45.99-1.01.99s-.99-.45-.99-.99v-3.01c-1.1-.41-1.9-1.46-1.9-2.71,0-1.61,1.31-2.89,2.89-2.89s2.91,1.29,2.91,2.89c0,1.25-.8,2.3-1.9,2.71Z"/>
                <path class="cls-30" d="M135.82,245.28v-3.23c0-.24.21-.43.43-.43h7.62c.24,0,.43.19.43.43v3.23h1.87v-3.23c0-1.27-1.03-2.3-2.3-2.3h-7.62c-1.25,0-2.3,1.03-2.3,2.3v3.23h1.87Z"/>
              </g>
              <g>
                <path class="cls-30" d="M194.24,255.11c0-1.88-1.53-3.41-3.41-3.41s-3.41,1.53-3.41,3.41,1.53,3.41,3.41,3.41,3.41-1.53,3.41-3.41Z"/>
                <path class="cls-30" d="M218.09,255.11c0-1.88-1.53-3.41-3.41-3.41s-3.41,1.53-3.41,3.41,1.53,3.41,3.41,3.41,3.41-1.53,3.41-3.41Z"/>
                <path class="cls-30" d="M241.94,255.11c0-1.88-1.53-3.41-3.41-3.41s-3.41,1.53-3.41,3.41,1.53,3.41,3.41,3.41,3.41-1.53,3.41-3.41Z"/>
                <path class="cls-30" d="M265.8,255.11c0-1.88-1.53-3.41-3.41-3.41s-3.41,1.53-3.41,3.41,1.53,3.41,3.41,3.41,3.41-1.53,3.41-3.41Z"/>
              </g>
            </g>
            <rect class="cls-26" x="580.71" y="418.06" width="192.79" height="105.7" rx="16.38" ry="16.38"/>
            <g>
              <path class="cls-20" d="M686.02,321.95c-2.85-.68-5.62-1.56-7.91-3.49-4.34-3.67-6.59-8.29-5.84-14.01.61-4.7,4.59-8,9.33-8.01,9.46-.03,18.92-.01,28.38-.01,21.93,0,43.87.21,65.8-.12,7.48-.11,13.62,5.62,10.36,14.8-2.09,5.9-6.32,9.46-12.51,10.61-.22.04-.42.16-.62.24h-86.97Z"/>
              <path class="cls-20" d="M698.83,289.99h-13.54c0-1.84-.08-3.65.01-5.45.59-11.69,1.22-23.37,1.84-35.06.32-6.12.51-12.24,1.01-18.35.83-10.14,8.58-17.37,18.75-17.73,1.09-.04,2.19,0,3.39,0v-6.39c-1.83,0-3.68,0-5.54,0-4.58,0-7.2-2.56-7.14-7.11.04-2.96-.08-5.99.52-8.86,1.16-5.55,6.24-9.5,11.92-9.53,12.98-.07,25.97-.08,38.95,0,6.75.04,12.25,5.59,12.44,12.33.06,2.28.05,4.57,0,6.86-.07,3.59-2.81,6.26-6.42,6.3-2.05.02-4.11,0-6.25,0v6.28c1.68.08,3.32.09,4.94.25,9.55.89,16.89,8.77,17.34,18.33.73,15.39,1.59,30.77,2.4,46.15.19,3.65.39,7.3.58,10.96.02.31,0,.62,0,1.01h-13.97c-.17-2.29-.35-4.59-.5-6.9-.9-13.73-1.79-27.46-2.7-41.19-.13-2-.16-4.05-.6-5.98-1.32-5.74-6.33-9.68-12.22-9.71-9.69-.04-19.39-.05-29.08,0-6.71.03-12.08,5.22-12.54,11.91-1.15,17.01-2.33,34.02-3.5,51.03-.02.26-.07.52-.11.85ZM716.84,213.27h25.36v-6.2h-25.36v6.2Z"/>
              <path class="cls-20" d="M753.54,289.98h-48.19c.08-1.54.15-3.03.25-4.51.7-10.44,1.42-20.88,2.13-31.32.36-5.29.7-10.58,1.1-15.86.24-3.14,2.9-5.69,6.16-5.71,9.69-.06,19.38-.07,29.07,0,3.44.02,6.02,2.61,6.24,6.07.83,12.49,1.62,24.99,2.43,37.49.27,4.15.54,8.3.81,12.45.03.44,0,.89,0,1.41Z"/>
            </g>
          </g>
          <g>
            <path class="cls-30" d="M508.92,434.46c0,4.33-3.51,7.83-7.83,7.83s-7.83-3.51-7.83-7.83,3.51-7.83,7.83-7.83,7.83,3.51,7.83,7.83Z"/>
            <path class="cls-30" d="M518.66,467.61v-10.36c0-3.72-3.02-6.74-6.74-6.74h-21.66c-3.72,0-6.74,3.02-6.74,6.74v10.36h35.15Z"/>
          </g>
          <rect class="cls-30" x="470.12" y="495.7" width="61.83" height="5.49" rx="1.64" ry="1.64"/>
          <rect class="cls-30" x="470.12" y="505.46" width="61.83" height="5.49" rx="1.64" ry="1.64"/>
          <rect class="cls-30" x="592.03" y="523.76" width="168.61" height="5.49" rx="2.67" ry="2.67"/>
          <g class="cls-61">
            <path class="cls-41" d="M697.86,440.9h-74.27s-7.01.31-9.81,6.54c-2.8,6.23-6.23,16.35-2.96,38.3h132.45s0-9.87,0-9.87c0,0,.65-6.9-7.07-13.79-7.72-6.9-23.58-21.18-38.34-21.18Z"/>
            <path class="cls-70" d="M610.63,485.74h26.53s6.18,0,6.18,0h100.24c.63,0,1.14.51,1.14,1.14v6.06c0,.63-.51,1.14-1.14,1.14h-104.45c-.18.8-.39,1.41-.62,1.41l-27.88-4.03c-.63,0-1.14-.51-1.14-1.14v-3.44c0-.63.51-1.14,1.14-1.14Z"/>
            <path class="cls-49" d="M744.72,489.12v3.83c0,.63-.51,1.14-1.14,1.14h-104.45c-.18.8-.39,1.41-.62,1.41l-27.88-4.03c-.63,0-1.14-.51-1.14-1.14v-1.21h135.23Z"/>
            <path class="cls-67" d="M613.3,470.95v10.14c0,.63-.51,1.14-1.14,1.14h-1.81c-.58-4.69-.84-8.8-.85-12.41h2.67c.63,0,1.14.51,1.14,1.14Z"/>
            <path class="cls-67" d="M740.93,479.46c-.63,0-1.14-.51-1.14-1.14v-3.38c0-.63.51-1.14,1.14-1.14h2.23c.19,1.29.12,2.07.12,2.07v3.59h-2.35Z"/>
            <path class="cls-4" d="M708.09,465.36v-12.79h8.94c.44,0,1.27.4,2.21,1.14l14.76,11.66,1.34,1.14h-26.11c-.63,0-1.14-.51-1.14-1.14Z"/>
            <path class="cls-3" d="M717.03,452.57c.44,0,1.27.4,2.21,1.14l14.76,11.66,1.34,1.14h-26.11"/>
            <path class="cls-4" d="M615.8,463.75l.81-10.04c0-.63.51-1.14,1.14-1.14h85.19s-7.75,12.79-7.75,12.79c-.76,1.14-2.89,1.14-3.52,1.14h-75.37c-.63,0-.49-2.12-.49-2.75Z"/>
            <path class="cls-3" d="M702.94,452.57l-7.75,12.79c-.76,1.14-2.89,1.14-3.52,1.14h-75.37"/>
            <path class="cls-5" d="M717.29,450.25h-11.86s0,21.82,0,21.82l6.49,9.62s3.47-2.91,7.72-2.91,10.86,3.74,10.52,9.51h6.83s0-22.61,0-22.61l-17.91-15.44h-1.79Z"/>
            <polygon class="cls-5" points="703.64 450.25 703.64 489.12 699.38 492.31 668.94 492.31 668.94 450.25 703.64 450.25"/>
            <path class="cls-5" d="M668.94,450.25h-52.09c-.63,0-1.94.51-1.94,1.14l-1.61,16.75c0,.63.51,1.14,1.14,1.14h54.51"/>
            <path class="cls-6" d="M701.06,477.05c.39,0,.71-.32.71-.71v-5.05c0-.39-.32-.71-.71-.71h0c-.39,0-.71.32-.71.71v5.05c0,.4.32.71.71.71h0Z"/>
            <path class="cls-70" d="M644.65,478.57c0,.49.4.89.89.89h51.15c.49,0,.89-.4.89-.89h0c0-.49-.4-.89-.89-.89h-51.15c-.49,0-.89.4-.89.89h0Z"/>
            <path class="cls-53" d="M708.91,490.67c0-5.66,4.59-10.25,10.25-10.25,5.66,0,10.25,4.59,10.25,10.25s-4.59,10.25-10.25,10.25-10.25-4.59-10.25-10.25Z"/>
            <path class="cls-41" d="M713.43,490.67c0-3.16,2.56-5.73,5.73-5.73s5.73,2.56,5.73,5.73c0,3.16-2.56,5.73-5.73,5.73-3.16,0-5.73-2.56-5.73-5.73Z"/>
            <path class="cls-64" d="M715.03,490.67c0-2.28,1.85-4.12,4.12-4.12s4.12,1.85,4.12,4.12c0,2.28-1.85,4.12-4.12,4.12-2.28,0-4.12-1.85-4.12-4.12Z"/>
            <path class="cls-38" d="M717.63,490.67c0-.85.69-1.53,1.53-1.53s1.53.69,1.53,1.53-.69,1.53-1.53,1.53-1.53-.69-1.53-1.53Z"/>
            <circle class="cls-53" cx="636.17" cy="490.67" r="10.25" transform="translate(-18.27 24.65) rotate(-2.19)"/>
            <path class="cls-41" d="M630.48,490.67c0-3.14,2.54-5.68,5.68-5.68,3.14,0,5.68,2.54,5.68,5.68s-2.54,5.68-5.68,5.68-5.68-2.54-5.68-5.68Z"/>
            <path class="cls-64" d="M632.04,490.67c0-2.28,1.84-4.12,4.12-4.12,2.28,0,4.12,1.85,4.12,4.12s-1.85,4.12-4.12,4.12c-2.28,0-4.12-1.85-4.12-4.12Z"/>
            <path class="cls-38" d="M634.64,490.67c0-.85.69-1.53,1.53-1.53s1.53.69,1.53,1.53-.69,1.53-1.53,1.53-1.53-.69-1.53-1.53Z"/>
          </g>
          <g>
            <g>
              <g>
                <path class="cls-48" d="M890.06,357.5l24.28,27.56c-1.96,13.14-5.87,51.21-5.87,51.21,3.65,4.83,12.56,3.46,12.56,3.46,0,0,11.68-26.32,8.7-57.13-1.72-17.81-24.56-52.82-40.81-62.74-2.57-1.57-5.37-2.77-8.55-3.61l-3.21-.37,11.38,42.34,1.51-.72Z"/>
                <path class="cls-55" d="M890.06,357.5l24.28,27.56c-1.96,13.14-5.87,51.21-5.87,51.21,3.65,4.83,12.56,3.46,12.56,3.46,0,0,11.68-26.32,8.7-57.13-1.72-17.81-24.56-52.82-40.81-62.74-2.57-1.57-5.37-2.77-8.55-3.61l-3.21-.37,11.38,42.34,1.51-.72Z"/>
              </g>
              <path class="cls-54" d="M909.86,439.36l-5.88,6.29c-.19.21-.34.45-.44.72l-3.46,9.73c-.19.52-.15,1.1.09,1.6l1.68,3.43c.28.58.81.99,1.44,1.12l11.93,2.44c1.14.23,2.24-.51,2.45-1.65l2.33-12.81c.05-.25.04-.51,0-.76l-1.6-8.22c-.16-.84-.83-1.49-1.67-1.64l-4.99-.88c-.69-.12-1.39.11-1.87.62Z"/>
              <g>
                <g>
                  <ellipse class="cls-28" cx="938.76" cy="740.02" rx="12.49" ry="13.76"/>
                  <path class="cls-62" d="M929.81,739.89c0,4.88,2.79,8.84,6.23,8.84s6.23-3.96,6.23-8.84c0-4.88-2.79-8.84-6.23-8.84-3.44,0-6.23,3.96-6.23,8.84Z"/>
                </g>
                <g>
                  <path class="cls-28" d="M984.22,731.79c1.48,6.77,7.66,11.23,13.81,9.95,6.15-1.27,9.93-7.79,8.45-14.56-1.48-6.77-7.66-11.23-13.81-9.95-6.15,1.27-9.93,7.79-8.45,14.56Z"/>
                  <path class="cls-62" d="M987.96,730.9c.95,4.35,4.07,7.39,6.96,6.79,2.89-.6,4.47-4.61,3.52-8.96-.95-4.35-4.07-7.39-6.96-6.79-2.89.6-4.47,4.61-3.52,8.96Z"/>
                </g>
                <path class="cls-28" d="M909.19,453.58c6.18-4.32,29.72-15.7,35.22-4.91,1.18,2.31,1.24,5.3,1.65,7.82.55,3.39,1.1,6.78,1.64,10.18,1.13,7.14,2.25,14.28,3.34,21.43,3.83,24.93,7.45,49.89,11.12,74.85.8,5.47,1.63,10.94,2.39,16.41.61,4.46-6.6,4.42-7.21,0-5.15-37.51-10.15-75.03-15.86-112.46-.52-3.38-1.04-6.75-1.56-10.13-.4-2.58.03-5.73-2.96-6.39-3.24-.71-7.45.8-10.51,1.73-4.59,1.39-10.66,6.54-15.3,7.74-1.99.51-4.69-4.22-3.15-5.3l1.2-.96Z"/>
                <path class="cls-28" d="M918.1,455.69c-2.02,3.24-6.21,4.43-9.58,6.02-1.76.83-4.67,1.78-6.04,3.22-1.64,1.71-.94,4.83-.71,7.1,1.4,13.36,2.77,26.75,4.27,40.1,1.75,15.56,3.7,31.09,5.51,46.65.84,7.21,1.66,14.42,2.39,21.64.35,3.44.68,6.89.98,10.34.23,2.65-.23,6.49,1.68,8.64,1.56,1.76,1.03,4.55-1.42,5.23-6.11,1.69-7.68-4.63-8.07-9.13-.5-5.71-.98-11.42-1.57-17.13-1.45-13.99-3.15-27.95-4.81-41.92-1.61-13.47-3.22-26.94-4.55-40.44-.57-5.79-.86-11.63-1.63-17.4-.68-5.06-2.21-11.31.05-16.18,1.89-4.06,7.08-5.95,10.98-7.68,3.35-1.49,7.31-3.59,11.03-2.59,1.52.41,2.31,2.2,1.48,3.54h0Z"/>
                <g>
                  <path class="cls-66" d="M880.29,581.24c-3.68,12.44,10.55,146.41,23.56,154.45,13.01,8.04,99.3-9.05,109.89-16.93,10.59-7.89-17.2-152.56-30.91-156.06-13.71-3.5-100.28,10.91-102.54,18.55Z"/>
                  <path class="cls-31" d="M880.29,581.24c.81-2.73,12.38-6.32,27.55-9.65,0,0,0,.01,0,.02-3.68,12.44,10.55,146.41,23.56,154.45,9.01,5.57,53.18-.92,82.99-8.05-.2.31-.41.58-.65.75-10.59,7.89-96.87,24.97-109.89,16.93-13.01-8.04-27.24-142-23.56-154.45Z"/>
                </g>
                <path class="cls-13" d="M892.52,575.43c-.92,19.04,3.62,57.61,3.62,57.61"/>
                <path class="cls-59" d="M981.3,582.23c-7.92.69-15.78,1.68-23.62,3s-15.53,2.89-23.21,4.74c-4.3,1.03-8.62,2.07-12.85,3.36-.83.25-.49,1.52.36,1.3,3.82-.98,7.61-2.07,11.44-3.02s7.68-1.84,11.54-2.67c7.64-1.64,15.32-3.09,23.04-4.27,4.43-.68,8.86-1.39,13.3-1.97.29-.04.31-.5,0-.47h0Z"/>
                <path class="cls-59" d="M921.38,594.43c.03,1.36.17,2.69.34,4.04.06.52.23,1.28-.12,1.74-.2.26-.61.43-.82.1-.24-.39-.23-.99-.23-1.44,0-.57.07-1.13.2-1.69.13-.52.31-1.03.55-1.51.13-.26.28-.51.44-.75.18-.26.21-.44.16-.74-.02-.1-.14-.19-.24-.18-.25.01-.44.07-.61.27-.18.22-.34.48-.48.73-.28.47-.5.98-.67,1.51-.34,1.03-.44,2.16-.3,3.24.06.51.18,1.03.56,1.4s.91.45,1.38.29c1.18-.4,1.31-1.66,1.17-2.73-.2-1.46-.44-2.91-.8-4.34-.07-.29-.54-.23-.53.07h0Z"/>
                <g>
                  <path class="cls-52" d="M934.58,677.68c-.24,0-.47-.12-.61-.33-4.15-6.49-12.07-20.17-12.15-20.3-.11-.2-.13-.43-.04-.64.09-.21.27-.37.49-.42,4.61-1.2,13.78-4.43,13.87-4.47.08-.03.16-.04.24-.04.24,0,.47.12.61.33l12.31,18.94c.12.18.15.4.09.6-.06.2-.21.37-.4.46-.07.03-7.53,3.32-14.14,5.83-.08.03-.17.05-.26.05Z"/>
                  <path class="cls-20" d="M936.38,652.19l12.31,18.94s-7.43,3.28-14.11,5.82c-4.19-6.55-12.13-20.28-12.13-20.28,4.69-1.22,13.93-4.49,13.93-4.49M936.38,650.74c-.16,0-.32.03-.48.08-.09.03-9.24,3.26-13.81,4.45-.44.11-.8.43-.97.84-.17.42-.14.89.08,1.29.08.14,8,13.83,12.16,20.33.27.43.74.67,1.22.67.17,0,.35-.03.51-.09,6.64-2.52,14.1-5.82,14.18-5.85.39-.17.68-.51.8-.91.12-.41.06-.85-.17-1.2l-12.31-18.94c-.27-.42-.74-.66-1.22-.66h0Z"/>
                </g>
                <g>
                  <path class="cls-69" d="M968.41,650.7c-.2,0-.39-.08-.53-.23-.19-.2-.25-.49-.15-.74l7.74-21.37c.08-.23.28-.4.52-.46.05-.01.11-.02.16-.02.19,0,.37.07.5.2l15.23,14.65c.19.18.26.44.2.7s-.25.45-.5.52l-22.97,6.72c-.07.02-.13.03-.2.03Z"/>
                  <path class="cls-20" d="M976.15,628.61l15.23,14.65-22.97,6.72,7.74-21.37M976.15,627.16c-.11,0-.22.01-.33.04-.48.11-.87.46-1.03.92l-7.74,21.37c-.19.51-.07,1.09.31,1.49.28.3.66.46,1.06.46.14,0,.27-.02.41-.06l22.97-6.72c.5-.15.88-.54,1-1.05.12-.5-.03-1.03-.4-1.39l-15.23-14.65c-.27-.26-.63-.4-1-.4h0Z"/>
                </g>
                <path class="cls-14" d="M987.98,677.99c.31,5.41-4.3,9.99-9.65,11-5.99,1.13-11.91-3.49-12.53-9.36-.62-5.88,4.47-11.71,10.55-12.03,5.56-.29,10.76,4.29,11.54,9.57.04.27.07.55.08.82Z"/>
              </g>
              <g>
                <polygon class="cls-48" points="904.78 437.9 923.52 446.41 923.76 437.34 906.48 430.7 904.78 437.9"/>
                <polygon class="cls-21" points="904.78 437.9 923.52 446.41 923.76 437.34 906.48 430.7 904.78 437.9"/>
              </g>
            </g>
            <g>
              <path class="cls-63" d="M912.04,471.42c11.18,39.96,6.44,98.81,12.58,138.29,4.23,27.21,33.07,116.74,33.07,116.74l-25.46,7.72s-31.77-78.85-37.93-102.36c-9.98-38.13-25-110.47-25-110.47,0,0-5.59-20.53-3.06-22.74,2.53-2.22,45.8-27.17,45.8-27.17Z"/>
              <path class="cls-15" d="M884.03,498.82l-18.41,5.97,6.89,32.36s-3.41-30.96,11.52-38.33Z"/>
              <g>
                <polygon class="cls-54" points="952.57 725.31 957.12 739.76 944.79 745.31 938.67 729.95 952.57 725.31"/>
                <polygon class="cls-50" points="955.27 733.88 942.24 738.9 940.5 734.54 954.21 730.5 955.27 733.88"/>
              </g>
              <polygon class="cls-48" points="957.41 718.54 926.28 727.06 931.91 737.08 959.16 729.04 957.41 718.54"/>
              <polygon class="cls-21" points="957.41 718.54 926.28 727.06 931.91 737.08 959.16 729.04 957.41 718.54"/>
              <g>
                <path class="cls-48" d="M937.86,749.43c-1.81.71-3.8,1.11-4.71.57-.49-.33-.71-.94-.56-1.51.09-.49.36-.94.77-1.23,2.17-1.62,8.37-.71,8.65-.67.15.02.28.14.31.29.03.15-.04.31-.17.39-1.36.84-2.8,1.56-4.29,2.16ZM934.44,747.51c-.22.08-.43.2-.63.34-.27.16-.45.44-.49.75-.09.53.08.7.23.78,1.04.68,4.72-.73,7.29-2.13-2.13-.32-4.31-.23-6.41.26Z"/>
                <path class="cls-48" d="M942.09,747.29s-.1.05-.15.04c-2.04-.09-6.77-1.87-7.1-3.63-.12-.41-.01-1,.9-1.47.66-.34,1.44-.4,2.15-.16,2.45.8,4.37,4.57,4.46,4.74.06.12.05.26-.03.37-.06.06-.14.1-.23.11ZM936.22,742.8l-.2.06c-.6.3-.54.56-.53.66.3,1.02,3.55,2.59,5.77,2.95-.82-1.58-2.1-2.87-3.68-3.7-.44-.15-.93-.14-1.36.03h0Z"/>
                <path class="cls-33" d="M942.83,744.66l15.87-6.22c.6-.23,1.28-.02,1.64.51l7.93,11.79c.71,1.04.44,2.46-.6,3.17-.13.09-.28.17-.43.23-5.76,2.14-10.97,3.82-18.09,6.62-8.4,3.3-5.88,3.47-15.7,7.48-5.92,2.41-9.66-3.93-7.27-5.25,10.98-5.98,10.82-9.94,13.65-15.82.66-1.17,1.72-2.07,3-2.5Z"/>
              </g>
            </g>
            <g>
              <g>
                <polygon class="cls-54" points="839.39 737.08 839.1 751 825.64 752.3 824.83 737.08 839.39 737.08"/>
                <polygon class="cls-50" points="825.17 743.54 824.98 739.89 839.32 740.48 839.23 744.73 825.17 743.54"/>
              </g>
              <path class="cls-63" d="M912.04,471.42c-4.21-20.09-21.04-37.93-21.04-37.93l-64.55,4.15s-4.07,41.5-5.02,55.37c-1.92,28.01-9.76,71.48-9.97,99.57-.28,37.97,8.42,138.82,8.42,138.82l24.39,2.89s-.36-93.26,3.63-128.44c3.03-26.65,21.22-99.65,21.22-99.65,0,0,49.98-1.08,42.91-34.78Z"/>
              <g>
                <polygon class="cls-48" points="848.44 730.28 816.22 728.31 818.33 739.61 846.7 740.79 848.44 730.28"/>
                <polygon class="cls-21" points="848.44 730.28 816.22 728.31 818.33 739.61 846.7 740.79 848.44 730.28"/>
              </g>
              <g>
                <path class="cls-48" d="M817.97,753.9c-1.94.08-3.96-.2-4.63-1.01-.35-.47-.37-1.12-.03-1.61.24-.44.65-.77,1.13-.91,2.58-.82,8.14,2.08,8.39,2.2.14.07.22.22.19.38-.02.15-.14.28-.29.31-1.56.35-3.15.56-4.76.63ZM815.37,750.96c-.24,0-.48.05-.7.12-.31.06-.57.27-.7.55-.26.47-.15.69-.04.81.76.99,4.7.86,7.59.38-1.91-1-3.99-1.63-6.14-1.86Z"/>
                <path class="cls-48" d="M822.66,753.26c-.05.02-.11.01-.15,0-1.9-.75-5.78-3.99-5.52-5.76.02-.42.32-.95,1.33-1.09.74-.11,1.49.09,2.08.55,2.05,1.56,2.63,5.75,2.66,5.94.01.13-.04.26-.15.34-.08.04-.17.05-.25.03ZM818.6,747.1h-.21c-.66.07-.7.34-.72.44-.05,1.06,2.51,3.61,4.49,4.68-.25-1.76-1.04-3.4-2.26-4.7-.37-.29-.83-.44-1.3-.41h0Z"/>
                <path class="cls-33" d="M824.23,751.02l17.03-.67c.64-.03,1.22.4,1.38,1.02l3.62,13.73c.33,1.22-.39,2.47-1.6,2.8-.16.04-.32.07-.48.08-6.14.14-11.62.01-19.26.33-9.02.36-6.69,1.35-17.29,1.92-6.39.34-7.84-6.88-5.15-7.34,12.34-2.05,13.48-5.84,18.09-10.47,1.01-.89,2.31-1.39,3.65-1.38Z"/>
              </g>
            </g>
            <path class="cls-54" d="M844.42,299.97c1.13,3.6,3.95,9.66-.05,15.07l19.4-1.88s-2.08-14.31-3.28-18.97c-.78-3.02-1.78-6.29-11.98-3.44-5.8,1.62-4.85,6.81-4.1,9.22Z"/>
            <path class="cls-54" d="M861.92,294.67c10.68-8.23,33.25-30.58,11.6-50.09-18.04-16.25-34.59-6.75-40.25,4.23-6.33,12.29-20.67,45.13,11.15,51.16,5.86,1.11,11.96-1.03,17.5-5.3Z"/>
            <g>
              <path class="cls-48" d="M877.18,313.79s-14.96-13.15-43.4,4.2l.39,4.06,42.74-4.14.27-4.13Z"/>
              <path class="cls-21" d="M877.18,313.79s-14.96-13.15-43.4,4.2l.39,4.06,42.74-4.14.27-4.13Z"/>
            </g>
            <path class="cls-58" d="M848.52,296.1c-.11,4.39-1.35,6.67-2.93,7.8-.51-2.29-1.17-3.93-1.17-3.93,3.82-1.67,4.1-3.87,4.1-3.87Z"/>
            <g>
              <path class="cls-48" d="M837.11,317.48c6.21-1.41,12.42-2.23,18.64-2.96,11.03-1.3,19.43-2.16,25.52.52,9.69,4.27,10.93,7.02,10.93,7.02l-1.92,31.39s-2.3,18.11-.82,45.6c0,.02,0,.05,0,.06.48,14.72,5.1,30.07,14.9,46.02-1.21,1.42-2.72,2.93-4.59,4.36-6.2,4.74-12.84,5.91-16.53,6.25-2.19-.41-4.38-.82-6.57-1.23-1.79.79-3.58,1.59-5.38,2.38-1.55,1-9.38,5.81-19.73,3.73-10.29-2.07-15.64-9.46-16.69-11-5.9-15.89-10.2-29.36-13.25-39.71-3.72-12.61-4.23-18.89-5.26-26.22-1.23-8.72-.06-14.84-.06-14.84l6.07-41.42s10.78-9.07,14.73-9.96Z"/>
              <path class="cls-55" d="M837.11,317.48c6.21-1.41,12.42-2.23,18.64-2.96,11.03-1.3,19.43-2.16,25.52.52,9.69,4.27,10.93,7.02,10.93,7.02l-1.92,31.39s-2.3,18.11-.82,45.6c0,0,0,.02,0,.06,0,0,.72,21.98,13.99,42.69.3.47,1.17,1.8.92,3.33-.38,2.25-2.95,3.57-4.59,4.36-5.83,2.82-12.28,4.96-16.53,6.25-2.19-.41-4.38-.82-6.57-1.23-1.79.79-3.58,1.59-5.38,2.38-4.09,1.67-10.99,3.86-19.73,3.73-11.6-.18-20.21-4.37-24.32-6.72-2.63-2.51-6.37-6.78-8.23-12.9-3.46-11.34,3.52-15.9,2.61-31.07-.69-11.46-3.3-12.31-5.26-26.22-1.23-8.72-.06-14.84-.06-14.84l6.07-41.42s10.78-9.07,14.73-9.96Z"/>
              <path d="M818.32,395.37c-.77-4.19-1.45-8.15-1.95-11.67-1.23-8.72-.06-14.84-.06-14.84l8.67-9.75s-8.24,11.74-6.67,36.26Z"/>
            </g>
            <g>
              <path class="cls-54" d="M740.78,350.65l-5.99-17.07c-.12-.34-.37-.63-.69-.79l-9.41-4.8c-.52-.26-1.14-.18-1.57.2l-6.71,5.9c-.56.49-.64,1.32-.19,1.91l6.93,9.11c.08.11.15.22.19.35.53,1.36,4.1,9.88,11.72,12.01.09.03.18.06.27.11l2.56,1.37c.62.33,1.4.15,1.81-.42l3.25-4.55c.52-.72.24-1.74-.57-2.11l-.86-.39c-.35-.16-.62-.46-.75-.82Z"/>
              <g>
                <path class="cls-48" d="M837.28,317.46c-9.79,2.54-19.34,7.52-28.1,19.22-11.45,15.29-28.45,29.12-28.45,29.12,0,0-21.96-4.66-35.82-16.65l-8.13,12.14s33.37,25.16,46.95,23.84c11.59-1.12,32.72-16.21,32.72-16.21l8.68-9.77,12.15-41.69Z"/>
                <path class="cls-55" d="M837.28,317.46c-9.79,2.54-19.34,7.52-28.1,19.22-11.45,15.29-28.45,29.12-28.45,29.12,0,0-21.96-4.66-35.82-16.65l-8.13,12.14s33.37,25.16,46.95,23.84c11.59-1.12,32.72-16.21,32.72-16.21l8.68-9.77,12.15-41.69Z"/>
              </g>
              <g>
                <polygon class="cls-48" points="744.12 347.62 731.93 362.76 740.09 364.93 749.82 350.7 744.12 347.62"/>
                <polygon class="cls-21" points="744.12 347.62 731.93 362.76 740.09 364.93 749.82 350.7 744.12 347.62"/>
              </g>
            </g>
            <path d="M856.49,310.33c9.14.94,36.15,1.46,32.9-18.31-3.25-19.77,1.15-29.57-7.23-43.49-8.38-13.92-25.85-18-41.56-13.89-13.08,3.43-14.15,12.59-10.6,18.1,3.55,5.52,5.15,6.53,4.53,10.44-.63,3.91,1.75,6.1,2.78,7.93.92,1.64,4.17,3.02,4.17,3.02,0,0,1.21,4.3-.69,11.54-1.9,7.24-5.78,22.44,15.71,24.65Z"/>
            <path d="M844.34,234.78c-4.31.48-8.78,1.65-12.64,3.62-3.1,1.59-6.19,3.98-6.89,7.59-.8,4.13,4.49,5.83,6.25,13.8.39,1.77.72,4.28.48,4.34-.23.06-.89-2.05-1.45-3.64-3.45-9.91-7.18-12.17-5.93-16.05.63-1.94,1.95-3.78,4.19-5.42,4.45-3.25,10.45-4.84,15.87-5.44.77-.08.88,1.11.12,1.19Z"/>
            <path d="M829.45,263.86c.1.25-.09-.18-.13-.24-.13-.22-.27-.43-.44-.62-.6-.67-1.35-.88-2.21-.66-.71.18-1.01-.92-.3-1.1,1.87-.48,3.48.6,4.18,2.32.28.68-.83.97-1.1.3h0Z"/>
            <path class="cls-54" d="M834.12,272.52c-1.22,3.66-.06,7.34,2.59,8.23,2.66.89,5.8-1.36,7.03-5.02,1.22-3.66.06-7.34-2.59-8.23-2.66-.89-5.8,1.36-7.03,5.02Z"/>
            <ellipse class="cls-45" cx="842.4" cy="275.53" rx="10.83" ry="13.68"/>
            <path class="cls-44" d="M841.61,268.24l-3.99-.33c.71-8.5,3.34-16.11,7.82-22.63,3.43-4.99,12.31-16.33,20.52-13.9,2.16.64,4.02,2.15,5.54,4.49.07.24.13.5.18.78.12.7.1,1.32.05,1.82-.71-.47-1.42-.94-2.14-1.41-1.07-.75-2.7-1.65-4.76-1.84-7.38-.7-13.34,8.34-16.09,12.33-4.08,5.93-6.48,12.9-7.13,20.69Z"/>
            <ellipse class="cls-39" cx="840.4" cy="275.53" rx="10.83" ry="13.68"/>
            <path d="M825.19,263.26c.16,1.36,1.49,1.64,2.18,1.76.46.08.74.9.61,1.88-.13.98-.61,1.72-1.07,1.66-.46-.06-.74-.9-.61-1.88.04-.3.12-.57.22-.81-2.21-1.2-1.32-2.61-1.32-2.61Z"/>
          </g>
          <path d="M834.07,239.63c-.15-.3-4.42.3-6.36,3.46-1.6,2.61-.76,5.56-.56,6.2-.4-2.6.2-4.05.81-4.88.47-.64.87-.81,3.56-2.8,1.72-1.27,2.58-1.9,2.54-1.98Z"/>
          <g>
            <g class="cls-36">
              <rect class="cls-47" x="107.58" y="492.77" width="88.42" height="88.42" rx="20.47" ry="20.47"/>
            </g>
            <rect class="cls-27" x="103.03" y="486.8" width="88.42" height="88.42" rx="20.47" ry="20.47" transform="translate(294.47 1062.02) rotate(180)"/>
            <g>
              <g class="cls-68">
                <rect class="cls-20" x="113.58" y="497.2" width="76.83" height="76.83"/>
                <rect class="cls-60" x="118.41" y="486.28" width="23.79" height="40.68" transform="translate(167.54 -15.16) rotate(18.51)"/>
                <path class="cls-60" d="M145.93,497h32.8v40.68h-24.61c-4.52,0-8.19-3.67-8.19-8.19v-32.5h0Z" transform="translate(172.6 -24.77) rotate(18.51)"/>
                <path class="cls-60" d="M106.86,528.43h9.24c2.61,0,4.72,2.12,4.72,4.72v19.06h-13.96v-23.79h0Z" transform="translate(177.39 -8.19) rotate(18.51)"/>
                <path class="cls-60" d="M167.81,547.23h9.91v23.79h-15.39v-18.31c0-3.02,2.46-5.48,5.48-5.48Z" transform="translate(186.26 -25.05) rotate(18.51)"/>
                <path class="cls-60" d="M182.26,505.23h6.98v40.31h-2.66c-2.38,0-4.32-1.94-4.32-4.32v-35.99h0Z" transform="translate(176.36 -31.79) rotate(18.51)"/>
                <path class="cls-60" d="M123.71,537.54h34.72v17.67c0,3.37-2.74,6.11-6.11,6.11h-28.6v-23.79h0Z" transform="translate(181.69 -16.36) rotate(18.51)"/>
              </g>
              <rect class="cls-11" x="115.2" y="498.97" width="64.07" height="64.07" rx="9.18" ry="9.18"/>
            </g>
            <path class="cls-20" d="M162.93,532.35c-.23-.17-.47-.32-.68-.52-2.64-2.5-4.97-5.25-6.83-8.4-1.09-1.85-1.94-3.8-2.39-5.91-1.05-4.96,1.36-9.8,5.95-11.9,4.19-1.92,9.36-.64,12.23,3.04,2.17,2.79,2.73,5.93,1.92,9.33-.53,2.24-1.53,4.27-2.74,6.2-1.78,2.83-3.94,5.34-6.37,7.64-.2.19-.45.34-.68.52h-.43ZM168.9,515.27c.14-3.11-2.35-5.77-5.56-5.93-3.11-.15-5.78,2.34-5.94,5.55-.16,3.13,2.36,5.81,5.59,5.95,3.11.14,5.76-2.37,5.91-5.57Z"/>
          </g>
        </g>
      </g>
    </g>
  </g>
</svg>