<?xml version="1.0" encoding="UTF-8"?>
<svg id="Layer_2" xmlns="http://www.w3.org/2000/svg" xmlns:xlink="http://www.w3.org/1999/xlink" viewBox="0 0 1331.63 871.14">
  <defs>
    <style>
      .cls-1 {
        fill: url(#Degradado_sin_nombre_152);
        filter: url(#drop-shadow-1);
      }

      .cls-2 {
        fill: url(#Degradado_sin_nombre_152-5);
        filter: url(#drop-shadow-11);
      }

      .cls-3 {
        filter: url(#drop-shadow-2);
      }

      .cls-3, .cls-4, .cls-5, .cls-6 {
        fill: #35e6bb;
        opacity: .36;
      }

      .cls-7 {
        fill: url(#Degradado_sin_nombre_152-6);
      }

      .cls-8 {
        fill: #777;
      }

      .cls-9 {
        fill: none;
        stroke: #c4c4c4;
        stroke-miterlimit: 10;
        stroke-width: 1.04px;
      }

      .cls-10 {
        fill: #d1c8c5;
      }

      .cls-11, .cls-12, .cls-13 {
        fill: #fff;
      }

      .cls-14 {
        fill: #6069a8;
      }

      .cls-15 {
        fill: #b2b1b1;
      }

      .cls-16 {
        fill: #4badcc;
      }

      .cls-12 {
        filter: url(#drop-shadow-4);
      }

      .cls-17 {
        filter: url(#drop-shadow-7);
      }

      .cls-18 {
        fill: #ffc700;
      }

      .cls-19 {
        fill: url(#Degradado_sin_nombre_152-3);
        filter: url(#drop-shadow-6);
      }

      .cls-20 {
        fill: #4b4ba0;
      }

      .cls-21 {
        fill: #a0a0a0;
      }

      .cls-4 {
        filter: url(#drop-shadow-8);
      }

      .cls-22 {
        fill: #c4c4c4;
      }

      .cls-23 {
        fill: #1e9aff;
      }

      .cls-24 {
        fill: url(#Degradado_sin_nombre_152-4);
        filter: url(#drop-shadow-9);
      }

      .cls-25 {
        fill: #325bb3;
      }

      .cls-26 {
        fill: #ebebf2;
      }

      .cls-27 {
        fill: #0d619b;
      }

      .cls-28 {
        fill: #168293;
      }

      .cls-29 {
        fill: #eddad3;
      }

      .cls-13 {
        opacity: .15;
      }

      .cls-30 {
        fill: #9adde8;
        filter: url(#drop-shadow-12);
      }

      .cls-5 {
        filter: url(#drop-shadow-10);
      }

      .cls-31 {
        fill: #71bcba;
      }

      .cls-32 {
        fill: #09667c;
      }

      .cls-6 {
        filter: url(#drop-shadow-5);
      }

      .cls-33 {
        fill: #c6c6c6;
      }

      .cls-34 {
        fill: #eb4747;
      }

      .cls-35 {
        fill: #a39f9b;
      }

      .cls-36 {
        fill: #3f444a;
      }

      .cls-37 {
        fill: #a77860;
      }

      .cls-38 {
        fill: #a4abba;
      }

      .cls-39 {
        fill: url(#Degradado_sin_nombre_152-2);
        filter: url(#drop-shadow-3);
      }

      .cls-40 {
        fill: #0e2d3d;
      }

      .cls-41 {
        fill: #707070;
      }

      .cls-42 {
        fill: #eea886;
      }

      .cls-43 {
        fill: #d2f7ff;
      }
    </style>
    <linearGradient id="Degradado_sin_nombre_152" data-name="Degradado sin nombre 152" x1="385.65" y1="188.09" x2="860.87" y2="663.32" gradientUnits="userSpaceOnUse">
      <stop offset="0" stop-color="#35c9e2" stop-opacity=".5"/>
      <stop offset="1" stop-color="#35e6bb"/>
    </linearGradient>
    <filter id="drop-shadow-1" x="323.49" y="232.43" width="599.53" height="386.56" filterUnits="userSpaceOnUse">
      <feOffset dx="0" dy="30.42"/>
      <feGaussianBlur result="blur" stdDeviation="18.25"/>
      <feFlood flood-color="#1e85ff" flood-opacity=".4"/>
      <feComposite in2="blur" operator="in"/>
      <feComposite in="SourceGraphic"/>
    </filter>
    <filter id="drop-shadow-2" x="61.98" y="424.81" width="178.28" height="178.28" filterUnits="userSpaceOnUse">
      <feOffset dx="0" dy="23.14"/>
      <feGaussianBlur result="blur-2" stdDeviation="13.88"/>
      <feFlood flood-color="#1e85ff" flood-opacity=".4"/>
      <feComposite in2="blur-2" operator="in"/>
      <feComposite in="SourceGraphic"/>
    </filter>
    <linearGradient id="Degradado_sin_nombre_152-2" data-name="Degradado sin nombre 152" x1="58.23" y1="421.06" x2="222.96" y2="585.79" xlink:href="#Degradado_sin_nombre_152"/>
    <filter id="drop-shadow-3" x="51.46" y="414.29" width="178.28" height="178.28" filterUnits="userSpaceOnUse">
      <feOffset dx="0" dy="23.14"/>
      <feGaussianBlur result="blur-3" stdDeviation="13.88"/>
      <feFlood flood-color="#1e85ff" flood-opacity=".4"/>
      <feComposite in2="blur-3" operator="in"/>
      <feComposite in="SourceGraphic"/>
    </filter>
    <filter id="drop-shadow-4" x="95.55" y="457.62" width="90.1" height="91.61" filterUnits="userSpaceOnUse">
      <feOffset dx="0" dy="8.14"/>
      <feGaussianBlur result="blur-4" stdDeviation="8.14"/>
      <feFlood flood-color="#1e85ff" flood-opacity=".4"/>
      <feComposite in2="blur-4" operator="in"/>
      <feComposite in="SourceGraphic"/>
    </filter>
    <filter id="drop-shadow-5" x="983.72" y="512.64" width="295.28" height="204" filterUnits="userSpaceOnUse">
      <feOffset dx="0" dy="30.42"/>
      <feGaussianBlur result="blur-5" stdDeviation="18.25"/>
      <feFlood flood-color="#1e85ff" flood-opacity=".4"/>
      <feComposite in2="blur-5" operator="in"/>
      <feComposite in="SourceGraphic"/>
    </filter>
    <linearGradient id="Degradado_sin_nombre_152-3" data-name="Degradado sin nombre 152" x1="1001.61" y1="484.89" x2="1233.44" y2="716.72" xlink:href="#Degradado_sin_nombre_152"/>
    <filter id="drop-shadow-6" x="969.88" y="498.8" width="295.28" height="204" filterUnits="userSpaceOnUse">
      <feOffset dx="0" dy="30.42"/>
      <feGaussianBlur result="blur-6" stdDeviation="18.25"/>
      <feFlood flood-color="#1e85ff" flood-opacity=".4"/>
      <feComposite in2="blur-6" operator="in"/>
      <feComposite in="SourceGraphic"/>
    </filter>
    <filter id="drop-shadow-7" x="1019.25" y="537" width="196.55" height="127.6" filterUnits="userSpaceOnUse">
      <feOffset dx="0" dy="12.83"/>
      <feGaussianBlur result="blur-7" stdDeviation="12.83"/>
      <feFlood flood-color="#1e85ff" flood-opacity=".4"/>
      <feComposite in2="blur-7" operator="in"/>
      <feComposite in="SourceGraphic"/>
    </filter>
    <filter id="drop-shadow-8" x="994.74" y="97.99" width="187.27" height="187.27" filterUnits="userSpaceOnUse">
      <feOffset dx="0" dy="17.49"/>
      <feGaussianBlur result="blur-8" stdDeviation="10.5"/>
      <feFlood flood-color="#1e85ff" flood-opacity=".4"/>
      <feComposite in2="blur-8" operator="in"/>
      <feComposite in="SourceGraphic"/>
    </filter>
    <linearGradient id="Degradado_sin_nombre_152-4" data-name="Degradado sin nombre 152" x1="986.03" y1="89.28" x2="1163.05" y2="266.3" xlink:href="#Degradado_sin_nombre_152"/>
    <filter id="drop-shadow-9" x="980.91" y="84.15" width="187.27" height="187.27" filterUnits="userSpaceOnUse">
      <feOffset dx="0" dy="17.49"/>
      <feGaussianBlur result="blur-9" stdDeviation="10.5"/>
      <feFlood flood-color="#1e85ff" flood-opacity=".4"/>
      <feComposite in2="blur-9" operator="in"/>
      <feComposite in="SourceGraphic"/>
    </filter>
    <filter id="drop-shadow-10" x="35.56" y="110.57" width="234.43" height="234.43" filterUnits="userSpaceOnUse">
      <feOffset dx="0" dy="30.42"/>
      <feGaussianBlur result="blur-10" stdDeviation="18.25"/>
      <feFlood flood-color="#1e85ff" flood-opacity=".4"/>
      <feComposite in2="blur-10" operator="in"/>
      <feComposite in="SourceGraphic"/>
    </filter>
    <linearGradient id="Degradado_sin_nombre_152-5" data-name="Degradado sin nombre 152" x1="30.63" y1="105.64" x2="247.24" y2="322.25" xlink:href="#Degradado_sin_nombre_152"/>
    <filter id="drop-shadow-11" x="21.72" y="96.73" width="234.43" height="234.43" filterUnits="userSpaceOnUse">
      <feOffset dx="0" dy="30.42"/>
      <feGaussianBlur result="blur-11" stdDeviation="18.25"/>
      <feFlood flood-color="#1e85ff" flood-opacity=".4"/>
      <feComposite in2="blur-11" operator="in"/>
      <feComposite in="SourceGraphic"/>
    </filter>
    <linearGradient id="Degradado_sin_nombre_152-6" data-name="Degradado sin nombre 152" x1="12.63" y1="387.09" x2="310.23" y2="703.69" xlink:href="#Degradado_sin_nombre_152"/>
    <filter id="drop-shadow-12" x="198.77" y="609.91" width="187" height="187" filterUnits="userSpaceOnUse">
      <feOffset dx="0" dy="18.36"/>
      <feGaussianBlur result="blur-12" stdDeviation="11.02"/>
      <feFlood flood-color="#1172d5" flood-opacity=".4"/>
      <feComposite in2="blur-12" operator="in"/>
      <feComposite in="SourceGraphic"/>
    </filter>
  </defs>
  <g id="Layer_1-2" data-name="Layer_1">
    <g>
      <g>
        <path class="cls-22" d="M1331.12,867.28c-381.46.63-760.66,3.23-1142.12,3.86-61.83-24-126.67-52.67-188.5-76.67-.25-5.89.25-14.19,0-20.07,443.54,23.5,887.08,47,1330.62,70.5v22.38Z"/>
        <path class="cls-21" d="M1331.12,844.89c-380.5.45-761.01.9-1141.51,1.35-63.04-23.95-126.07-47.9-189.11-71.85,377.96-.06,755.92-.13,1133.88-.19,65.58,23.57,131.16,47.13,196.73,70.7Z"/>
        <g>
          <path class="cls-9" d="M.57,774.39h1133.15s197.33,70.14,197.33,70.14c.08.03.09.21,0,.21l-1141.74,1.5L.59,774.58c-.08-.03-.1-.2-.02-.2Z"/>
          <line class="cls-9" x1="141.6" y1="828.12" x2="1281.74" y2="827"/>
          <line class="cls-9" x1="94.16" y1="810.11" x2="1232.12" y2="809.37"/>
          <line class="cls-9" x1="46.98" y1="792.2" x2="1182.78" y2="791.83"/>
          <line class="cls-9" x1="1022.47" y1="774.39" x2="1219.55" y2="844.88"/>
          <line class="cls-9" x1="910.76" y1="774.39" x2="1107" y2="845.03"/>
          <line class="cls-9" x1="798.58" y1="774.39" x2="993.98" y2="845.18"/>
          <line class="cls-9" x1="685.93" y1="774.39" x2="880.48" y2="845.33"/>
          <line class="cls-9" x1="572.82" y1="774.39" x2="766.5" y2="845.48"/>
          <line class="cls-9" x1="459.23" y1="774.39" x2="652.04" y2="845.63"/>
          <line class="cls-9" x1="345.16" y1="774.39" x2="537.1" y2="845.78"/>
          <line class="cls-9" x1="230.62" y1="774.39" x2="421.66" y2="845.93"/>
          <line class="cls-9" x1="115.59" y1="774.39" x2="305.73" y2="846.09"/>
        </g>
      </g>
      <path class="cls-26" d="M1227.16,429.86c0-4.11-.42-8.12-1.2-11.99l20.06-11.58-18.79-32.55-20,11.55c-6.05-5.42-13.22-9.62-21.11-12.23v-23.05h-37.58v23.05c-3.51,1.16-6.88,2.63-10.07,4.39-.38.21-.75.43-1.13.65-.37.22-.75.43-1.12.65-3.12,1.88-6.07,4.07-8.83,6.52l-19.97-11.53-18.79,32.55,19.97,11.53c-.75,3.62-1.16,7.27-1.23,10.91-.01.44,0,.88,0,1.32,0,.43,0,.85,0,1.28.07,3.64.48,7.29,1.23,10.91l-19.97,11.53,18.79,32.55,19.97-11.53c6.21,5.53,13.43,9.64,21.15,12.17v23.1h37.58v-23.17c3.75-1.25,7.43-2.9,10.99-4.95,3.64-2.1,6.98-4.54,10-7.24l20.13,11.62,18.79-32.55-20.13-11.62c.83-3.96,1.27-8.07,1.27-12.28ZM1191.93,456.35c-.16.15-.33.3-.49.45-.65.59-1.32,1.14-2,1.67-.32.25-.65.49-.98.73-.56.41-1.13.8-1.71,1.17-.46.3-.93.58-1.41.86-.48.28-.96.54-1.45.79-.61.32-1.24.62-1.87.9-.37.17-.74.33-1.12.48-.8.33-1.62.63-2.45.9-.21.07-.42.14-.63.2-3.32,1.01-6.84,1.56-10.49,1.56-19.99,0-36.2-16.21-36.2-36.19,0-4.9.98-9.56,2.74-13.82.08-.2.17-.4.26-.6.33-.75.69-1.48,1.06-2.2.24-.46.48-.91.74-1.35.26-.45.53-.89.8-1.32.44-.68.89-1.36,1.37-2.02.13-.18.26-.35.39-.52,2.81-3.65,6.35-6.84,10.59-9.28,17.31-9.99,39.45-4.06,49.44,13.25,1.83,3.16,3.11,6.49,3.9,9.87.05.21.09.43.14.64.18.86.33,1.72.45,2.58.05.4.1.8.14,1.2.07.69.12,1.38.16,2.08.02.55.04,1.1.04,1.65,0,.55-.01,1.11-.04,1.66-.03.69-.08,1.38-.15,2.06-.04.41-.09.81-.14,1.21-.12.86-.26,1.71-.45,2.57-.05.22-.09.44-.14.65-.79,3.38-2.07,6.7-3.9,9.87-1.83,3.16-4.06,5.93-6.6,8.31Z"/>
      <g>
        <rect class="cls-33" x="312.88" y="217.71" width="619.11" height="422.6" rx="23.25" ry="23.25" transform="translate(1244.87 858.02) rotate(180)"/>
        <g>
          <polygon class="cls-33" points="929.37 621.71 614.55 621.71 299.74 621.71 254.72 809.44 614.55 809.44 974.39 809.44 929.37 621.71"/>
          <path class="cls-36" d="M298.5,676.39h42.02c1.76,0,3.08,1.46,2.75,3.04l-4.07,19.55c-.25,1.21-1.41,2.08-2.75,2.08h-42.74c-1.79,0-3.13-1.52-2.73-3.12l4.79-19.55c.29-1.17,1.42-2,2.73-2Z"/>
          <polygon class="cls-36" points="359.79 676.39 391.56 676.39 387.33 701.06 354.96 701.06 359.79 676.39"/>
          <polygon class="cls-36" points="407.44 676.39 439.21 676.39 435.89 701.06 403.51 701.09 407.44 676.39"/>
          <polygon class="cls-36" points="455.09 676.39 486.86 676.39 484.44 701.06 452.07 701.06 455.09 676.39"/>
          <polygon class="cls-36" points="502.74 676.39 534.51 676.39 533 701.06 500.63 701.06 502.74 676.39"/>
          <polygon class="cls-36" points="550.39 676.39 582.16 676.39 581.56 701.06 549.18 701.09 550.39 676.39"/>
          <polygon class="cls-36" points="931.71 676.39 884.06 676.39 889.19 701.06 937.75 701.06 931.71 676.39"/>
          <polygon class="cls-36" points="868.17 676.39 836.41 676.39 840.63 701.06 873.01 701.06 868.17 676.39"/>
          <polygon class="cls-36" points="820.52 676.39 788.76 676.39 792.08 701.06 824.45 701.09 820.52 676.39"/>
          <polygon class="cls-36" points="772.87 676.39 741.1 676.39 743.52 701.06 775.89 701.06 772.87 676.39"/>
          <polygon class="cls-36" points="725.22 676.39 693.45 676.39 694.96 701.06 727.33 701.06 725.22 676.39"/>
          <polygon class="cls-36" points="677.57 676.39 645.8 676.39 646.41 701.06 678.78 701.09 677.57 676.39"/>
          <polygon class="cls-36" points="598.04 676.39 629.81 676.39 630.34 701.06 598.04 701.06 598.04 676.39"/>
          <polygon class="cls-36" points="284.52 719.43 350.9 719.43 347.12 744.88 279.48 744.88 284.52 719.43"/>
          <polygon class="cls-36" points="942.07 719.43 860.02 719.43 864.69 744.88 948.3 744.88 942.07 719.43"/>
          <polygon class="cls-36" points="843.61 719.43 810.79 719.43 814.53 744.88 847.97 744.88 843.61 719.43"/>
          <polygon class="cls-36" points="794.38 719.43 761.55 719.43 764.36 744.88 797.8 744.88 794.38 719.43"/>
          <polygon class="cls-36" points="745.14 719.43 712.32 719.43 714.19 744.88 747.64 744.88 745.14 719.43"/>
          <polygon class="cls-36" points="695.91 719.43 663.09 719.43 664.02 744.88 697.47 744.88 695.91 719.43"/>
          <polygon class="cls-36" points="274.61 764.78 342.47 764.78 337.52 790.06 268.42 790.06 274.61 764.78"/>
          <polygon class="cls-36" points="359.44 764.78 393.37 764.78 389.35 790.06 354.8 790.06 359.44 764.78"/>
          <polygon class="cls-36" points="410.34 764.78 444.27 764.78 664.81 764.78 665.76 790.06 406.62 790.06 410.34 764.78"/>
          <polygon class="cls-36" points="681.79 764.78 715.73 764.78 717.58 790.06 683.03 790.06 681.79 764.78"/>
          <polygon class="cls-36" points="732.69 764.78 766.62 764.78 769.41 790.06 734.86 790.06 732.69 764.78"/>
          <polygon class="cls-36" points="783.59 764.78 817.52 764.78 821.24 790.06 786.68 790.06 783.59 764.78"/>
          <polygon class="cls-36" points="834.49 764.78 868.42 764.78 873.06 790.06 838.51 790.06 834.49 764.78"/>
          <polygon class="cls-36" points="885.39 764.78 953.25 764.78 959.44 790.06 890.34 790.06 885.39 764.78"/>
          <polygon class="cls-36" points="646.75 719.43 614.19 719.43 614.19 744.88 647.37 744.88 646.75 719.43"/>
          <polygon class="cls-36" points="597.52 719.43 564.7 719.43 563.76 744.88 597.21 744.88 597.52 719.43"/>
          <polygon class="cls-36" points="548.29 719.43 515.46 719.43 513.59 744.88 547.04 744.88 548.29 719.43"/>
          <polygon class="cls-36" points="499.05 719.43 466.23 719.43 463.43 744.88 496.87 744.88 499.05 719.43"/>
          <polygon class="cls-36" points="449.82 719.43 417 719.43 413.26 744.88 446.71 744.88 449.82 719.43"/>
          <polygon class="cls-36" points="400.59 719.43 367.77 719.43 363.09 744.88 396.54 744.88 400.59 719.43"/>
          <polygon class="cls-36" points="300.05 660.89 305.44 638.87 320.87 638.87 315.83 660.89 300.05 660.89"/>
          <polygon class="cls-36" points="336.29 638.87 367.14 638.87 362.83 660.89 331.44 660.89 336.29 638.87"/>
          <polygon class="cls-36" points="382.56 638.87 413.41 638.87 409.91 660.89 378.52 660.89 382.56 638.87"/>
          <polygon class="cls-36" points="428.84 638.87 459.69 638.87 456.99 660.89 425.6 660.89 428.84 638.87"/>
          <polygon class="cls-36" points="475.11 638.87 505.96 638.87 504.07 660.89 472.68 660.89 475.11 638.87"/>
          <polygon class="cls-36" points="521.38 638.87 552.23 638.87 551.15 660.89 519.76 660.89 521.38 638.87"/>
          <polygon class="cls-36" points="567.66 638.87 598.5 638.87 598.24 660.89 566.85 660.89 567.66 638.87"/>
          <polygon class="cls-36" points="613.93 638.87 644.78 638.87 645.32 660.89 613.93 660.89 613.93 638.87"/>
          <polygon class="cls-36" points="660.2 638.87 691.05 638.87 692.4 660.89 661.01 660.89 660.2 638.87"/>
          <polygon class="cls-36" points="706.47 638.87 737.32 638.87 739.48 660.89 708.09 660.89 706.47 638.87"/>
          <polygon class="cls-36" points="752.75 638.87 783.59 638.87 786.56 660.89 755.17 660.89 752.75 638.87"/>
          <polygon class="cls-36" points="799.02 638.87 829.87 638.87 833.64 660.89 802.25 660.89 799.02 638.87"/>
          <polygon class="cls-36" points="845.29 638.87 876.14 638.87 880.72 660.89 849.34 660.89 845.29 638.87"/>
          <polygon class="cls-36" points="891.56 638.87 922.41 638.87 927.81 660.89 896.42 660.89 891.56 638.87"/>
          <rect class="cls-38" x="247.51" y="808.52" width="727.45" height="10.74" rx="2.31" ry="2.31"/>
        </g>
        <g>
          <path class="cls-1" d="M353.92,232.43h538.69c16.79,0,30.42,13.63,30.42,30.42v325.71c0,16.79-13.63,30.42-30.42,30.42H353.92c-16.79,0-30.42-13.63-30.42-30.42v-325.71c0-16.79,13.63-30.42,30.42-30.42Z"/>
          <rect class="cls-43" x="353.92" y="262.85" width="538.68" height="325.71" rx="25.11" ry="25.11"/>
          <g>
            <rect class="cls-18" x="411.35" y="306.37" width="56.03" height="7.58" rx="3.79" ry="3.79"/>
            <rect class="cls-18" x="485.12" y="306.37" width="114.67" height="7.58" rx="3.79" ry="3.79"/>
            <rect class="cls-11" x="435.14" y="337.04" width="56.03" height="7.58" rx="3.79" ry="3.79"/>
            <rect class="cls-18" x="508.91" y="337.04" width="327.65" height="7.58" rx="3.79" ry="3.79"/>
            <rect class="cls-11" x="435.14" y="365.51" width="56.03" height="7.58" rx="3.79" ry="3.79"/>
            <rect class="cls-18" x="508.91" y="365.51" width="327.65" height="7.58" rx="3.79" ry="3.79"/>
            <rect class="cls-11" x="435.14" y="393.98" width="56.03" height="7.58" rx="3.79" ry="3.79"/>
            <rect class="cls-18" x="508.91" y="393.98" width="327.65" height="7.58" rx="3.79" ry="3.79"/>
            <rect class="cls-11" x="435.14" y="422.44" width="56.03" height="7.58" rx="3.79" ry="3.79"/>
            <rect class="cls-18" x="411.35" y="452.57" width="56.03" height="7.58" rx="3.79" ry="3.79"/>
            <rect class="cls-18" x="485.12" y="452.57" width="114.67" height="7.58" rx="3.79" ry="3.79"/>
            <rect class="cls-11" x="508.91" y="483.24" width="211.28" height="7.58" rx="3.79" ry="3.79"/>
            <rect class="cls-11" x="508.91" y="511.71" width="211.28" height="7.58" rx="3.79" ry="3.79"/>
            <rect class="cls-23" x="472.57" y="511.71" width="18.6" height="7.58" rx="3.79" ry="3.79"/>
            <rect class="cls-23" x="435.14" y="540.18" width="56.03" height="7.58" rx="3.79" ry="3.79"/>
            <rect class="cls-11" x="508.91" y="540.18" width="211.28" height="7.58" rx="3.79" ry="3.79"/>
            <rect class="cls-11" x="735.39" y="483.24" width="103.54" height="7.58" rx="3.79" ry="3.79"/>
            <rect class="cls-11" x="735.39" y="511.71" width="103.54" height="7.58" rx="3.79" ry="3.79"/>
            <rect class="cls-11" x="735.39" y="540.18" width="103.54" height="7.58" rx="3.79" ry="3.79"/>
            <rect class="cls-18" x="508.91" y="422.44" width="327.65" height="7.58" rx="3.79" ry="3.79"/>
          </g>
        </g>
        <g>
          <rect class="cls-3" x="61.98" y="424.81" width="178.28" height="178.28" rx="23.14" ry="23.14"/>
          <rect class="cls-39" x="51.46" y="414.29" width="178.28" height="178.28" rx="23.14" ry="23.14"/>
          <path class="cls-12" d="M174.85,503.34c0-2.35-.24-4.65-.69-6.87l11.48-6.63-10.76-18.63-11.45,6.61c-3.47-3.1-7.57-5.51-12.09-7v-13.2h-21.51v13.2c-2.01.66-3.94,1.5-5.76,2.51-.22.12-.43.25-.64.37-.21.12-.43.24-.64.37-1.78,1.08-3.48,2.33-5.06,3.73l-11.43-6.6-10.76,18.63,11.43,6.6c-.43,2.07-.67,4.16-.71,6.24,0,.25,0,.5,0,.76,0,.24,0,.49,0,.73.04,2.08.28,4.17.71,6.25l-11.43,6.6,10.76,18.63,11.43-6.6c3.55,3.17,7.69,5.52,12.11,6.97v13.22h21.51v-13.26c2.15-.72,4.25-1.66,6.29-2.84,2.09-1.2,4-2.6,5.72-4.14l11.52,6.65,10.76-18.63-11.52-6.65c.47-2.27.72-4.62.72-7.03ZM154.68,518.5c-.09.09-.19.17-.28.26-.37.34-.75.65-1.15.96-.18.14-.37.28-.56.42-.32.23-.65.46-.98.67-.27.17-.53.33-.81.49-.27.16-.55.31-.83.45-.35.18-.71.35-1.07.52-.21.1-.42.19-.64.27-.46.19-.93.36-1.4.51-.12.04-.24.08-.36.12-1.9.58-3.92.89-6.01.89-11.44,0-20.72-9.28-20.72-20.72,0-2.8.56-5.47,1.57-7.91.05-.11.1-.23.15-.34.19-.43.39-.85.61-1.26.14-.26.28-.52.42-.78.15-.26.3-.51.46-.76.25-.39.51-.78.79-1.15.07-.1.15-.2.22-.3,1.61-2.09,3.64-3.91,6.06-5.31,9.91-5.72,22.58-2.33,28.3,7.58,1.05,1.81,1.78,3.71,2.23,5.65.03.12.05.25.08.37.11.49.19.98.26,1.47.03.23.06.46.08.69.04.4.07.79.09,1.19.01.31.02.63.02.94,0,.32,0,.63-.02.95-.02.39-.05.79-.09,1.18-.02.23-.05.46-.08.69-.07.49-.15.98-.26,1.47-.03.13-.05.25-.08.37-.45,1.93-1.19,3.84-2.23,5.65-1.05,1.81-2.33,3.4-3.78,4.76Z"/>
        </g>
        <g>
          <path class="cls-6" d="M1014.14,512.64h234.43c16.79,0,30.42,13.63,30.42,30.42v143.16c0,16.79-13.63,30.42-30.42,30.42h-234.43c-16.79,0-30.42-13.63-30.42-30.42v-143.16c0-16.79,13.63-30.42,30.42-30.42Z"/>
          <path class="cls-19" d="M1000.31,498.8h234.43c16.79,0,30.42,13.63,30.42,30.42v143.16c0,16.79-13.63,30.42-30.42,30.42h-234.43c-16.79,0-30.42-13.63-30.42-30.42v-143.16c0-16.79,13.63-30.42,30.42-30.42Z"/>
          <g class="cls-17">
            <polygon class="cls-11" points="1074.82 552.7 1019.25 600.8 1074.82 648.91 1074.82 622.84 1049.36 600.8 1074.82 578.77 1074.82 552.7"/>
            <polygon class="cls-11" points="1160.23 648.91 1215.8 600.8 1160.23 552.7 1160.23 578.77 1185.69 600.8 1160.23 622.84 1160.23 648.91"/>
            <polygon class="cls-11" points="1112.15 664.61 1088.62 664.61 1122.9 537 1146.43 537 1112.15 664.61"/>
          </g>
        </g>
        <g>
          <rect class="cls-4" x="994.74" y="97.99" width="187.27" height="187.27" rx="17.49" ry="17.49"/>
          <rect class="cls-24" x="980.91" y="84.15" width="187.27" height="187.27" rx="17.49" ry="17.49"/>
          <g>
            <path class="cls-11" d="M1036.52,240.79c-2.49-.59-4.9-1.36-6.9-3.05-3.79-3.2-5.75-7.24-5.1-12.23.54-4.1,4.01-6.98,8.14-7,8.26-.03,16.51,0,24.77,0,19.15,0,38.3.18,57.44-.1,6.53-.1,11.89,4.9,9.04,12.92-1.83,5.15-5.52,8.25-10.92,9.26-.19.03-.36.14-.55.21h-75.92Z"/>
            <path class="cls-11" d="M1047.7,212.89h-11.82c0-1.61-.07-3.19.01-4.76.52-10.2,1.06-20.4,1.6-30.6.28-5.34.45-10.69.88-16.02.72-8.85,7.49-15.17,16.37-15.48.95-.03,1.91,0,2.96,0v-5.58c-1.6,0-3.22,0-4.83,0-4,0-6.29-2.23-6.23-6.21.04-2.58-.07-5.23.45-7.73,1.01-4.84,5.45-8.29,10.41-8.32,11.33-.06,22.67-.07,34,0,5.9.04,10.69,4.88,10.86,10.76.06,1.99.05,3.99,0,5.99-.06,3.13-2.45,5.46-5.61,5.5-1.79.02-3.58,0-5.46,0v5.48c1.47.07,2.89.08,4.31.21,8.34.78,14.74,7.66,15.14,16,.64,13.43,1.39,26.86,2.09,40.29.17,3.19.34,6.38.5,9.56.01.27,0,.54,0,.88h-12.19c-.15-2-.3-4.01-.43-6.02-.79-11.98-1.56-23.97-2.35-35.95-.12-1.75-.14-3.53-.53-5.22-1.15-5.01-5.52-8.45-10.67-8.47-8.46-.03-16.92-.04-25.38,0-5.86.03-10.55,4.56-10.94,10.39-1,14.85-2.03,29.69-3.06,44.54-.02.23-.06.46-.1.74ZM1063.42,145.92h22.14v-5.41h-22.14v5.41Z"/>
            <path class="cls-11" d="M1095.45,212.88h-42.07c.07-1.35.13-2.64.22-3.94.62-9.11,1.24-18.23,1.86-27.34.31-4.62.61-9.23.96-13.85.21-2.74,2.53-4.96,5.38-4.98,8.46-.06,16.92-.06,25.38,0,3.01.02,5.25,2.28,5.45,5.3.72,10.91,1.42,21.81,2.12,32.72.23,3.62.48,7.24.71,10.87.02.39,0,.77,0,1.23Z"/>
          </g>
        </g>
        <g>
          <path class="cls-5" d="M65.98,110.57h173.58c16.79,0,30.42,13.63,30.42,30.42v173.58c0,16.79-13.63,30.42-30.42,30.42H65.98c-16.79,0-30.42-13.63-30.42-30.42v-173.58c0-16.79,13.63-30.42,30.42-30.42Z"/>
          <path class="cls-2" d="M52.15,96.73h173.58c16.79,0,30.42,13.63,30.42,30.42v173.58c0,16.79-13.63,30.42-30.42,30.42H52.15c-16.79,0-30.42-13.63-30.42-30.42V127.16c0-16.79,13.63-30.42,30.42-30.42Z"/>
          <rect class="cls-43" x="49.42" y="124.43" width="179.04" height="179.04" rx="26.03" ry="26.03"/>
          <g>
            <rect class="cls-11" x="79.7" y="159.28" width="16.48" height="7.58" rx="3.79" ry="3.79"/>
            <rect class="cls-23" x="104.8" y="159.28" width="84.25" height="7.58" rx="3.79" ry="3.79"/>
            <rect class="cls-11" x="79.7" y="184.71" width="25.61" height="7.58" rx="3.79" ry="3.79"/>
            <rect class="cls-23" x="113.93" y="184.71" width="84.25" height="7.58" rx="3.79" ry="3.79"/>
            <rect class="cls-11" x="79.7" y="232.51" width="16.48" height="7.58" rx="3.79" ry="3.79"/>
            <rect class="cls-23" x="104.8" y="232.51" width="84.25" height="7.58" rx="3.79" ry="3.79"/>
            <rect class="cls-11" x="79.7" y="257.94" width="25.61" height="7.58" rx="3.79" ry="3.79"/>
            <rect class="cls-23" x="113.93" y="257.94" width="84.25" height="7.58" rx="3.79" ry="3.79"/>
            <rect class="cls-11" x="64.49" y="210.13" width="25.61" height="7.58" rx="3.79" ry="3.79"/>
            <rect class="cls-23" x="98.71" y="210.13" width="114.67" height="7.58" rx="3.79" ry="3.79"/>
          </g>
        </g>
      </g>
      <g>
        <ellipse class="cls-8" cx="291.58" cy="827.15" rx="107.41" ry="12.1"/>
        <g>
          <g>
            <rect class="cls-16" x="208.89" y="542.5" width="165.37" height="283.82" rx="18.36" ry="18.36"/>
            <rect class="cls-7" x="208.89" y="562.27" width="165.37" height="243.15"/>
            <rect class="cls-30" x="232.04" y="624.87" width="119.08" height="119.08" rx="18.36" ry="18.36"/>
            <path class="cls-11" d="M285.86,652.57c2.34,0,4.69,0,7.03,0,.19.03.39.07.58.09,3.59.33,7.18.56,10.75,1,3.11.38,6.17,1.08,9.07,2.36,1.92.85,3.26,2.16,3.91,4.22.86,2.74,1.22,5.56,1.55,8.39.05.39.16.57.57.66,1.59.37,2.61,1.58,2.64,3.22.04,2.28.03,4.56,0,6.83-.02,1.33-.69,2.33-1.87,2.91-.45.22-.52.47-.52.91.04,5.57.08,11.15.08,16.72,0,3.65-.07,7.3-.11,10.95-.01.96-.37,1.52-1.3,1.75-.65.16-1.35.15-2.03.2-.34.02-.68,0-1.07,0,0,1.43,0,2.78,0,4.13,0,1.03-.3,1.93-1.13,2.57-1.56,1.2-3.28,1.36-5.06.6-1.65-.7-2.19-2.04-2.1-3.76.06-1.16.01-2.33.01-3.54h-30.7c0,1.42.06,2.81-.03,4.19-.04.65-.22,1.38-.58,1.91-.95,1.45-3.19,1.99-5.1,1.38-1.79-.58-2.55-1.69-2.55-3.76,0-1.23,0-2.46,0-3.73-.3-.01-.52-.04-.73-.03-.75,0-1.5.02-2.25.05-1.34.04-2.31-1-2.43-2.7-.15-2.07-.34-4.15-.36-6.22-.07-6.94-.08-13.89-.09-20.83,0-.44-.13-.65-.51-.87-1.07-.61-1.69-1.56-1.71-2.81-.03-2.3-.04-4.6,0-6.9.03-1.53,1.02-2.77,2.48-3.15.43-.11.53-.3.6-.7.47-2.87.92-5.75,1.49-8.61.36-1.82,1.43-3.22,3.15-4.03.8-.38,1.6-.74,2.44-1.02,3.99-1.34,8.14-1.77,12.31-2.12,1.19-.1,2.37-.18,3.56-.27ZM269.75,666.17v21.92h41.8v-21.92h-41.8ZM306.16,658.88h-30.97v4.63h30.94c.01-.2.03-.35.03-.51,0-1.35,0-2.69,0-4.12ZM275.6,698.61c-2.41,0-4.38,1.94-4.41,4.36-.03,2.38,1.95,4.4,4.36,4.42,2.43.02,4.46-1.98,4.45-4.4,0-2.41-1.98-4.38-4.4-4.38ZM305.97,707.4c2.41,0,4.39-1.94,4.43-4.36.04-2.38-1.95-4.4-4.36-4.42-2.44-.03-4.45,1.96-4.45,4.39,0,2.4,1.98,4.39,4.39,4.39Z"/>
          </g>
          <path class="cls-20" d="M312.3,571.9h-41.46c-6.39,0-11.57-5.18-11.57-11.57h64.6c0,6.39-5.18,11.57-11.57,11.57Z"/>
          <path class="cls-13" d="M306.53,562.27h-29.91c-1.06,0-1.93-.86-1.93-1.93h0c0-1.06.86-1.93,1.93-1.93h29.91c1.06,0,1.93.86,1.93,1.93h0c0,1.06-.86,1.93-1.93,1.93Z"/>
        </g>
      </g>
      <path class="cls-26" d="M445.65,102.81c0-5.29-.53-10.45-1.55-15.44l25.83-14.91-24.19-41.9-25.75,14.87c-7.79-6.98-17.02-12.39-27.18-15.75V0h-48.38v29.68c-4.52,1.49-8.85,3.38-12.96,5.65-.49.27-.97.56-1.45.83-.48.28-.97.55-1.45.84-4.01,2.42-7.82,5.23-11.37,8.4l-25.7-14.84-24.19,41.9,25.7,14.84c-.97,4.66-1.5,9.36-1.59,14.04-.01.57,0,1.14,0,1.7,0,.55-.01,1.1,0,1.64.09,4.69.62,9.39,1.59,14.05l-25.7,14.84,24.19,41.9,25.7-14.84c7.99,7.12,17.28,12.41,27.23,15.66v29.73h48.38v-29.82c4.83-1.62,9.57-3.73,14.15-6.38,4.69-2.71,8.99-5.84,12.87-9.31l25.91,14.96,24.19-41.9-25.91-14.96c1.06-5.1,1.63-10.39,1.63-15.8ZM400.31,136.9c-.21.19-.42.38-.63.57-.83.75-1.7,1.47-2.58,2.15-.41.32-.83.63-1.26.94-.72.52-1.46,1.02-2.21,1.5-.6.38-1.2.75-1.82,1.11-.61.36-1.24.7-1.86,1.02-.79.41-1.59.8-2.41,1.16-.48.21-.96.42-1.44.62-1.04.42-2.09.81-3.16,1.16-.27.09-.54.18-.81.26-4.28,1.29-8.81,2.01-13.51,2.01-25.73,0-46.59-20.86-46.59-46.59,0-6.3,1.27-12.3,3.53-17.79.11-.26.22-.51.33-.77.42-.96.88-1.9,1.36-2.83.31-.59.62-1.17.96-1.74.33-.58.68-1.14,1.03-1.7.56-.88,1.14-1.75,1.77-2.6.16-.23.33-.45.5-.67,3.61-4.7,8.18-8.8,13.64-11.95,22.28-12.87,50.78-5.23,63.65,17.05,2.35,4.07,4,8.35,5.02,12.71.06.28.12.55.18.83.24,1.1.42,2.21.58,3.32.07.52.13,1.03.18,1.55.09.89.16,1.78.2,2.67.03.71.05,1.41.05,2.12,0,.71-.02,1.42-.05,2.13-.04.89-.11,1.77-.2,2.66-.05.52-.12,1.04-.19,1.56-.15,1.1-.34,2.2-.58,3.3-.06.28-.12.56-.18.84-1.02,4.35-2.67,8.63-5.02,12.7-2.35,4.07-5.23,7.64-8.49,10.7Z"/>
      <path class="cls-26" d="M911.08,149.56c-.65-1.67-1.44-3.23-2.37-4.68l6.32-7.85-12.74-10.25-6.3,7.83c-3.31-1.25-6.87-1.83-10.49-1.65l-3.62-9.35-15.25,5.9,3.62,9.35c-1.24,1.02-2.38,2.15-3.39,3.36-.12.14-.24.29-.36.44-.12.15-.24.29-.35.44-.97,1.25-1.83,2.6-2.56,4.03l-9.91-1.54-2.51,16.16,9.91,1.54c.26,1.59.67,3.13,1.21,4.62.06.18.14.36.21.54.07.17.13.35.2.52.6,1.47,1.34,2.88,2.21,4.23l-6.29,7.81,12.74,10.25,6.29-7.81c3.39,1.27,6.96,1.8,10.49,1.61l3.63,9.37,15.25-5.9-3.64-9.4c1.32-1.1,2.56-2.34,3.68-3.74,1.15-1.43,2.12-2.94,2.92-4.51l9.99,1.55,2.51-16.16-9.99-1.55c-.29-1.74-.75-3.47-1.42-5.18ZM900.95,165.84c-.04.09-.09.17-.13.26-.17.34-.36.67-.55.99-.09.15-.19.3-.28.45-.16.25-.33.5-.51.74-.14.19-.29.38-.44.57-.15.19-.3.37-.46.55-.2.23-.4.45-.62.66-.12.13-.25.25-.38.37-.28.26-.56.51-.85.75-.07.06-.15.12-.22.18-1.19.93-2.53,1.71-4.01,2.28-8.11,3.14-17.23-.89-20.37-9-.77-1.99-1.1-4.03-1.06-6.04,0-.09,0-.19.01-.28.01-.35.05-.71.08-1.06.03-.22.05-.44.09-.67.03-.22.07-.44.12-.66.07-.35.15-.69.24-1.03.02-.09.05-.18.08-.27.56-1.92,1.5-3.77,2.84-5.43,5.45-6.77,15.36-7.85,22.14-2.39,1.24,1,2.28,2.14,3.13,3.39.05.08.11.16.16.24.21.32.4.64.59.97.09.15.17.31.25.47.14.27.27.54.39.82.1.22.19.44.27.66.09.22.17.45.25.68.09.28.18.57.26.86.05.17.09.34.13.52.09.37.16.74.22,1.11.02.1.03.19.04.29.21,1.5.21,3.05-.03,4.61-.24,1.57-.72,3.05-1.37,4.41Z"/>
      <g>
        <path class="cls-27" d="M1247.14,642.23s11.04,18.71,15.7,21.77c6.33,4.15,2.36,8.34-.64,8.35-3.01,0-18.35,1.1-21.73-2.74-3.38-3.84-5.06-15.34-8.2-18.35-3.15-3.01-6.39-14.96,1.53-17.87,7.01-2.57,13.35,8.83,13.35,8.83Z"/>
        <path class="cls-42" d="M1242.89,631.75c1.08,3.49,2.36,6.11,3.29,7.8,3,5.42,9.34,13.92,10.21,16.8.12.4.3,1.23.78,2.8.37,1.19.46,1.35.38,1.55-.59,1.62-5.26,1.38-8.38.14-3.89-1.54-13.69-17.26-15.09-20.12-1.68-3.42-.3-7.33-.3-7.33h0s-.39-.92-1.11-2.63c3.4.33,6.81.66,10.21.99Z"/>
        <polygon class="cls-14" points="1229.55 645.79 1232.46 668.26 1234.01 668.32 1233.53 652.16 1229.55 645.79"/>
        <path class="cls-27" d="M1137.65,642.23s11.04,18.71,15.7,21.77c6.33,4.15,2.36,8.34-.64,8.35-3.01,0-18.35,1.1-21.73-2.74-3.38-3.84-5.06-15.34-8.2-18.35-3.15-3.01-6.5-15.27,1.53-17.87,7.04-2.28,13.35,8.83,13.35,8.83Z"/>
        <path class="cls-42" d="M1139.13,630.87c-1.57,2.08-3.29,5.12-2.73,8.38.24,1.41.75,1.97,3.06,5.23,7.93,11.21,2.97,6.08,8.23,14.66.21.35.59,1,.38,1.55-.59,1.62-5.26,1.38-8.38.14-3.89-1.54-13.69-17.26-15.09-20.12-1.68-3.42-.3-7.33-.3-7.33,4.94-.84,9.89-1.68,14.83-2.52Z"/>
        <polygon class="cls-14" points="1120.06 645.79 1122.98 668.26 1124.53 668.32 1124.04 652.16 1120.06 645.79"/>
        <path class="cls-32" d="M1092.53,471.89l99.91,45.52c1.6,3.23,3.95,8.35,6.1,14.86,3.75,11.36,4.68,20.25,5.49,27.67.72,6.59,5.69,50.68,13.67,62.31,4.27,6.22,10.05,10.16,10.05,10.16,1.16.79,2.17,1.38,2.85,1.76,1.72.52,13.62,4.03,15.4.78.14-.26.22-.57.22-.95-5.85-18.77-12.96-96.11-15.5-127.2-.54-6.59-.87-11.1-.94-12.54-.05-.98-1.12-2.27-2.97-3.77-13.71-11.12-70.12-34.13-70.12-34.13-42.36-1.07-64.15,15.54-64.15,15.54Z"/>
        <path class="cls-32" d="M1073.69,491.44c3.09,27.01,41.64,23.91,41.64,23.91h46.72c-1.47,3.81-3.75,9.58-6.73,16.53-7.63,17.82-14.22,30.32-15.87,33.55-6.07,11.91-13.27,31.99-17.79,67.69.94.56,2.43,1.28,4.31,1.4,1.6.11,2.44-.29,3.62-.5,4.86-.87,7.02,2.83,11.5,2.06.98-.17,2.44-.61,4.12-1.98,3.38-5.95,26.57-46.9,46.5-88,0,0,6.19-12.76,9.55-41.77.21-1.78,1.67-6.4-1.42-8.99-1.62-1.36-5.34-3.92-10.31-7.05-14.63-9.23-40.05-23.44-54.21-26.62-18.97-4.26-48.96-12.25-48.96-12.25,0,0-15.77,15-12.68,42Z"/>
        <path class="cls-40" d="M1105.49,283.43s-6.99-13.28-3.58-27.41c3.41-14.14,16.53-28.23,35.74-21.76,11.94,4.02,25.29,13.39,27.14,25.97.78,5.33-.34,11.89-.53,12.95-.88,4.93-1.91,6.25-2.85,9.97-1.49,5.92-.3,8.33,1.22,22.98,1.72,16.54.44,15.76,1.97,18.73,3.53,6.88,9.75,11.17,9.16,16.78-.84,8.06-37.27-23.49-37.27-23.49,0,0-19.84-39.87-30.99-34.71Z"/>
        <path class="cls-34" d="M1164.04,453.12s-2.89,14.06-77.51-3.69c0,0,25.01-8.31,77.51,3.69Z"/>
        <path class="cls-29" d="M1085.68,453.37c-1.16,2.21-2.31,4.42-3.47,6.63,27.28.79,54.56,1.59,81.83,2.38-4.31-14.45-2.91-34.01-2.16-48.87.92-18.14,10.94-30.75,9.87-49.1,5.4.87,6.33,1.04,11.73,1.86-8.26-23.55-11.09-35.22-36.77-44.28-8.36-2.95-13.85-3.54-22.9-2.79-29.73,2.45-38.7,2.8-53.31,29.75,22.86,3.64,19.1,11.85,26.03,34.59,3.38,11.09,6.91,23.47,5.1,35.16-1.78,11.51-15.96,24.15-15.96,34.65Z"/>
        <path class="cls-32" d="M1138.8,346.05c1.42,14.78,1.83,32.81-.55,53.11-1.41,12.03-3.57,22.93-6.02,32.55,1.9,2.36,3.79,4.72,5.69,7.09,4.08-2.63,8.15-5.27,12.23-7.9.26-17.83-.45-37.41-2.73-58.4-1.07-9.83-2.4-19.23-3.93-28.2-1.56.59-3.13,1.18-4.69,1.77Z"/>
        <path class="cls-28" d="M1145.74,337.14c-3.67-.25-7.34-.5-11.01-.75,1.04,3.34,2.09,6.67,3.13,10.01,1.24,1.65,2.48,3.29,3.72,4.94.84-1.47,1.68-2.94,2.52-4.42.55-3.26,1.09-6.52,1.64-9.78Z"/>
        <path class="cls-10" d="M1120.14,310.05c2.47.11,4.94.22,7.4.33.08,2.21.15,4.43.23,6.64-1.87-.35-3.74-.7-5.61-1.04-.67-1.98-1.35-3.95-2.02-5.93Z"/>
        <path class="cls-42" d="M1133.13,327.71c-12.17-2.3-9.58-9.07-9.58-9.07,0,0,.57-3.82.79-8.65.05-1.24.09-2.54.08-3.86,0-2.01-.1-4.06-.33-5.99-1-8.17,22.09-3.29,22.09-3.29,0,0-1.33,16.53,1.85,21.48,3.18,4.95-2.72,11.67-14.89,9.38Z"/>
        <path class="cls-42" d="M1109.92,318.6c5.12,1.34,14.04,4.46,22.33,12.1,4.15,3.82,7.04,7.76,9.03,11,3.38-.5,5.23-1.97,6.09-2.8,4.18-4.04,4.49-12.11.17-19.68,0,0-11.85-5.94-37.62-.61Z"/>
        <path class="cls-42" d="M1110.59,250.38s-12.75,24.56-.1,47.83c12.64,23.27,37.48-10.13,39.09-14.05,1.61-3.92,10.13-26.08-6.82-32.82-16.94-6.74-28.56-7.63-32.17-.96Z"/>
        <path class="cls-40" d="M1114.82,259.1s-8.77,11.53-9.81,20.04c0,0-3.5-16.1,6.38-31.57,9.88-15.47,34.99-.73,38.36,5.45s13.22,11.63-3.34,38.19c0,0-29.79-20.69-31.59-32.1Z"/>
        <path class="cls-37" d="M1135.2,300.66s-2.21,4.84-10.86,9.33c.05-1.24.09-2.54.08-3.86,0,0,5.86-.71,10.78-5.47Z"/>
        <path class="cls-42" d="M1006.36,431.27s-6.06,2.7-8.93,1.47c-2.87-1.22-7.32-1.46-8.72-1.46-1.88,0-7.74-2.1-7.64.2.1,2.29,9.53,3.89,11.45,4.61,1.93.71-5.77,4.95-6.49,6.84-.72,1.88,7.97,14.24,12.88,10.72,4.9-3.52,7.56-10.55,8.56-10.99,1-.45,3.68-2.42,3.68-2.42l-4.78-8.95Z"/>
        <path class="cls-42" d="M986.96,441.82s-14.21,11.78-14.43,13.37c-.22,1.59.53,2.33,1.9,1.29,1.38-1.05,14.09-10.98,14.09-10.98,0,0-14.24,16.82-14.72,18.07-.28.73,1.08,2.25,1.88,1.76.8-.49,15.94-16.32,15.94-16.32,0,0-13.26,15.73-13.34,16.91-.06,1.03,1.53,2.14,2.6,1.04,1.07-1.1,14.27-14.97,14.27-14.97,0,0-8.88,12.08-8.33,13.14.33.65,1.46,2.01,3.64-1.18,2.19-3.19,8.19-10.15,8.19-10.15l-11.71-11.97Z"/>
        <path class="cls-32" d="M1157.18,515.36h-41.85s-38.55,3.09-41.64-23.91c-3.09-27.01,12.68-42,12.68-42,0,0,20.37,5.42,38.15,9.72,8.9-1.89,19.63-3.12,32.16-2.8,0,0,75.37,24.9,73.1,38.02,0,0-31.53-16.86-72.59,20.99Z"/>
        <polygon class="cls-41" points="1129.95 468.59 1209.73 467.42 1169.45 487.87 1129.95 468.59"/>
        <path class="cls-25" d="M1154.73,458.4s-17.95,6.95-39.95.67l-1.03-8.21,45.3,2.52-4.32,5.03Z"/>
        <polygon class="cls-35" points="1169.45 487.87 1129.95 472.57 1129.95 468.59 1172.57 483.97 1169.45 487.87"/>
        <g>
          <path class="cls-31" d="M1154.45,462.2c-.21,2.95,2.77,5.07,5.49,3.91l4.63-1.98c1.39-.59,2.2-2.06,1.96-3.56-1.93-12.07-6.07-59.04-.02-67.1,2.23-2.98,3.63-5.59,4.42-7.87,3.99,10.3,8.96,23.55,10.93,30.69l37.7,50.15,12.64,3.21c-15.77-38-28.44-58.13-28.44-58.13-2.47-6.62-9.54-26.68-15.8-44.54-3.96-11.27-7.59-21.67-9.54-27.26-.99-2.83-2.94-5.22-5.51-6.76-5.84-3.49-15.57-8.99-24.39-13.27-.03-.02-.07-.03-.11-.05-.28-.14-.56-.27-.85-.41,0,0-.01,0-.02,0,0,0,0,0,0,0,16.78,25.38,10.23,97.05,6.92,142.89,0,.03,0,.07,0,.1Z"/>
          <path class="cls-31" d="M1092.19,321.38c-5.38.83-18.7,13.76-25.77,26.82-8.08,14.9-16.29,31.87-22.46,37.44-11.33,10.27-43.04,46.54-44.54,45.66-.58-.34,8.7,10.83,9.88,11.35.59.26,52.11-44.39,57.07-51.19,4.69-6.45,17.24-33.52,21-32.92,0,0,0,0,.01.02,0,0,0,0,0,.01.28.61,4.85,10.51,9.17,24.98.07.24.14.48.21.72,2.98,10.09,2.71,21.04,1.09,33.35-1.22,9.29-8.15,24.48-12.34,31.88-.5.89-.37,2.58.17,3.87h0c.33.77.8,1.39,1.37,1.61l15.13,5.6,3.55,1.32c2.56.95,5.25.46,7.25-1,1.65-1.19,2.83-3.03,3.12-5.26,3.37-25.88,7.62-52.31,11.01-62.27,14.88-43.7-5.82-76.53-5.82-76.53,0,0-24.4,2.79-29.12,4.55Z"/>
          <path class="cls-29" d="M1118.6,311.59c.59-.51,1.17-1.02,1.76-1.54,1.67,3.4,4.34,7.8,8.56,12.08,2.04,2.06,4.07,3.72,5.93,5.05-.52.1-3.61.74-5.49,3.73-1.72,2.74-1.22,5.52-1.1,6.1-3.51-6.21-7.03-12.41-10.54-18.62.29-2.27.59-4.54.88-6.81Z"/>
        </g>
        <polygon class="cls-15" points="1169.45 487.87 1193.18 423.08 1269.68 424.33 1247.06 484.04 1169.45 487.87"/>
        <path class="cls-41" d="M1217.66,451.74c-2.33,4.67-1.63,9.75,1.57,11.35,3.2,1.6,7.69-.88,10.03-5.55,2.33-4.67,1.63-9.75-1.58-11.35-3.2-1.6-7.69.88-10.03,5.55Z"/>
        <path class="cls-40" d="M1133.71,272.4c2.76,3.18,6.07,8.05,6.9,14.4.48,3.62.04,6.94-4.41,19.8-6.02,17.4-8.52,21.15-6.51,26.31,1.24,3.19,4.15,6.12,9.73,8.47,22.11,9.31,29.15-6.08,23.51-14.55-5.64-8.47-9.64-15.34-10.12-27.42-.48-12.08-4.45-30.91-19.09-27.01Z"/>
      </g>
    </g>
  </g>
</svg>