<?xml version="1.0" encoding="UTF-8"?>
<svg xmlns="http://www.w3.org/2000/svg" xmlns:xlink="http://www.w3.org/1999/xlink" viewBox="0 0 1331.2 847.67">
  <defs>
    <style>
      .cls-1 {
        fill: url(#Degradado_sin_nombre_152-3);
      }

      .cls-2 {
        fill: url(#Degradado_sin_nombre_152-2);
        filter: url(#drop-shadow-1);
      }

      .cls-3 {
        fill: #d9af96;
      }

      .cls-4 {
        fill: #ce661e;
      }

      .cls-5 {
        fill: #db8000;
      }

      .cls-6 {
        fill: #98bcff;
        opacity: .7;
      }

      .cls-7 {
        fill: #060c11;
      }

      .cls-8 {
        fill: #bbfff2;
      }

      .cls-9 {
        fill: #777;
      }

      .cls-10 {
        fill: #ffc1a4;
      }

      .cls-11 {
        fill: #4ae5c7;
      }

      .cls-12 {
        stroke: #c4c4c4;
        stroke-width: 1.04px;
      }

      .cls-12, .cls-13 {
        fill: none;
        stroke-miterlimit: 10;
      }

      .cls-14 {
        fill: #69ffe2;
      }

      .cls-15, .cls-16 {
        fill: #fff;
      }

      .cls-17 {
        fill: #e17e31;
      }

      .cls-18 {
        fill: #606060;
      }

      .cls-19, .cls-20 {
        fill: #ffd7bf;
      }

      .cls-19, .cls-21 {
        opacity: .35;
      }

      .cls-22 {
        fill: #16191b;
      }

      .cls-23 {
        fill: #4badcc;
      }

      .cls-24 {
        fill: #3ea09f;
      }

      .cls-25 {
        fill: #f69500;
      }

      .cls-26 {
        fill: #a0a0a0;
      }

      .cls-27 {
        fill: #ff4a12;
      }

      .cls-28 {
        fill: #62200f;
      }

      .cls-29 {
        isolation: isolate;
      }

      .cls-30 {
        fill: #2a2e32;
      }

      .cls-31 {
        fill: #c4c4c4;
      }

      .cls-32 {
        fill: #40dbbd;
      }

      .cls-33 {
        fill: #d9e7ff;
      }

      .cls-34 {
        fill: #ffce00;
      }

      .cls-16, .cls-35 {
        mix-blend-mode: overlay;
      }

      .cls-36 {
        fill: #32eaad;
      }

      .cls-37 {
        fill: #3cbfa6;
      }

      .cls-38 {
        mix-blend-mode: multiply;
      }

      .cls-39 {
        fill: #eee;
      }

      .cls-40 {
        fill: #ff916b;
      }

      .cls-41, .cls-21 {
        fill: #ffede0;
      }

      .cls-42 {
        fill: #ff805d;
      }

      .cls-43 {
        fill: #ffb000;
      }

      .cls-13 {
        stroke: #292929;
        stroke-width: 1.27px;
      }

      .cls-44 {
        fill: #ffd3b8;
        opacity: .61;
      }

      .cls-45 {
        fill: #f4f4f4;
      }

      .cls-46 {
        fill: url(#Degradado_sin_nombre_152);
      }

      .cls-47 {
        fill: #0fcebb;
      }

      .cls-48 {
        fill: #292929;
      }

      .cls-49 {
        fill: #a5a29f;
      }

      .cls-50 {
        fill: #00e9d9;
      }

      .cls-51 {
        fill: #94c9c9;
      }

      .cls-52 {
        fill: #f7f7f7;
      }

      .cls-53 {
        fill: #d2f7ff;
      }
    </style>
    <linearGradient id="Degradado_sin_nombre_152" data-name="Degradado sin nombre 152" x1="566.42" y1="667.99" x2="716.1" y2="667.99" gradientUnits="userSpaceOnUse">
      <stop offset="0" stop-color="#35c9e2" stop-opacity=".5"/>
      <stop offset="1" stop-color="#35e6bb"/>
    </linearGradient>
    <linearGradient id="Degradado_sin_nombre_152-2" data-name="Degradado sin nombre 152" x1="905.59" y1="285.09" x2="991.2" y2="370.7" xlink:href="#Degradado_sin_nombre_152"/>
    <filter id="drop-shadow-1" x="848.07" y="232.87" width="206" height="202" filterUnits="userSpaceOnUse">
      <feOffset dx="2.61" dy="6.1"/>
      <feGaussianBlur result="blur" stdDeviation="6.97"/>
      <feFlood flood-color="#000" flood-opacity=".25"/>
      <feComposite in2="blur" operator="in"/>
      <feComposite in="SourceGraphic"/>
    </filter>
    <linearGradient id="Degradado_sin_nombre_152-3" data-name="Degradado sin nombre 152" x1="887.75" y1="557.9" x2="1155.63" y2="557.9" xlink:href="#Degradado_sin_nombre_152"/>
  </defs>
  <g class="cls-29">
    <g id="Layer_2">
      <g id="Layer_1-2" data-name="Layer_1">
        <g>
          <g>
            <path class="cls-31" d="M1330.69,843.81c-381.46.63-760.66,3.23-1142.12,3.86-61.83-24-126.67-52.67-188.5-76.67-.25-5.89.25-14.19,0-20.07,443.54,23.5,887.08,47,1330.62,70.5v22.38Z"/>
            <path class="cls-26" d="M1330.69,821.42c-380.5.45-761.01.9-1141.51,1.35-63.04-23.95-126.07-47.9-189.11-71.85,377.96-.06,755.92-.13,1133.88-.19,65.58,23.57,131.16,47.13,196.73,70.7Z"/>
            <g>
              <path class="cls-12" d="M1.97,751.61l1132.37-.89,196.29,70.49c.08.03.08.21,0,.21l-1141.74,1.35L1.99,751.81c-.08-.03-.1-.19-.02-.19Z"/>
              <line class="cls-12" x1="141.7" y1="804.86" x2="1281.64" y2="803.62"/>
              <line class="cls-12" x1="94.74" y1="787.03" x2="1232.31" y2="785.91"/>
              <line class="cls-12" x1="48" y1="769.28" x2="1183.21" y2="768.28"/>
              <line class="cls-12" x1="1021.69" y1="750.81" x2="1217.62" y2="821.56"/>
              <line class="cls-12" x1="908.9" y1="750.9" x2="1103.89" y2="821.69"/>
              <line class="cls-12" x1="795.97" y1="750.99" x2="990.02" y2="821.83"/>
              <line class="cls-12" x1="682.89" y1="751.08" x2="876.01" y2="821.96"/>
              <line class="cls-12" x1="569.68" y1="751.17" x2="761.85" y2="822.09"/>
              <line class="cls-12" x1="456.33" y1="751.26" x2="647.54" y2="822.23"/>
              <line class="cls-12" x1="342.83" y1="751.35" x2="533.1" y2="822.36"/>
              <line class="cls-12" x1="229.19" y1="751.44" x2="418.5" y2="822.5"/>
              <line class="cls-12" x1="115.41" y1="751.53" x2="303.77" y2="822.63"/>
            </g>
          </g>
          <g>
            <path class="cls-33" d="M1025.82,175.58c0,10.79-.97,21.36-2.84,31.63-4.48,24.63-14.1,47.46-27.71,67.36-31.62,46.24-84.78,76.59-145.03,76.59-71.67,0-133.31-42.93-160.59-104.49-3.6-8.11-6.6-16.54-8.94-25.25-3.95-14.61-6.05-29.98-6.05-45.83,0-12.82,1.37-25.33,3.98-37.36.03-.14.06-.27.09-.41,7.3-33.28,24.03-63.02,47.26-86.28,6.59-6.6,13.7-12.68,21.27-18.17,3.61-2.62,7.33-5.11,11.14-7.44,26.71-16.44,58.16-25.92,91.84-25.92,4.47,0,8.89.17,13.27.5,6.18.46,12.27,1.24,18.25,2.32,25.19,4.56,48.49,14.5,68.71,28.59h0c12.59,8.77,23.98,19.14,33.87,30.83,5.19,6.14,9.98,12.64,14.29,19.46,2.69,4.25,5.2,8.61,7.53,13.09,5.6,10.77,10.1,22.2,13.38,34.14,4.08,14.85,6.26,30.5,6.26,46.65Z"/>
            <path class="cls-6" d="M790.59,96.99c-7.01,11.1,2.93,30.36-18.09,25.11-21.02-5.25-33.87-7.59-35.03,4.08-1.17,11.68,15.76,11.68,15.76,23.94s-7.59,16.32-19.27,10.49c-11.68-5.82-15.04-14.29-28.61-9.04-13.58,5.25-21.46,1.75-24.52-8.76-.54-1.85-1.3-3.35-2.18-4.6.03-.14.06-.27.09-.41,7.3-33.28,24.03-63.02,47.26-86.28,6.59-6.6,13.7-12.68,21.27-18.17,3.61-2.62,7.33-5.11,11.14-7.44,5.47.2,12.02,2.28,17.6,9.18,12.26,15.19,20.43,7.59,17.52,25.11-2.93,17.52,1.75,19.85,11.67,19.27,9.92-.59,21.61-.59,22.77,7.01,1.16,7.59-30.36-.59-37.37,10.51Z"/>
            <path class="cls-6" d="M863.29,202.09s-15.47,4.96-19.56-5.84c-4.09-10.8.58-13.14-13.14-16.35-13.72-3.21-14.89-12.55-23.65-11.39-8.76,1.17-4.38,4.67-14.6,12.26-10.22,7.59-19.56,4.09-19.27,18.1.29,14.01,15.47,16.2,18.54,25.4,3.07,9.2-2.19,13.14,4.38,20.14,6.57,7.01,18.83,3.94,13.14,13.58-5.69,9.63-14.45,17.08-10.07,31.97,4.38,14.89,1.31,15.76,8.76,26.27,7.44,10.51,21.9,14.01,24.09,7.01,2.19-7.01-10.07-16.2-6.13-23.21,3.94-7.01,10.51-2.19,13.14-12.7,2.63-10.51,13.28-10.51,14.16-17.81.88-7.3-12.85-18.39-7.59-23.06,5.26-4.67,15.76,8.47,23.94-3.21,8.17-11.68,2.63-21.02,11.09-32.11,8.47-11.09-11.39-15.47-17.22-9.05Z"/>
            <path class="cls-6" d="M1025.82,175.58c0,10.79-.97,21.36-2.84,31.63-4.48,24.63-14.1,47.46-27.71,67.36-4.64,1.52-9.38,1.49-14.04-.38-21.9-8.76-5.69-32.41,3.07-44.23,8.76-11.82-13.58-6.57-29.78-17.52-16.2-10.95,1.75-40.29-14.89-35.47-16.64,4.82-36.78,10.95-46.42-5.25-9.63-16.2,8.76-18.83.44-32.41-8.32-13.58,4.82-21.46,21.46-22.77,16.64-1.31,14.45-13.14,35.03-14.89,20.58-1.75,20.14,24.52,42.92,22.77,22.77-1.75,21.75,3.5,21.75,3.5,1.64-.04,3.23.3,4.76,1,4.08,14.85,6.26,30.5,6.26,46.65Z"/>
            <path class="cls-6" d="M1006.18,94.79c-18.93,9.21-26.54-15.84-42.72-8.31-16.32,7.59-13.46-7.01-26.3-16.35-12.85-9.34-38.54,7.59-37.37-7.01,1.16-14.59,20.43-10.51,24.52-22.18,4.09-11.67,22.77-8.76,22.77-8.76,1.06-.4,2.2-.67,3.4-.77,0,0,0,0,0,0,12.59,8.77,23.98,19.14,33.87,30.83,5.19,6.14,9.98,12.64,14.29,19.46,2.69,4.25,5.2,8.61,7.53,13.09Z"/>
            <path class="cls-6" d="M846.65,44.44s9.93-14.32-5.84-18.55c-15.76-4.23-15.47,1.31-27.73,0-12.26-1.31-17.08,8.18-7.88,18.55,9.2,10.36,16.64,30.25,24.96,19.65,8.32-10.6,6.71-18.63,16.49-19.65Z"/>
          </g>
          <g>
            <path class="cls-53" d="M820.24,341l-5.62,340.86c-.12,7.22-4.4,13.06-9.51,12.98l-718.34-11.22c-5.11-.08-9.2-6.05-9.08-13.27l5.62-340.86c.12-7.22,4.4-13.06,9.51-12.98l718.34,11.22c5.11.08,9.2,6.05,9.08,13.27Z"/>
            <path class="cls-50" d="M820.24,341l-.46,28.02-736.93-11.51.46-28.03c.12-7.22,4.4-13.06,9.51-12.98l718.34,11.22c5.11.08,9.2,6.05,9.08,13.27Z"/>
            <rect class="cls-50" x="156.54" y="506.75" width="215.67" height="43.74" transform="translate(8.29 -4.06) rotate(.89)"/>
            <rect class="cls-50" x="154.94" y="604.48" width="306.97" height="43.74" transform="translate(9.82 -4.74) rotate(.89)"/>
            <rect class="cls-15" x="155.57" y="582.41" width="153.49" height="9.75" transform="translate(9.2 -3.56) rotate(.89)"/>
            <rect class="cls-15" x="157.16" y="486.03" width="153.49" height="9.75" transform="translate(7.7 -3.59) rotate(.89)"/>
            <path class="cls-15" d="M154.72,418.15l2.57.27c.09,0,.18.03.26.06l19.25,7.26c.24.09.5.09.73,0l28.77-8.06c.74-.27-3.36-2.78-3.95-3.3-6.46-5.71-27.32-20.1-35.08-26.35-1.24-1-.68-3,.9-3.21.76-.1,1.54.02,2.23.35l39.05,18.51,5.76-2.93c.84-.43,1.87-.09,2.29.75l2.27,4.47c.42.82.1,1.83-.71,2.27l5.03,2.38c.24.11.51.13.77.05l25.89-8.26c2.29-.73,4.77-.65,7,.24.91.36,1.88.75,2.79,1.11,1.87.75,2.74,2.92,1.91,4.76l-.42.92c-1.36,3.02-4,5.27-7.2,6.14l-20.9,5.68c-.41.11-.72.47-.77.89l-1,8.71,1.22-.62c.84-.43,1.87-.09,2.29.75l2.26,4.47c.42.84.09,1.87-.75,2.3l-6.19,3.15-1.57,13.58c-.13,1.1-.57,2.13-1.29,2.97-.91,1.07-1.87,2.27-2.16,2.11-.92-.52-8.08-22.34-10.41-30.88-.13-.49-4.24.61-4.72.75l-28.31,5.81c-.37.1-.65.39-.74.76l-1.98,7.91c-.22.89-.74,1.67-1.46,2.22l-.03.02c-.52.39-1.26.23-1.56-.35l-5.47-10.41c-.16-.3-.46-.51-.79-.55l-2.95-.37c-.92-.12-1.24-1.28-.52-1.86l.79-.63-13.93-12c-.78-.67-.23-1.94.79-1.84Z"/>
          </g>
          <ellipse class="cls-9" cx="635.84" cy="783.99" rx="214.4" ry="15.71"/>
          <g>
            <g>
              <rect class="cls-23" x="440.36" y="47.47" width="394.24" height="741.94" rx="74" ry="74"/>
              <circle class="cls-15" cx="583.9" cy="77.66" r="8.54"/>
              <rect class="cls-15" x="603.79" y="73.1" width="94.27" height="7.63" rx="2.5" ry="2.5"/>
              <path class="cls-53" d="M815.92,121.47v593.95c0,30.5-24.82,55.31-55.32,55.31h-246.23c-30.52,0-55.32-24.8-55.32-55.31V121.47c0-30.52,24.8-55.32,55.32-55.32h29.98v4.07c0,12.96,10.52,23.48,23.48,23.48h139.3c12.96,0,23.48-10.52,23.48-23.48v-4.07h30c30.5,0,55.32,24.8,55.32,55.32Z"/>
              <circle class="cls-15" cx="498.17" cy="118.34" r="17.39"/>
              <g>
                <path class="cls-37" d="M766.14,257.8c-.44.62-.71,1.34-.71,2.12,0,2.29,2.18,4.14,4.87,4.14s4.87-1.85,4.87-4.14c0-.78-.27-1.5-.71-2.12,1.14,1.09,1.85,2.62,1.85,4.32,0,3.32-2.69,6.01-6.01,6.01s-6.01-2.69-6.01-6.01c0-1.7.71-3.23,1.85-4.32Z"/>
                <path class="cls-14" d="M767.46,284.78c0,1.57,1.27,2.84,2.84,2.84s2.84-1.27,2.84-2.84-1.27-2.84-2.84-2.84-2.84,1.27-2.84,2.84Z"/>
                <path class="cls-14" d="M767.46,269.66c0,1.57,1.27,2.84,2.84,2.84s2.84-1.27,2.84-2.84-1.27-2.84-2.84-2.84-2.84,1.27-2.84,2.84Z"/>
                <path class="cls-14" d="M767.46,274.63c0,1.57,1.27,2.84,2.84,2.84s2.84-1.27,2.84-2.84-1.27-2.84-2.84-2.84-2.84,1.27-2.84,2.84Z"/>
                <path class="cls-14" d="M767.46,279.89c0,1.57,1.27,2.84,2.84,2.84s2.84-1.27,2.84-2.84-1.27-2.84-2.84-2.84-2.84,1.27-2.84,2.84Z"/>
                <path class="cls-37" d="M770.3,312.26h0c4.43,0,8.06-3.63,8.06-8.06v-9.28c0-4.43-3.63-8.06-8.06-8.06h0c-4.43,0-8.06,3.63-8.06,8.06v9.28c0,4.43,3.63,8.06,8.06,8.06Z"/>
                <path class="cls-11" d="M758.15,317.56c0,4.87,5.22,8.81,11.65,8.81s11.65-3.94,11.65-8.81-5.22-8.81-11.65-8.81-11.65,3.94-11.65,8.81Z"/>
                <path class="cls-14" d="M781.65,343.72h-23.7c-3.94-2.54-6.44-6.31-6.44-10.53,0-7.64,8.19-13.84,18.29-13.84s18.29,6.19,18.29,13.84c0,4.22-2.5,7.99-6.44,10.53Z"/>
                <g>
                  <polygon class="cls-37" points="758.37 370.47 778.9 370.47 792.84 373.9 786.86 381.37 776.46 381.37 761.13 381.37 751.67 381.37 745.69 373.9 758.37 370.47"/>
                  <polygon class="cls-32" points="751.67 524.51 786.86 524.51 786.86 381.37 776.46 378.82 761.13 378.82 751.67 381.37 751.67 524.51"/>
                  <rect class="cls-14" x="761.13" y="378.82" width="15.33" height="145.69" transform="translate(1537.59 903.32) rotate(180)"/>
                </g>
                <polygon class="cls-8" points="746.96 372.22 758.61 368.9 778.66 368.9 790.87 372.22 790.87 343.05 746.96 343.05 746.96 372.22"/>
                <path class="cls-11" d="M745.69,344.36v29.53l12.67-3.42h20.53l13.94,3.42v-29.53l-13.94-3.42h-20.53l-12.67,3.42ZM781.85,352.84c0-3.16,1.74-5.34,3.86-4.84,2.12.5,3.86,3.49,3.86,6.65v14.83l-7.72-1.81v-14.83ZM762.89,351.99c0-3.16,2.59-5.75,5.75-5.75s5.75,2.59,5.75,5.75v14.83h-11.49v-14.83ZM747.65,354.65c0-3.16,1.74-6.15,3.86-6.65,2.12-.5,3.86,1.68,3.86,4.84v14.83l-7.72,1.81v-14.83Z"/>
                <path class="cls-14" d="M758.37,370.47h20.53v-29.53h-20.53v29.53ZM762.89,351.99c0-3.16,2.59-5.75,5.75-5.75s5.75,2.59,5.75,5.75v14.83h-11.49v-14.83Z"/>
                <polygon class="cls-37" points="754.56 334.78 781.46 334.78 807.95 345.17 792.84 352.46 792.84 346.25 778.26 342.68 758.18 342.68 745.69 346.25 745.69 352.46 729.64 345.3 754.56 334.78"/>
              </g>
              <g>
                <path class="cls-37" d="M505.4,257.8c-.44.62-.71,1.34-.71,2.12,0,2.29,2.18,4.14,4.87,4.14s4.87-1.85,4.87-4.14c0-.78-.27-1.5-.71-2.12,1.14,1.09,1.85,2.62,1.85,4.32,0,3.32-2.69,6.01-6.01,6.01s-6.01-2.69-6.01-6.01c0-1.7.71-3.23,1.85-4.32Z"/>
                <path class="cls-14" d="M506.72,284.78c0,1.57,1.27,2.84,2.84,2.84s2.84-1.27,2.84-2.84-1.27-2.84-2.84-2.84-2.84,1.27-2.84,2.84Z"/>
                <path class="cls-14" d="M506.72,269.66c0,1.57,1.27,2.84,2.84,2.84s2.84-1.27,2.84-2.84-1.27-2.84-2.84-2.84-2.84,1.27-2.84,2.84Z"/>
                <path class="cls-14" d="M506.72,274.63c0,1.57,1.27,2.84,2.84,2.84s2.84-1.27,2.84-2.84-1.27-2.84-2.84-2.84-2.84,1.27-2.84,2.84Z"/>
                <path class="cls-14" d="M506.72,279.89c0,1.57,1.27,2.84,2.84,2.84s2.84-1.27,2.84-2.84-1.27-2.84-2.84-2.84-2.84,1.27-2.84,2.84Z"/>
                <path class="cls-37" d="M509.56,312.26h0c4.43,0,8.06-3.63,8.06-8.06v-9.28c0-4.43-3.63-8.06-8.06-8.06h0c-4.43,0-8.06,3.63-8.06,8.06v9.28c0,4.43,3.63,8.06,8.06,8.06Z"/>
                <path class="cls-11" d="M497.41,317.56c0,4.87,5.22,8.81,11.65,8.81s11.65-3.94,11.65-8.81-5.22-8.81-11.65-8.81-11.65,3.94-11.65,8.81Z"/>
                <path class="cls-14" d="M520.91,343.72h-23.7c-3.94-2.54-6.44-6.31-6.44-10.53,0-7.64,8.19-13.84,18.29-13.84s18.29,6.19,18.29,13.84c0,4.22-2.5,7.99-6.44,10.53Z"/>
                <g>
                  <polygon class="cls-37" points="497.62 370.47 518.16 370.47 532.1 373.9 526.12 381.37 515.71 381.37 500.39 381.37 490.93 381.37 484.95 373.9 497.62 370.47"/>
                  <polygon class="cls-32" points="490.93 524.51 526.12 524.51 526.12 381.37 515.71 378.82 500.39 378.82 490.93 381.37 490.93 524.51"/>
                  <rect class="cls-14" x="500.39" y="378.82" width="15.33" height="145.69" transform="translate(1016.1 903.32) rotate(180)"/>
                </g>
                <polygon class="cls-8" points="486.22 372.22 497.86 368.9 517.92 368.9 530.13 372.22 530.13 343.05 486.22 343.05 486.22 372.22"/>
                <path class="cls-11" d="M484.95,344.36v29.53l12.67-3.42h20.53l13.94,3.42v-29.53l-13.94-3.42h-20.53l-12.67,3.42ZM521.11,352.84c0-3.16,1.74-5.34,3.86-4.84,2.12.5,3.86,3.49,3.86,6.65v14.83l-7.72-1.81v-14.83ZM502.14,351.99c0-3.16,2.59-5.75,5.75-5.75s5.75,2.59,5.75,5.75v14.83h-11.49v-14.83ZM486.91,354.65c0-3.16,1.74-6.15,3.86-6.65,2.12-.5,3.86,1.68,3.86,4.84v14.83l-7.72,1.81v-14.83Z"/>
                <path class="cls-14" d="M497.62,370.47h20.53v-29.53h-20.53v29.53ZM502.14,351.99c0-3.16,2.59-5.75,5.75-5.75s5.75,2.59,5.75,5.75v14.83h-11.49v-14.83Z"/>
                <polygon class="cls-37" points="493.82 334.78 520.72 334.78 547.2 345.17 532.1 352.46 532.1 346.25 517.52 342.68 497.44 342.68 484.95 346.25 484.95 352.46 468.89 345.3 493.82 334.78"/>
              </g>
              <rect class="cls-50" x="457.81" y="505.15" width="358.11" height="85.69" rx="6.56" ry="6.56"/>
              <path class="cls-47" d="M623.51,557.9l-74.51-30.76c3.74-12.4,7.47-24.8,11.21-37.21,60.42,12.08,120.85,24.16,181.27,36.24-39.32,10.58-78.64,21.15-117.97,31.73Z"/>
            </g>
            <rect class="cls-46" x="566.42" y="643.32" width="149.68" height="49.34" rx="8.5" ry="8.5"/>
            <rect class="cls-15" x="600.97" y="661.63" width="80.58" height="12.73" rx="3.17" ry="3.17"/>
            <rect class="cls-16" x="512.39" y="163.22" width="83.33" height="59.84" rx="6.99" ry="6.99"/>
            <g class="cls-35">
              <path class="cls-15" d="M733.47,163.22h-116.42c-2.9,0-5.25,2.35-5.25,5.25h0c0,2.9,2.35,5.25,5.25,5.25h116.42c2.9,0,5.25-2.35,5.25-5.25h0c0-2.9-2.35-5.25-5.25-5.25Z"/>
              <path class="cls-15" d="M664.2,187.89h-47.93c-2.9,0-5.25,2.35-5.25,5.25h0c0,2.9,2.35,5.25,5.25,5.25h47.93c2.9,0,5.25-2.35,5.25-5.25h0c0-2.9-2.35-5.25-5.25-5.25Z"/>
            </g>
          </g>
          <g>
            <g>
              <g>
                <polygon class="cls-7" points="641.34 532.83 543 527.14 543 379.63 641.34 343.91 666.57 441.48 641.34 532.83"/>
                <polygon class="cls-17" points="641.34 532.83 543 527.14 543 379.63 641.34 343.91 666.57 441.48 641.34 532.83"/>
                <g class="cls-38">
                  <g>
                    <g>
                      <polygon class="cls-3" points="641.31 517.63 542.99 515.44 543.01 514.28 641.34 516.46 641.31 517.63"/>
                      <rect class="cls-3" x="546.44" y="504.35" width="94.85" height="1.16" transform="translate(-1.99 2.35) rotate(-.23)"/>
                      <rect class="cls-3" x="546.42" y="493.63" width="93.66" height="1.17" transform="translate(-17.02 21.18) rotate(-2.02)"/>
                    </g>
                    <rect class="cls-3" x="622.51" y="517.05" width="1.16" height="14.78"/>
                    <rect class="cls-3" x="600.19" y="515.95" width="1.16" height="14.47"/>
                    <rect class="cls-3" x="582.72" y="515.95" width="1.16" height="13.51"/>
                    <rect class="cls-3" x="567.14" y="515.56" width="1.16" height="12.93"/>
                    <rect class="cls-3" x="555.94" y="514.86" width="1.16" height="13.2"/>
                    <rect class="cls-3" x="547.2" y="514.86" width="1.16" height="12.54"/>
                    <rect class="cls-3" x="551.57" y="505.54" width="1.16" height="9.32"/>
                    <rect class="cls-3" x="562.15" y="505.54" width="1.16" height="9.32"/>
                    <rect class="cls-3" x="575.2" y="505.15" width="1.16" height="10.14"/>
                    <rect class="cls-3" x="591.59" y="505.15" width="1.16" height="10.41"/>
                    <rect class="cls-3" x="611.26" y="505.15" width="1.16" height="11.23"/>
                    <rect class="cls-3" x="634.68" y="505.15" width="1.16" height="11.78"/>
                    <rect class="cls-3" x="634.68" y="480.62" width="1.16" height="11.78"/>
                    <rect class="cls-3" x="622.51" y="492.93" width="1.16" height="11.78"/>
                    <rect class="cls-3" x="604.2" y="493.66" width="1.16" height="11.78"/>
                    <rect class="cls-3" x="587.71" y="494.14" width="1.16" height="11.01"/>
                    <rect class="cls-3" x="569.85" y="494.58" width="1.16" height="11.01"/>
                    <rect class="cls-3" x="556.86" y="495.23" width="1.16" height="10.22"/>
                    <rect class="cls-3" x="547.93" y="495.84" width="1.16" height="10.22"/>
                  </g>
                </g>
                <path class="cls-30" d="M661.13,420.43l-19.79-76.52-98.34,23.93v118.67s3.73,21.85,9.74,21.96c6.4.12,11.28-23.01,11.28-23.01,0,0,2.86,23.7,15.08,23.01,14.89-.85,16.38-24.56,16.38-24.56,0,0,2.06,26.87,21.71,26.53,14.22-.24,24.16-28.81,24.16-28.81l19.79-61.2Z"/>
                <path class="cls-30" d="M661.13,420.43l-19.79-76.52-98.34,23.93v118.67s3.73,21.85,9.74,21.96c6.4.12,11.28-23.01,11.28-23.01,0,0,2.86,23.7,15.08,23.01,14.89-.85,16.38-24.56,16.38-24.56,0,0,2.06,26.87,21.71,26.53,14.22-.24,24.16-28.81,24.16-28.81l19.79-61.2Z"/>
                <polygon class="cls-34" points="641.34 427.65 542.99 441.89 542.99 442.92 641.34 428.68 641.35 428.68 641.35 427.65 641.34 427.65"/>
                <polygon class="cls-4" points="641.34 532.83 733.47 526.36 733.47 369.15 641.34 343.91 641.34 532.83"/>
                <g class="cls-38">
                  <g>
                    <g>
                      <rect class="cls-3" x="641.29" y="515.73" width="92.18" height="1.16" transform="translate(-7.98 10.8) rotate(-.9)"/>
                      <rect class="cls-3" x="685.89" y="460.12" width="1.16" height="90.34" transform="translate(172.28 1185.12) rotate(-89.25)"/>
                      <polygon class="cls-3" points="731.61 497.15 643.77 493.17 643.83 492.01 731.66 495.99 731.61 497.15"/>
                    </g>
                    <rect class="cls-3" x="657.71" y="517.05" width="1.16" height="14.54"/>
                    <rect class="cls-3" x="657.71" y="493.09" width="1.16" height="11.45"/>
                    <rect class="cls-3" x="674.41" y="493.83" width="1.16" height="11.45"/>
                    <rect class="cls-3" x="689.6" y="494.47" width="1.16" height="11.45"/>
                    <rect class="cls-3" x="703" y="495.12" width="1.16" height="10.42"/>
                    <rect class="cls-3" x="713.87" y="495.9" width="1.16" height="10.43"/>
                    <rect class="cls-3" x="724.61" y="495.9" width="1.16" height="10.43"/>
                    <rect class="cls-3" x="651.63" y="504.71" width="1.16" height="12"/>
                    <rect class="cls-3" x="651.63" y="481.09" width="1.16" height="12"/>
                    <rect class="cls-3" x="666.81" y="505.04" width="1.16" height="12"/>
                    <rect class="cls-3" x="682" y="505.04" width="1.16" height="12"/>
                    <rect class="cls-3" x="697.19" y="505.35" width="1.16" height="10.8"/>
                    <rect class="cls-3" x="708.93" y="505.35" width="1.16" height="10.8"/>
                    <rect class="cls-3" x="719.8" y="505.65" width="1.16" height="10.31"/>
                    <rect class="cls-3" x="729.41" y="505.65" width="1.16" height="10.31"/>
                    <rect class="cls-3" x="729.41" y="486.19" width="1.16" height="10.31"/>
                    <rect class="cls-3" x="674.27" y="517.05" width="1.16" height="13.38"/>
                    <rect class="cls-3" x="688.89" y="515.95" width="1.16" height="13.54"/>
                    <rect class="cls-3" x="703" y="515.95" width="1.16" height="12.49"/>
                    <rect class="cls-3" x="713.87" y="515.95" width="1.16" height="11.67"/>
                    <rect class="cls-3" x="724.22" y="515.95" width="1.16" height="10.97"/>
                  </g>
                </g>
                <path class="cls-22" d="M641.34,481.64s7.31,31.92,22.11,31.92c8.19,0,20.84-25.27,20.84-25.27,0,0,3.93,22.16,15.86,21.9,5.57-.12,14.13-17.25,14.13-17.25,0,0,4.52,17.29,9.5,17.52,4.37.2,9.7-14.54,9.7-14.54v-126.75l-92.13-25.23v137.72Z"/>
                <polygon class="cls-43" points="733.46 440.39 641.41 427.66 641.35 427.65 641.35 428.68 733.46 441.41 733.46 440.39"/>
                <polygon class="cls-34" points="543 411.6 543 423.59 641.34 405.08 641.34 391.15 543 411.6"/>
                <polygon class="cls-25" points="545.65 413.29 545.65 420.53 638.69 403.3 638.69 394.23 545.65 413.29"/>
                <polygon class="cls-43" points="641.34 391.15 641.34 405.08 733.47 421.65 733.47 408.74 641.34 391.15"/>
                <polygon class="cls-5" points="643.97 394.23 643.97 402.96 730.84 418.58 730.84 410.81 643.97 394.23"/>
              </g>
              <g>
                <polygon class="cls-25" points="557 425.68 557 425.68 556.17 425.84 556.17 434.93 557 434.78 578.71 430.93 579.1 430.87 579.1 430.86 579.1 430.16 579.1 422.1 579.1 421.4 557 425.68"/>
                <polygon class="cls-25" points="600.27 417.64 600.27 417.64 599.43 417.8 599.43 426.89 600.27 426.74 621.97 422.89 622.36 422.82 622.36 422.82 622.36 422.12 622.36 414.06 622.36 413.36 600.27 417.64"/>
                <path class="cls-34" d="M592.74,424.14c0,2.45-1.66,4.49-3.7,4.55-2.04.07-3.7-1.86-3.7-4.31s1.66-4.49,3.7-4.55c2.04-.07,3.7,1.86,3.7,4.31Z"/>
                <path class="cls-34" d="M552.41,431.64c0,2.45-1.66,4.49-3.7,4.55-2.04.07-3.7-1.86-3.7-4.31s1.66-4.49,3.7-4.55c2.04-.07,3.7,1.86,3.7,4.31Z"/>
                <path class="cls-34" d="M634.91,416.07c0,2.45-1.66,4.49-3.7,4.55-2.04.07-3.7-1.86-3.7-4.31s1.66-4.49,3.7-4.55c2.04-.07,3.7,1.86,3.7,4.31Z"/>
              </g>
              <g>
                <polygon class="cls-5" points="718.88 423.27 718.88 423.27 719.63 423.4 719.73 432.59 718.98 432.47 699.49 429.28 699.13 429.23 699.13 429.22 699.13 428.51 699.04 420.36 699.03 419.66 718.88 423.27"/>
                <polygon class="cls-43" points="648.65 510.25 679.8 510.44 679.8 410.75 648.65 405.67 648.65 510.25"/>
                <ellipse class="cls-25" cx="665.56" cy="458.82" rx="11.39" ry="44.02"/>
                <path class="cls-43" d="M686.83,422.87c.03,2.48,1.53,4.48,3.36,4.48,1.83,0,3.29-2.01,3.27-4.48-.03-2.48-1.53-4.48-3.36-4.48-1.83,0-3.29,2.01-3.27,4.48Z"/>
                <path class="cls-43" d="M723.06,429.15c.03,2.48,1.53,4.48,3.37,4.48,1.83,0,3.29-2.01,3.27-4.48-.03-2.48-1.53-4.48-3.36-4.48-1.83,0-3.29,2.01-3.27,4.48Z"/>
              </g>
            </g>
            <g>
              <polygon class="cls-21" points="563.51 362.81 563.51 489.93 564.52 489.93 564.52 362.56 563.51 362.81"/>
              <polygon class="cls-19" points="713.36 363.68 713.36 489.93 714.37 489.93 714.37 363.96 713.36 363.68"/>
              <polygon class="cls-21" points="595.05 355.11 595.05 489.93 596.07 489.93 596.07 354.86 595.05 355.11"/>
              <polygon class="cls-19" points="683.78 355.49 683.78 489.93 684.8 489.93 684.8 355.77 683.78 355.49"/>
              <polygon class="cls-21" points="641.47 343.78 640.85 343.93 640.85 485.02 641.87 485.02 641.87 343.89 641.47 343.78"/>
              <g>
                <g>
                  <path class="cls-41" d="M543,484.09s.83,18.02,9.74,18.75c8.91.72,11.28-18.75,11.28-18.75,0,0,1.86,19.04,16.42,18.75,14.56-.29,15.07-20.78,15.07-20.78,0,0,1.02,21.07,19.98,20.78,18.96-.29,25.85-24.17,25.85-24.17,0,0,1.58,38.66-21.79,41.26-23.37,2.6-23.87-24.03-23.87-24.03,0,0-3.63,22.06-16.09,22.73-12.46.68-15.07-17.73-15.58-21.48-2.03,11.66-4.44,19.15-11.28,19.89-6.84.74-12.64-15.52-9.74-32.96Z"/>
                  <path class="cls-44" d="M543,484.09s-.02,14.56,3.43,19.13c4.57,6.06,15.22,10.75,17.59-19.13-.59,13.29-1.33,28.78-11.18,28.45-9.84-.34-10.06-19.3-9.84-28.45Z"/>
                  <path class="cls-44" d="M595.51,482.06s.6,14.99-6.1,26.33c-6.69,11.34-18.01,7.03-21.11-1.02-3.1-8.04-4.29-23.28-4.29-23.28,0,0,2.54,17.27,8.04,22.35s12.97,5.3,16.81-1.29c3.85-6.59,7.15-18.35,6.64-23.1Z"/>
                  <path class="cls-44" d="M641.34,478.67s-.51,18.37-9.96,29.72c-9.46,11.34-25.46,7.03-29.84-1.02s-6.06-23.28-6.06-23.28c0,0,3.59,17.27,11.37,22.35,7.78,5.08,18.32,5.3,23.76-1.29,5.44-6.59,9.84-18.65,10.73-26.48Z"/>
                </g>
                <g>
                  <path class="cls-20" d="M733.6,484.09s-.78,18.02-9.13,18.75c-8.36.72-10.58-18.75-10.58-18.75,0,0-1.75,19.04-15.41,18.75-13.66-.29-14.14-20.78-14.14-20.78,0,0-.95,21.07-18.74,20.78-17.79-.29-24.25-24.17-24.25-24.17,0,0-1.48,38.66,20.44,41.26,21.92,2.6,22.4-24.03,22.4-24.03,0,0,3.4,22.06,15.09,22.73s14.14-17.73,14.61-21.48c1.91,11.66,4.17,19.15,10.58,19.89s11.85-15.52,9.13-32.96Z"/>
                  <path class="cls-10" d="M733.6,484.09s.02,14.56-3.21,19.13c-4.29,6.06-14.28,10.75-16.5-19.13.56,13.29,1.25,28.78,10.48,28.45,9.23-.34,9.44-19.3,9.23-28.45Z"/>
                  <path class="cls-10" d="M684.34,482.06s-.56,14.99,5.72,26.33c6.28,11.34,16.9,7.03,19.81-1.02,2.91-8.04,4.02-23.28,4.02-23.28,0,0-2.38,17.27-7.54,22.35s-12.16,5.3-15.77-1.29c-3.61-6.59-6.71-18.35-6.23-23.1Z"/>
                  <path class="cls-10" d="M641.34,478.67s.45,18.39,9.35,29.72c8.9,11.33,23.94,6.99,27.99-1.02,4.08-8.06,5.68-23.28,5.68-23.28,0,0-3.37,17.27-10.66,22.35-7.3,5.08-17.19,5.3-22.29-1.29-5.1-6.59-9.23-18.65-10.07-26.48Z"/>
                </g>
              </g>
            </g>
          </g>
          <g>
            <g>
              <ellipse class="cls-18" cx="298.03" cy="771.3" rx="10.15" ry="9.21" transform="translate(-493.58 1010.23) rotate(-85.67)"/>
              <path class="cls-49" d="M304.62,771.71c-.27,3.59-2.54,6.34-5.07,6.15s-4.36-3.25-4.08-6.84c.27-3.59,2.54-6.34,5.07-6.15,2.53.19,4.36,3.25,4.08,6.84Z"/>
            </g>
            <g>
              <path class="cls-18" d="M265.07,762.72c-1.47,4.89-6.26,7.83-10.71,6.55-4.45-1.28-6.86-6.28-5.4-11.18,1.47-4.89,6.26-7.83,10.71-6.55,4.45,1.28,6.86,6.28,5.4,11.18Z"/>
              <path class="cls-49" d="M262.37,761.86c-.94,3.14-3.4,5.2-5.49,4.6-2.09-.6-3.03-3.64-2.09-6.78.94-3.14,3.4-5.2,5.49-4.6,2.09.6,3.03,3.64,2.09,6.78Z"/>
            </g>
            <path class="cls-18" d="M335.71,562.39c-4.3-3.52-20.97-13.19-25.62-5.57-1,1.64-1.21,3.82-1.65,5.65-.59,2.46-1.18,4.93-1.77,7.39-1.23,5.18-2.45,10.37-3.65,15.56-4.2,18.11-8.26,36.26-12.34,54.4-.89,3.98-1.81,7.95-2.67,11.93-.7,3.25,4.61,3.62,5.3.4,5.87-27.29,11.64-54.59,17.92-81.78.57-2.45,1.14-4.91,1.71-7.36.44-1.87.3-4.21,2.53-4.53,2.42-.35,5.44,1,7.63,1.85,3.29,1.28,7.47,5.4,10.82,6.54,1.43.49,3.68-2.84,2.61-3.72l-.83-.77Z"/>
            <path class="cls-18" d="M329.05,563.45c1.3,2.49,4.32,3.6,6.71,4.96,1.24.71,3.33,1.57,4.26,2.7,1.11,1.35.43,3.6.12,5.25-1.78,9.74-3.52,19.51-5.37,29.24-2.16,11.34-4.45,22.65-6.65,33.98-1.02,5.25-2.02,10.51-2.96,15.77-.45,2.51-.89,5.03-1.3,7.54-.32,1.94-.19,4.78-1.71,6.25-1.24,1.21-1.01,3.29.75,3.93,4.4,1.59,5.9-2.98,6.44-6.26.68-4.17,1.36-8.34,2.11-12.5,1.84-10.2,3.87-20.37,5.87-30.54,1.93-9.81,3.87-19.63,5.6-29.48.74-4.23,1.28-8.5,2.17-12.7.78-3.68,2.26-8.19.86-11.9-1.16-3.09-4.87-4.77-7.65-6.25-2.38-1.28-5.17-3.05-7.97-2.52-1.14.22-1.82,1.49-1.28,2.52h0Z"/>
            <g>
              <path class="cls-51" d="M349.85,657.85c2.01,9.35-15.91,107.04-25.92,112.22-10.01,5.18-72.49-12.18-79.83-18.57-7.35-6.39,21.14-111.19,31.41-113,10.27-1.81,73.11,13.6,74.34,19.34Z"/>
              <path class="cls-24" d="M349.85,657.85c-.44-2.05-8.75-5.34-19.71-8.63,0,0,0,0,0,.01,2.01,9.35-15.91,107.04-25.92,112.22-6.94,3.59-39.04-3.64-60.56-10.54.13.24.27.45.43.59,7.35,6.39,69.82,23.75,79.83,18.57,10.01-5.18,27.93-102.87,25.92-112.22Z"/>
            </g>
            <path class="cls-13" d="M341.18,652.89c-.38,14.05-5.87,42.15-5.87,42.15"/>
            <path class="cls-48" d="M275.48,653.29c11.39,2.39,22.68,5.29,33.75,8.9,3.11,1.01,6.17,2.14,9.27,3.19.61.21.85-.73.26-.96-5.41-2.11-11.01-3.81-16.58-5.43s-11.25-3.03-16.94-4.26c-3.2-.69-6.43-1.25-9.67-1.78-.22-.04-.31.29-.09.34h0Z"/>
            <path class="cls-48" d="M318.52,665.18c-.3.91-.53,1.82-.74,2.75-.17.76-.38,1.69.32,2.26.29.23.66.34,1.02.23.38-.12.6-.47.72-.83.25-.75.24-1.61.12-2.38-.07-.45-.21-.88-.39-1.3-.16-.38-.35-.94-.81-1-.1-.01-.2.02-.23.13-.06.23-.02.37.1.57.11.19.2.38.28.58.15.38.26.78.32,1.18s.07.8.04,1.2c-.03.31-.05.83-.28,1.07-.2.21-.52-.02-.61-.24-.17-.38-.02-.85.06-1.23.2-.97.37-1.94.47-2.93.02-.23-.32-.26-.39-.05h0Z"/>
          </g>
          <g>
            <ellipse class="cls-9" cx="399.78" cy="783.18" rx="110.7" ry="12.46"/>
            <g>
              <path class="cls-45" d="M325.11,562.19s-14.24,196.32-14.24,206.62,18.69,23.75,40.77,23.78c24.99.03,35.96,3.35,57.02,0,15.49-2.46,27.51-1.65,26.77-37.69-.74-36.04-32.36-261.84-32.36-261.84l-77.96,69.14Z"/>
              <polygon class="cls-39" points="361.51 569.13 368.85 774.98 368.85 567.51 361.51 569.13"/>
              <polygon class="cls-39" points="379.18 567.67 398.19 772.77 386.41 565.64 379.18 567.67"/>
              <polygon class="cls-39" points="399.78 567.47 421.84 772.26 406.98 565.33 399.78 567.47"/>
              <polygon class="cls-39" points="343.85 571.97 351.18 777.82 351.18 570.36 343.85 571.97"/>
              <polygon class="cls-39" points="332 566.47 324.87 772.33 339.43 565.37 332 566.47"/>
              <path class="cls-39" d="M416.5,591.73c-7.08-53.3-13.43-98.67-13.43-98.67l-77.96,69.14s-1.18,16.24-2.86,39.61c2.74-5.93,8.98-14.74,13.61-18.63,24.57-23.03,61.79-13.91,80.64,8.55Z"/>
              <path class="cls-40" d="M392.45,347.82s7.47,5.46,4.83,15.42c-1.53,5.78,5.4,11.16,6.34,12.91.94,1.76-2.03,3.73-3.52,4.75-1.49,1.02,0,1.49-.18,2.64-.18,1.15-1.93,1.52-1.93,1.52,0,0,1.14.32,1.36,1.87.23,1.54-1.39,1.06-1.46,2.07-.07,1.01,2,5.33-1.6,7.78-5.56,3.78-18.89-2.2-21.49-14.9-2.6-12.7.56-38.92,17.64-34.06Z"/>
              <path class="cls-42" d="M397.82,359.88s-7.2-.79-16.88,9.5c.44,13.46,3.44,27.09,15.36,27.41-13.07,4.19-22.31-8.99-24.43-18.46-2.11-9.47.84-22,2.13-22.73,1.3-.73,22.02-2.23,22.02-2.23,0,0,2.33,3.14,1.8,6.51Z"/>
              <path class="cls-42" d="M396.38,377.66s-1.1,2.33.57,3.17c1.67.84,3.78-1.67,4.14-1.58-1.36.04-2.46,1.01-3.39.97-.92-.04-1.32-1.28-1.32-2.55Z"/>
              <path class="cls-28" d="M388.08,367.01s3.92-2.78,6.46-2.64c2.54.14,1.42-1.39,0-1.39s-4.52.92-6.46,4.03Z"/>
              <g>
                <path class="cls-15" d="M393.75,368.47s-2.46-.05-3.85,2.37c2-.11,3.83-.15,3.83-.15l.02-2.22Z"/>
                <path class="cls-28" d="M393.75,368.46s-.35,0-.85.14c-.05.18-.09.37-.09.58,0,.66.27,1.2.61,1.21.12,0,.22-.08.32-.19v-1.74Z"/>
                <path class="cls-28" d="M389.76,371.03s.61-1.7,2.03-2.33c1.41-.62,2.61-.67,3.23-.94-.85.84-1.63.89-2.63,1.3-1,.42-2.51,1.65-2.63,1.97Z"/>
              </g>
              <g>
                <path class="cls-40" d="M410.71,538.27l5.53,10.68s6.92,9.7,8.33,15.64c1.41,5.93,1.72,20.6-.88,24.38-2.6,3.78-6.23,5.47-8.18,5.78-1.95.31-1.93-1.39-1.93-1.39-2.58,1.42-3.39,2.15-4.3,1.29-.91-.85.57-2.7.57-2.7-2.59,1.32-4.84,2.28-4.98.8-.14-1.48,2.69-3.64,5.78-5.94,1.59-1.31-.16-9.37-.16-9.37.27,4.92-.07,5.65-1.15,7.32-1.08,1.68-3.29,3.54-5.12,3.98-1.83.44-1.53-1.41.31-3.06,1.84-1.65,3.6-4.26,2.05-7.77-1.54-3.51-3.27-8.19-4.28-13.96-1.01-5.77-1.89-11.47-1.89-11.47l10.29-14.23Z"/>
                <path class="cls-42" d="M409.84,591.94s3.83-2.62,5.13-4.86.15-13.55.15-13.55c0,0,1.39,4.88,1.27,7.91-.11,3.02-.12,4.83-.98,6.05-.85,1.23-3.73,3.82-5.57,4.44Z"/>
                <path class="cls-42" d="M413.56,593.37s3.69-2.71,5.13-4.86c2.15-3.2,1.71-13.61,1.71-13.61,0,0,.45,4.66.34,7.68-.11,3.02-.75,5.12-1.61,6.34-.85,1.23-3.73,3.82-5.57,4.44Z"/>
              </g>
              <g>
                <path class="cls-52" d="M375.14,510.83c.74,1.1,19.12,44.13,19.12,44.13l23.17-8.09-10.66-50.38-31.63,14.34Z"/>
                <path class="cls-39" d="M414.48,532.92l-7.71-36.43-31.63,14.34c.36.53,4.86,10.91,9.4,21.47.12-2.86,1.3-4.05,3.17-6.56,9.17-7.34,19.94-.33,26.76,7.17Z"/>
              </g>
              <path class="cls-39" d="M391.58,346.34c-2.19-1.67-16.83,10.2-14.76,23.05v-.4s9.64-9.9,21.78-10.16c-1.19-7.39-4.83-10.81-7.02-12.49Z"/>
              <path class="cls-45" d="M393.03,347.56s-3.05-8.1-23.8-6.39c-26.11,2.15-26.48,36.78-28.68,54.06-2.21,17.28-9.3,60.29-20.25,97.82-8.82,30.25-12.03,77.64-7.62,89.9,25.4,1.55,58.46-28.36,65.49-47.81,9.24-25.56,32.1-17.16,41.42-3.92,1.96-57.86.22-56.51-6.01-76.04-7.77-24.37-20.96-43.68-17.29-58.39-20.2-.48-25.32-34.77-3.27-49.23Z"/>
              <path class="cls-39" d="M388.9,423.12s-20.8-30.46-43.73,4.69c16.65-36.62,35.31-21.58,43.73-4.69Z"/>
            </g>
          </g>
          <g>
            <rect class="cls-2" x="867.23" y="248.58" width="162.6" height="158.88" rx="26.57" ry="26.57"/>
            <g>
              <path class="cls-15" d="M906.63,392.88c-2.48-.59-4.89-1.36-6.89-3.04-3.78-3.19-5.74-7.22-5.09-12.2.53-4.09,4-6.97,8.12-6.98,8.24-.03,16.47,0,24.71,0,19.1,0,38.2.18,57.3-.1,6.51-.1,11.86,4.89,9.02,12.89-1.82,5.14-5.5,8.23-10.9,9.24-.19.03-.36.14-.54.21h-75.74Z"/>
              <path class="cls-15" d="M917.78,365.04h-11.79c0-1.6-.07-3.18.01-4.74.52-10.18,1.06-20.35,1.6-30.53.28-5.33.45-10.66.88-15.98.72-8.83,7.47-15.13,16.33-15.44.95-.03,1.91,0,2.96,0v-5.56c-1.59,0-3.21,0-4.82,0-3.99,0-6.27-2.23-6.22-6.19.04-2.58-.07-5.22.45-7.71,1.01-4.83,5.44-8.27,10.38-8.3,11.31-.06,22.62-.07,33.92,0,5.88.04,10.67,4.87,10.83,10.74.06,1.99.05,3.98,0,5.97-.06,3.13-2.45,5.45-5.59,5.49-1.79.02-3.58,0-5.44,0v5.47c1.46.07,2.89.08,4.3.21,8.32.78,14.71,7.64,15.1,15.96.63,13.4,1.38,26.79,2.09,40.19.17,3.18.34,6.36.5,9.54.01.27,0,.54,0,.88h-12.17c-.14-2-.3-4-.43-6-.78-11.96-1.55-23.91-2.35-35.87-.12-1.74-.14-3.52-.53-5.21-1.15-5-5.51-8.43-10.64-8.45-8.44-.03-16.88-.04-25.32,0-5.84.03-10.52,4.55-10.92,10.37-1,14.81-2.03,29.62-3.05,44.44-.02.23-.06.46-.09.74ZM933.46,298.23h22.08v-5.4h-22.08v5.4Z"/>
              <path class="cls-15" d="M965.42,365.03h-41.97c.07-1.34.13-2.64.21-3.93.61-9.09,1.23-18.18,1.85-27.28.31-4.61.61-9.21.95-13.82.21-2.73,2.52-4.95,5.36-4.97,8.44-.06,16.88-.06,25.32,0,3,.02,5.24,2.28,5.44,5.28.72,10.88,1.41,21.76,2.12,32.64.23,3.61.47,7.23.7,10.84.02.38,0,.77,0,1.22Z"/>
            </g>
          </g>
          <path class="cls-27" d="M641.42,316.53c-.47-.36-.99-.68-1.42-1.08-5.52-5.25-10.42-11.01-14.3-17.59-2.28-3.87-4.07-7.95-5.01-12.38-2.21-10.39,2.85-20.52,12.47-24.93,8.78-4.02,19.61-1.34,25.62,6.37,4.55,5.84,5.71,12.41,4.03,19.55-1.1,4.68-3.2,8.94-5.75,12.98-3.73,5.92-8.26,11.19-13.33,16-.43.41-.94.72-1.42,1.08h-.9ZM653.92,280.76c.3-6.51-4.93-12.09-11.64-12.41-6.51-.31-12.11,4.91-12.44,11.62-.33,6.56,4.94,12.17,11.7,12.47,6.51.29,12.07-4.96,12.38-11.68Z"/>
          <path class="cls-36" d="M210.13,149.76v97.26c0,7.42,6.04,13.46,13.46,13.46h17.68c22.93,31.37,61.83,30.48,61.83,30.48-16-7.32-22.33-20.88-24.85-30.48h119.59c7.44,0,13.46-6.04,13.46-13.46v-97.26c0-7.42-6.01-13.46-13.46-13.46h-174.25c-7.42,0-13.46,6.04-13.46,13.46Z"/>
          <g>
            <path class="cls-15" d="M331.41,175.58v58.02c-.37.02-.71.05-1.06.05-20.23,0-40.46,0-60.68,0-3.45,0-5.84-1.75-6.51-4.8-.12-.53-.14-1.09-.14-1.64-.01-3.92-.01-7.85,0-11.77,0-1.85.53-2.39,2.41-2.52,4.52-.32,7.69-3.4,8.06-7.84.32-3.87-2.43-7.58-6.38-8.52-.69-.16-1.41-.2-2.12-.27-1.26-.12-1.95-.73-1.95-1.97-.02-4.38-.07-8.75.03-13.13.07-2.99,2.6-5.41,5.59-5.59.48-.03.97-.03,1.46-.03,20,0,40,0,60,0h1.3ZM301.32,206.71c4.28,0,8.56,0,12.83,0,.45,0,.91-.02,1.35-.13.91-.22,1.42-.97,1.42-1.96,0-.98-.51-1.74-1.42-1.96-.46-.11-.96-.13-1.44-.13-8.46,0-16.92,0-25.38,0-.39,0-.78,0-1.16.06-1.08.18-1.7.94-1.7,2.03,0,1.32.84,2.08,2.38,2.09,4.38.01,8.75,0,13.13,0ZM301.37,212.93c-1.1,0-2.2,0-3.31,0-3.37,0-6.74-.02-10.11.01-1.71.02-2.66,1.55-1.91,3.03.46.91,1.27,1.09,2.21,1.09,8.75,0,17.5,0,26.25,0,.16,0,.32,0,.49,0,1.45-.12,2.29-1.4,1.83-2.78-.32-.94-.94-1.34-2.22-1.34-4.41,0-8.82,0-13.22,0ZM294.04,196.3c2.04,0,4.08.01,6.11,0,1.48-.01,2.24-.75,2.23-2.08-.01-1.32-.8-2.04-2.28-2.04-3.98-.01-7.96,0-11.94,0-1.52,0-2.36.77-2.35,2.1.01,1.3.81,2.02,2.3,2.03,1.97.02,3.95,0,5.92,0Z"/>
            <path class="cls-15" d="M335.66,175.58h1.01c5.02,0,10.05,0,15.07,0,4.2,0,6.65,2.45,6.67,6.62.01,3.63-.06,7.26.03,10.89.05,2.11-.52,3.1-2.9,3.32-3.41.31-6.17,2.74-7.05,5.96-.91,3.29.26,6.76,2.99,8.85,1.35,1.03,2.89,1.54,4.58,1.69,1.81.16,2.35.79,2.35,2.63,0,3.86.01,7.72,0,11.57-.02,4.02-2.48,6.51-6.47,6.53-5.15.02-10.31,0-15.46,0-.25,0-.51-.03-.81-.04v-58.02Z"/>
            <path class="cls-15" d="M285.84,170.99c2.37-.82,4.73-1.65,7.1-2.46,16.88-5.82,33.75-11.65,50.63-17.46,3.91-1.35,7.2.26,8.56,4.15,1.27,3.63,2.55,7.26,3.83,10.89.62,1.78.18,2.72-1.57,3.44-.45.18-.96.32-1.3.63-1.11,1-2.41,1.02-3.8,1.01-20.77-.02-41.54-.02-62.3-.02-.37,0-.74,0-1.11,0-.01-.07-.02-.13-.03-.2Z"/>
          </g>
          <g>
            <path class="cls-23" d="M561.89,180.48c0,4.33-3.51,7.83-7.83,7.83s-7.83-3.51-7.83-7.83,3.51-7.83,7.83-7.83,7.83,3.51,7.83,7.83Z"/>
            <path class="cls-23" d="M571.63,213.63v-10.36c0-3.72-3.02-6.74-6.74-6.74h-21.66c-3.72,0-6.74,3.02-6.74,6.74v10.36h35.15Z"/>
          </g>
          <path class="cls-1" d="M920.11,462.24h203.15c17.86,0,32.37,14.5,32.37,32.37v126.59c0,17.86-14.5,32.37-32.37,32.37h-203.15c-17.86,0-32.37-14.5-32.37-32.37v-126.59c0-17.86,14.5-32.37,32.37-32.37Z"/>
          <path class="cls-15" d="M1128.34,588.9l-2.77.03c-.1,0-.19.01-.28.04l-21.22,5.8c-.26.07-.54.05-.78-.07l-29.82-11.48c-.76-.37,3.85-2.62,4.54-3.12,7.46-5.43,31.11-18.65,40-24.53,1.42-.94,1.03-3.12-.63-3.51-.8-.19-1.64-.14-2.41.14l-43.44,15.77-5.84-3.7c-.85-.54-1.98-.28-2.52.57l-2.86,4.53c-.53.83-.29,1.94.52,2.49l-5.6,2.03c-.27.1-.56.09-.82-.02l-26.73-11.4c-2.37-1.01-5.01-1.17-7.48-.45-1,.29-2.08.61-3.08.9-2.07.61-3.21,2.83-2.51,4.87l.35,1.03c1.15,3.35,3.73,6.01,7.04,7.26l21.68,8.16c.43.16.72.57.73,1.03l.19,9.37-1.24-.79c-.85-.54-1.98-.28-2.52.57l-2.86,4.53c-.54.85-.28,1.98.57,2.52l6.27,3.98.3,14.62c.02,1.18.4,2.33,1.07,3.3.86,1.23,1.77,2.6,2.08,2.46,1.03-.46,10.85-22.97,14.19-31.83.19-.5,4.45,1.08,4.95,1.27l29.55,9.04c.38.14.65.48.71.88l1.31,8.62c.15.97.62,1.85,1.34,2.51l.03.03c.51.47,1.32.37,1.69-.21l6.87-10.53c.2-.31.54-.5.9-.51l3.17-.1c.99-.03,1.45-1.24.74-1.93l-.77-.75,16.04-11.38c.89-.63.44-2.04-.66-2.03Z"/>
          <g>
            <rect class="cls-15" x="922.54" y="506.24" width="96.13" height="9.97"/>
            <rect class="cls-15" x="922.54" y="529" width="96.13" height="10.04"/>
            <rect class="cls-15" x="922.54" y="551.83" width="57.64" height="10.04"/>
          </g>
        </g>
      </g>
    </g>
  </g>
</svg>